G04 #@! TF.FileFunction,Soldermask,Bot*
%FSLAX46Y46*%
G04 Gerber Fmt 4.6, Leading zero omitted, Abs format (unit mm)*
G04 Created by KiCad (PCBNEW 4.0.2-stable) date vie 27 may 2016 00:51:31 CEST*
%MOMM*%
G01*
G04 APERTURE LIST*
%ADD10C,0.100000*%
%ADD11R,1.727200X1.727200*%
%ADD12O,1.727200X1.727200*%
%ADD13R,0.400000X1.200000*%
%ADD14R,2.032000X2.032000*%
%ADD15O,2.032000X2.032000*%
%ADD16R,1.727200X2.032000*%
%ADD17O,1.727200X2.032000*%
%ADD18R,2.235200X2.235200*%
%ADD19C,1.524000*%
%ADD20C,2.700020*%
%ADD21R,2.032000X1.727200*%
%ADD22O,2.032000X1.727200*%
%ADD23R,2.000000X1.800000*%
%ADD24C,3.200000*%
G04 APERTURE END LIST*
D10*
X96520000Y-77470000D02*
X96520000Y-127508000D01*
X186055000Y-77470000D02*
X96520000Y-77470000D01*
X186055000Y-127508000D02*
X186055000Y-77470000D01*
X96520000Y-127508000D02*
X186055000Y-127508000D01*
D11*
X121856500Y-121920000D03*
D12*
X121856500Y-124460000D03*
X124396500Y-121920000D03*
X124396500Y-124460000D03*
X126936500Y-121920000D03*
X126936500Y-124460000D03*
X129476500Y-121920000D03*
X129476500Y-124460000D03*
X132016500Y-121920000D03*
X132016500Y-124460000D03*
D13*
X155272000Y-96314500D03*
X155922000Y-96314500D03*
X156572000Y-96314500D03*
X157222000Y-96314500D03*
X157872000Y-96314500D03*
X158522000Y-96314500D03*
X159172000Y-96314500D03*
X159822000Y-96314500D03*
X160472000Y-96314500D03*
X161122000Y-96314500D03*
X161772000Y-96314500D03*
X162422000Y-96314500D03*
X163072000Y-96314500D03*
X163722000Y-96314500D03*
X164372000Y-96314500D03*
X165022000Y-96314500D03*
X165022000Y-110314500D03*
X164372000Y-110314500D03*
X163722000Y-110314500D03*
X163072000Y-110314500D03*
X162422000Y-110314500D03*
X161772000Y-110314500D03*
X161122000Y-110314500D03*
X160472000Y-110314500D03*
X159822000Y-110314500D03*
X159172000Y-110314500D03*
X158522000Y-110314500D03*
X157872000Y-110314500D03*
X157222000Y-110314500D03*
X156572000Y-110314500D03*
X155922000Y-110314500D03*
X155272000Y-110314500D03*
D14*
X120523000Y-91630500D03*
D15*
X117983000Y-91630500D03*
D16*
X138239500Y-80454500D03*
D17*
X135699500Y-80454500D03*
X133159500Y-80454500D03*
D18*
X128651000Y-80454500D03*
D19*
X113220500Y-98966020D03*
X113220500Y-96426020D03*
X111221520Y-96426020D03*
X111221520Y-98966020D03*
D20*
X108521500Y-103695500D03*
X108521500Y-91696540D03*
D16*
X171831000Y-90043000D03*
D17*
X169291000Y-90043000D03*
X166751000Y-90043000D03*
D21*
X173101000Y-101473000D03*
D22*
X173101000Y-104013000D03*
X173101000Y-106553000D03*
D18*
X124587000Y-80454500D03*
X174561500Y-114871500D03*
D16*
X114554000Y-118237000D03*
D17*
X112014000Y-118237000D03*
X109474000Y-118237000D03*
D21*
X182753000Y-124206000D03*
D22*
X182753000Y-121666000D03*
X182753000Y-119126000D03*
D23*
X123766000Y-112976500D03*
X123766000Y-107876500D03*
X119566000Y-112976500D03*
X119566000Y-107876500D03*
X130433500Y-112976500D03*
X130433500Y-107876500D03*
X126233500Y-112976500D03*
X126233500Y-107876500D03*
D14*
X121602500Y-116332000D03*
D15*
X119062500Y-116332000D03*
D14*
X129413000Y-116332000D03*
D15*
X126873000Y-116332000D03*
D11*
X167513000Y-81153000D03*
D12*
X167513000Y-83693000D03*
X170053000Y-81153000D03*
X170053000Y-83693000D03*
X172593000Y-81153000D03*
X172593000Y-83693000D03*
X175133000Y-81153000D03*
X175133000Y-83693000D03*
X177673000Y-81153000D03*
X177673000Y-83693000D03*
D11*
X156400500Y-83883500D03*
D12*
X156400500Y-81343500D03*
X153860500Y-83883500D03*
X153860500Y-81343500D03*
X151320500Y-83883500D03*
X151320500Y-81343500D03*
X148780500Y-83883500D03*
X148780500Y-81343500D03*
X146240500Y-83883500D03*
X146240500Y-81343500D03*
D11*
X142938500Y-121920000D03*
D12*
X142938500Y-124460000D03*
X145478500Y-121920000D03*
X145478500Y-124460000D03*
X148018500Y-121920000D03*
X148018500Y-124460000D03*
X150558500Y-121920000D03*
X150558500Y-124460000D03*
X153098500Y-121920000D03*
X153098500Y-124460000D03*
D11*
X164084000Y-121920000D03*
D12*
X164084000Y-124460000D03*
X166624000Y-121920000D03*
X166624000Y-124460000D03*
X169164000Y-121920000D03*
X169164000Y-124460000D03*
X171704000Y-121920000D03*
X171704000Y-124460000D03*
X174244000Y-121920000D03*
X174244000Y-124460000D03*
D11*
X179959000Y-103187500D03*
D12*
X182499000Y-103187500D03*
X179959000Y-100647500D03*
X182499000Y-100647500D03*
X179959000Y-98107500D03*
X182499000Y-98107500D03*
X179959000Y-95567500D03*
X182499000Y-95567500D03*
X179959000Y-93027500D03*
X182499000Y-93027500D03*
D11*
X103886000Y-111125000D03*
D12*
X101346000Y-111125000D03*
X103886000Y-113665000D03*
X101346000Y-113665000D03*
X103886000Y-116205000D03*
X101346000Y-116205000D03*
X103886000Y-118745000D03*
X101346000Y-118745000D03*
X103886000Y-121285000D03*
X101346000Y-121285000D03*
D24*
X102362000Y-85852000D03*
X111823500Y-123444000D03*
X181229000Y-113284000D03*
M02*
