G04 #@! TF.FileFunction,Soldermask,Top*
%FSLAX46Y46*%
G04 Gerber Fmt 4.6, Leading zero omitted, Abs format (unit mm)*
G04 Created by KiCad (PCBNEW 4.0.2-stable) date vie 27 may 2016 00:51:31 CEST*
%MOMM*%
G01*
G04 APERTURE LIST*
%ADD10C,0.100000*%
%ADD11R,1.727200X1.727200*%
%ADD12O,1.727200X1.727200*%
%ADD13R,1.500000X0.280000*%
%ADD14R,0.280000X1.500000*%
%ADD15R,1.600200X2.999740*%
%ADD16R,2.000000X1.600000*%
%ADD17R,2.999740X1.600200*%
%ADD18R,2.032000X2.032000*%
%ADD19O,2.032000X2.032000*%
%ADD20R,1.727200X2.032000*%
%ADD21O,1.727200X2.032000*%
%ADD22R,2.235200X2.235200*%
%ADD23C,1.524000*%
%ADD24C,2.700020*%
%ADD25R,2.032000X1.727200*%
%ADD26O,2.032000X1.727200*%
%ADD27R,2.000000X1.700000*%
%ADD28R,0.800100X0.800100*%
%ADD29R,5.600700X2.100580*%
%ADD30C,3.200000*%
G04 APERTURE END LIST*
D10*
X96520000Y-77470000D02*
X96520000Y-127508000D01*
X186055000Y-77470000D02*
X96520000Y-77470000D01*
X186055000Y-127508000D02*
X186055000Y-77470000D01*
X96520000Y-127508000D02*
X186055000Y-127508000D01*
D11*
X121856500Y-121920000D03*
D12*
X121856500Y-124460000D03*
X124396500Y-121920000D03*
X124396500Y-124460000D03*
X126936500Y-121920000D03*
X126936500Y-124460000D03*
X129476500Y-121920000D03*
X129476500Y-124460000D03*
X132016500Y-121920000D03*
X132016500Y-124460000D03*
D13*
X134213000Y-97009396D03*
X134213000Y-97509396D03*
X134213000Y-98009396D03*
X134213000Y-98509396D03*
X134213000Y-99009396D03*
X134213000Y-99509396D03*
X134213000Y-100009396D03*
X134213000Y-100509396D03*
X134213000Y-101009396D03*
X134213000Y-101509396D03*
X134213000Y-102009396D03*
X134213000Y-102509396D03*
X134213000Y-103009396D03*
X134213000Y-103509396D03*
X134213000Y-104009396D03*
X134213000Y-104509396D03*
X134213000Y-105009396D03*
X134213000Y-105509396D03*
X134213000Y-106009396D03*
X134213000Y-106509396D03*
X134213000Y-107009396D03*
X134213000Y-107509396D03*
X134213000Y-108009396D03*
X134213000Y-108509396D03*
X134213000Y-109009396D03*
D14*
X136113000Y-110909396D03*
X136613000Y-110909396D03*
X137113000Y-110909396D03*
X137613000Y-110909396D03*
X138113000Y-110909396D03*
X138613000Y-110909396D03*
X139113000Y-110909396D03*
X139613000Y-110909396D03*
X140113000Y-110909396D03*
X140613000Y-110909396D03*
X141113000Y-110909396D03*
X141613000Y-110909396D03*
X142113000Y-110909396D03*
X142613000Y-110909396D03*
X143113000Y-110909396D03*
X143613000Y-110909396D03*
X144113000Y-110909396D03*
X144613000Y-110909396D03*
X145113000Y-110909396D03*
X145613000Y-110909396D03*
X146113000Y-110909396D03*
X146613000Y-110909396D03*
X147113000Y-110909396D03*
X147613000Y-110909396D03*
X148113000Y-110909396D03*
D13*
X150013000Y-109009396D03*
X150013000Y-108509396D03*
X150013000Y-108009396D03*
X150013000Y-107509396D03*
X150013000Y-107009396D03*
X150013000Y-106509396D03*
X150013000Y-106009396D03*
X150013000Y-105509396D03*
X150013000Y-105009396D03*
X150013000Y-104509396D03*
X150013000Y-104009396D03*
X150013000Y-103509396D03*
X150013000Y-103009396D03*
X150013000Y-102509396D03*
X150013000Y-102009396D03*
X150013000Y-101509396D03*
X150013000Y-101009396D03*
X150013000Y-100509396D03*
X150013000Y-100009396D03*
X150013000Y-99509396D03*
X150013000Y-99009396D03*
X150013000Y-98509396D03*
X150013000Y-98009396D03*
X150013000Y-97509396D03*
X150013000Y-97009396D03*
D14*
X148113000Y-95109396D03*
X147613000Y-95109396D03*
X147113000Y-95109396D03*
X146613000Y-95109396D03*
X146113000Y-95109396D03*
X145613000Y-95109396D03*
X145113000Y-95109396D03*
X144613000Y-95109396D03*
X144113000Y-95109396D03*
X143613000Y-95109396D03*
X143113000Y-95109396D03*
X142613000Y-95109396D03*
X142113000Y-95109396D03*
X141613000Y-95109396D03*
X141113000Y-95109396D03*
X140613000Y-95109396D03*
X140113000Y-95109396D03*
X139613000Y-95109396D03*
X139113000Y-95109396D03*
X138613000Y-95109396D03*
X138113000Y-95109396D03*
X137613000Y-95109396D03*
X137113000Y-95109396D03*
X136613000Y-95109396D03*
X136113000Y-95109396D03*
D15*
X109474000Y-82913220D03*
X109474000Y-87312500D03*
X119189500Y-82659220D03*
X119189500Y-87058500D03*
D16*
X138398000Y-85280500D03*
X134398000Y-85280500D03*
X127095500Y-85280500D03*
X131095500Y-85280500D03*
D17*
X129834640Y-101790500D03*
X125435360Y-101790500D03*
D16*
X123602500Y-111760000D03*
X119602500Y-111760000D03*
X130333500Y-111760000D03*
X126333500Y-111760000D03*
D18*
X120523000Y-91630500D03*
D19*
X117983000Y-91630500D03*
D20*
X138239500Y-80454500D03*
D21*
X135699500Y-80454500D03*
X133159500Y-80454500D03*
D22*
X128651000Y-80454500D03*
D23*
X113220500Y-98966020D03*
X113220500Y-96426020D03*
X111221520Y-96426020D03*
X111221520Y-98966020D03*
D24*
X108521500Y-103695500D03*
X108521500Y-91696540D03*
D20*
X171831000Y-90043000D03*
D21*
X169291000Y-90043000D03*
X166751000Y-90043000D03*
D25*
X173101000Y-101473000D03*
D26*
X173101000Y-104013000D03*
X173101000Y-106553000D03*
D22*
X124587000Y-80454500D03*
X174561500Y-114871500D03*
D20*
X114554000Y-118237000D03*
D21*
X112014000Y-118237000D03*
X109474000Y-118237000D03*
D25*
X182753000Y-124206000D03*
D26*
X182753000Y-121666000D03*
X182753000Y-119126000D03*
D27*
X130968500Y-97345500D03*
X126968500Y-97345500D03*
D28*
X115427760Y-85278000D03*
X115427760Y-83378000D03*
X113428780Y-84328000D03*
D29*
X137119360Y-89535000D03*
X127421640Y-89535000D03*
D18*
X121602500Y-116332000D03*
D19*
X119062500Y-116332000D03*
D18*
X129413000Y-116332000D03*
D19*
X126873000Y-116332000D03*
D11*
X167513000Y-81153000D03*
D12*
X167513000Y-83693000D03*
X170053000Y-81153000D03*
X170053000Y-83693000D03*
X172593000Y-81153000D03*
X172593000Y-83693000D03*
X175133000Y-81153000D03*
X175133000Y-83693000D03*
X177673000Y-81153000D03*
X177673000Y-83693000D03*
D11*
X156400500Y-83883500D03*
D12*
X156400500Y-81343500D03*
X153860500Y-83883500D03*
X153860500Y-81343500D03*
X151320500Y-83883500D03*
X151320500Y-81343500D03*
X148780500Y-83883500D03*
X148780500Y-81343500D03*
X146240500Y-83883500D03*
X146240500Y-81343500D03*
D11*
X142938500Y-121920000D03*
D12*
X142938500Y-124460000D03*
X145478500Y-121920000D03*
X145478500Y-124460000D03*
X148018500Y-121920000D03*
X148018500Y-124460000D03*
X150558500Y-121920000D03*
X150558500Y-124460000D03*
X153098500Y-121920000D03*
X153098500Y-124460000D03*
D11*
X164084000Y-121920000D03*
D12*
X164084000Y-124460000D03*
X166624000Y-121920000D03*
X166624000Y-124460000D03*
X169164000Y-121920000D03*
X169164000Y-124460000D03*
X171704000Y-121920000D03*
X171704000Y-124460000D03*
X174244000Y-121920000D03*
X174244000Y-124460000D03*
D11*
X179959000Y-103187500D03*
D12*
X182499000Y-103187500D03*
X179959000Y-100647500D03*
X182499000Y-100647500D03*
X179959000Y-98107500D03*
X182499000Y-98107500D03*
X179959000Y-95567500D03*
X182499000Y-95567500D03*
X179959000Y-93027500D03*
X182499000Y-93027500D03*
D11*
X103886000Y-111125000D03*
D12*
X101346000Y-111125000D03*
X103886000Y-113665000D03*
X101346000Y-113665000D03*
X103886000Y-116205000D03*
X101346000Y-116205000D03*
X103886000Y-118745000D03*
X101346000Y-118745000D03*
X103886000Y-121285000D03*
X101346000Y-121285000D03*
D30*
X102362000Y-85852000D03*
X111823500Y-123444000D03*
X181229000Y-113284000D03*
M02*
