G04 #@! TF.FileFunction,Copper,L2,Bot,Signal*
%FSLAX46Y46*%
G04 Gerber Fmt 4.6, Leading zero omitted, Abs format (unit mm)*
G04 Created by KiCad (PCBNEW 4.0.2-stable) date vie 27 may 2016 00:51:31 CEST*
%MOMM*%
G01*
G04 APERTURE LIST*
%ADD10C,0.100000*%
%ADD11R,1.727200X1.727200*%
%ADD12O,1.727200X1.727200*%
%ADD13R,0.400000X1.200000*%
%ADD14R,2.032000X2.032000*%
%ADD15O,2.032000X2.032000*%
%ADD16R,1.727200X2.032000*%
%ADD17O,1.727200X2.032000*%
%ADD18R,2.235200X2.235200*%
%ADD19C,1.524000*%
%ADD20C,2.700020*%
%ADD21R,2.032000X1.727200*%
%ADD22O,2.032000X1.727200*%
%ADD23R,2.000000X1.800000*%
%ADD24C,0.600000*%
%ADD25C,0.250000*%
%ADD26C,0.350000*%
%ADD27C,0.254000*%
G04 APERTURE END LIST*
D10*
X96520000Y-77470000D02*
X96520000Y-127508000D01*
X186055000Y-77470000D02*
X96520000Y-77470000D01*
X186055000Y-127508000D02*
X186055000Y-77470000D01*
X96520000Y-127508000D02*
X186055000Y-127508000D01*
D11*
X121856500Y-121920000D03*
D12*
X121856500Y-124460000D03*
X124396500Y-121920000D03*
X124396500Y-124460000D03*
X126936500Y-121920000D03*
X126936500Y-124460000D03*
X129476500Y-121920000D03*
X129476500Y-124460000D03*
X132016500Y-121920000D03*
X132016500Y-124460000D03*
D13*
X155272000Y-96314500D03*
X155922000Y-96314500D03*
X156572000Y-96314500D03*
X157222000Y-96314500D03*
X157872000Y-96314500D03*
X158522000Y-96314500D03*
X159172000Y-96314500D03*
X159822000Y-96314500D03*
X160472000Y-96314500D03*
X161122000Y-96314500D03*
X161772000Y-96314500D03*
X162422000Y-96314500D03*
X163072000Y-96314500D03*
X163722000Y-96314500D03*
X164372000Y-96314500D03*
X165022000Y-96314500D03*
X165022000Y-110314500D03*
X164372000Y-110314500D03*
X163722000Y-110314500D03*
X163072000Y-110314500D03*
X162422000Y-110314500D03*
X161772000Y-110314500D03*
X161122000Y-110314500D03*
X160472000Y-110314500D03*
X159822000Y-110314500D03*
X159172000Y-110314500D03*
X158522000Y-110314500D03*
X157872000Y-110314500D03*
X157222000Y-110314500D03*
X156572000Y-110314500D03*
X155922000Y-110314500D03*
X155272000Y-110314500D03*
D14*
X120523000Y-91630500D03*
D15*
X117983000Y-91630500D03*
D16*
X138239500Y-80454500D03*
D17*
X135699500Y-80454500D03*
X133159500Y-80454500D03*
D18*
X128651000Y-80454500D03*
D19*
X113220500Y-98966020D03*
X113220500Y-96426020D03*
X111221520Y-96426020D03*
X111221520Y-98966020D03*
D20*
X108521500Y-103695500D03*
X108521500Y-91696540D03*
D16*
X171831000Y-90043000D03*
D17*
X169291000Y-90043000D03*
X166751000Y-90043000D03*
D21*
X173101000Y-101473000D03*
D22*
X173101000Y-104013000D03*
X173101000Y-106553000D03*
D18*
X124587000Y-80454500D03*
X174561500Y-114871500D03*
D16*
X114554000Y-118237000D03*
D17*
X112014000Y-118237000D03*
X109474000Y-118237000D03*
D21*
X182753000Y-124206000D03*
D22*
X182753000Y-121666000D03*
X182753000Y-119126000D03*
D23*
X123766000Y-112976500D03*
X123766000Y-107876500D03*
X119566000Y-112976500D03*
X119566000Y-107876500D03*
X130433500Y-112976500D03*
X130433500Y-107876500D03*
X126233500Y-112976500D03*
X126233500Y-107876500D03*
D14*
X121602500Y-116332000D03*
D15*
X119062500Y-116332000D03*
D14*
X129413000Y-116332000D03*
D15*
X126873000Y-116332000D03*
D11*
X167513000Y-81153000D03*
D12*
X167513000Y-83693000D03*
X170053000Y-81153000D03*
X170053000Y-83693000D03*
X172593000Y-81153000D03*
X172593000Y-83693000D03*
X175133000Y-81153000D03*
X175133000Y-83693000D03*
X177673000Y-81153000D03*
X177673000Y-83693000D03*
D11*
X156400500Y-83883500D03*
D12*
X156400500Y-81343500D03*
X153860500Y-83883500D03*
X153860500Y-81343500D03*
X151320500Y-83883500D03*
X151320500Y-81343500D03*
X148780500Y-83883500D03*
X148780500Y-81343500D03*
X146240500Y-83883500D03*
X146240500Y-81343500D03*
D11*
X142938500Y-121920000D03*
D12*
X142938500Y-124460000D03*
X145478500Y-121920000D03*
X145478500Y-124460000D03*
X148018500Y-121920000D03*
X148018500Y-124460000D03*
X150558500Y-121920000D03*
X150558500Y-124460000D03*
X153098500Y-121920000D03*
X153098500Y-124460000D03*
D11*
X164084000Y-121920000D03*
D12*
X164084000Y-124460000D03*
X166624000Y-121920000D03*
X166624000Y-124460000D03*
X169164000Y-121920000D03*
X169164000Y-124460000D03*
X171704000Y-121920000D03*
X171704000Y-124460000D03*
X174244000Y-121920000D03*
X174244000Y-124460000D03*
D11*
X179959000Y-103187500D03*
D12*
X182499000Y-103187500D03*
X179959000Y-100647500D03*
X182499000Y-100647500D03*
X179959000Y-98107500D03*
X182499000Y-98107500D03*
X179959000Y-95567500D03*
X182499000Y-95567500D03*
X179959000Y-93027500D03*
X182499000Y-93027500D03*
D11*
X103886000Y-111125000D03*
D12*
X101346000Y-111125000D03*
X103886000Y-113665000D03*
X101346000Y-113665000D03*
X103886000Y-116205000D03*
X101346000Y-116205000D03*
X103886000Y-118745000D03*
X101346000Y-118745000D03*
X103886000Y-121285000D03*
X101346000Y-121285000D03*
D24*
X179959000Y-104902000D03*
X178244500Y-103187500D03*
X104521000Y-109347000D03*
X105600500Y-110871000D03*
X158115000Y-83947000D03*
X156400500Y-85534500D03*
X167449500Y-79375000D03*
X165671500Y-81216500D03*
X171958000Y-88328500D03*
X173609000Y-90043000D03*
X171894500Y-91948000D03*
X175006000Y-101473000D03*
X173355000Y-99695000D03*
X171196000Y-101600000D03*
X184658000Y-124206000D03*
X182753000Y-125857000D03*
X180848000Y-124269500D03*
X164084000Y-120269000D03*
X162242500Y-121920000D03*
X142938500Y-120142000D03*
X141097000Y-121983500D03*
X116205000Y-118300500D03*
X114681000Y-120269000D03*
X114617500Y-116205000D03*
X117856000Y-89725500D03*
X115887500Y-91630500D03*
X117983000Y-93789500D03*
X148764615Y-104329220D03*
X120078500Y-121920000D03*
X121793000Y-120205500D03*
X127825500Y-111506000D03*
X120967500Y-111315500D03*
X119951500Y-110490000D03*
X123063000Y-116268500D03*
X121602500Y-114871500D03*
X121602500Y-117856000D03*
X129476500Y-117983000D03*
X130873500Y-116332000D03*
X129413000Y-114871500D03*
X135404346Y-105384376D03*
X126428500Y-102413436D03*
X135309989Y-102009396D03*
X142613000Y-109812407D03*
X115443000Y-84645500D03*
X115506500Y-85915500D03*
X133096000Y-79248000D03*
X132080000Y-80518000D03*
X133096000Y-81661000D03*
X108394500Y-87312500D03*
X110490000Y-87376000D03*
X109537500Y-89027000D03*
X120269000Y-87122000D03*
X119189500Y-88836500D03*
X117856000Y-87249000D03*
X134366000Y-86233000D03*
X134429500Y-84391500D03*
X131127500Y-86233000D03*
X131127500Y-84201000D03*
X132651500Y-85280500D03*
X126492000Y-100584000D03*
X136588500Y-96520000D03*
X122110500Y-112903000D03*
X132016500Y-112522000D03*
X159258000Y-97853500D03*
X162179000Y-114871500D03*
X161099500Y-114871500D03*
X160147000Y-114808000D03*
X159289441Y-114645716D03*
X158426135Y-114625111D03*
X157738392Y-114216421D03*
X157133836Y-113692464D03*
X156460266Y-113260813D03*
X147077140Y-96656980D03*
X158051500Y-90497480D03*
X147955000Y-97218500D03*
X162242500Y-102870000D03*
X163449000Y-102806500D03*
X163830000Y-102044500D03*
X165036500Y-102870000D03*
X164592000Y-100012500D03*
X164180397Y-99326495D03*
X163322000Y-98869500D03*
X162687000Y-98361500D03*
X156400500Y-97345500D03*
X153797000Y-96837500D03*
X148717000Y-96837500D03*
X154432000Y-93726000D03*
X161925000Y-92773500D03*
X155956000Y-92211980D03*
X156738389Y-92044988D03*
X159702500Y-91122500D03*
X138874500Y-96964500D03*
X136207500Y-82867500D03*
X134048500Y-91186000D03*
X137096500Y-93281500D03*
X127698500Y-113919000D03*
X148763112Y-101358285D03*
X150304500Y-95367020D03*
X148717000Y-103187500D03*
X149098000Y-95313500D03*
X136842500Y-104584500D03*
X132270500Y-94297500D03*
X168148000Y-113601500D03*
X167576500Y-107251500D03*
X136144000Y-108585000D03*
X135128000Y-111696500D03*
X178054000Y-105473500D03*
X177292000Y-111061500D03*
X177990500Y-106680000D03*
X177482500Y-109728000D03*
X132710151Y-106384376D03*
X132080000Y-107124500D03*
X118110000Y-114490500D03*
D25*
X160472000Y-110314500D02*
X160472000Y-109227500D01*
X133159500Y-80454500D02*
X132143500Y-80454500D01*
X132143500Y-80454500D02*
X132080000Y-80518000D01*
D26*
X122110500Y-112903000D02*
X123692500Y-112903000D01*
X123692500Y-112903000D02*
X123766000Y-112976500D01*
X132016500Y-112522000D02*
X130888000Y-112522000D01*
X130888000Y-112522000D02*
X130433500Y-112976500D01*
D25*
X159258000Y-97853500D02*
X159822000Y-97289500D01*
X159822000Y-97289500D02*
X159822000Y-96314500D01*
X162179000Y-114871500D02*
X162478999Y-114571501D01*
X162478999Y-114571501D02*
X162478999Y-110371499D01*
X162478999Y-110371499D02*
X162422000Y-110314500D01*
X162422000Y-111164500D02*
X162422000Y-110314500D01*
X161772000Y-111164500D02*
X161772000Y-110314500D01*
X161772000Y-114199000D02*
X161772000Y-111164500D01*
X161099500Y-114871500D02*
X161772000Y-114199000D01*
X161122000Y-110314500D02*
X161122000Y-113833000D01*
X161122000Y-113833000D02*
X160147000Y-114808000D01*
X159822000Y-114113157D02*
X159589440Y-114345717D01*
X159822000Y-110314500D02*
X159822000Y-114113157D01*
X159589440Y-114345717D02*
X159289441Y-114645716D01*
X159172000Y-110314500D02*
X159172000Y-113879246D01*
X159172000Y-113879246D02*
X158726134Y-114325112D01*
X158726134Y-114325112D02*
X158426135Y-114625111D01*
X158522000Y-110314500D02*
X158522000Y-113432813D01*
X158522000Y-113432813D02*
X158038391Y-113916422D01*
X158038391Y-113916422D02*
X157738392Y-114216421D01*
X157433835Y-113392465D02*
X157133836Y-113692464D01*
X157872000Y-112954300D02*
X157433835Y-113392465D01*
X157872000Y-110314500D02*
X157872000Y-112954300D01*
X157222000Y-112499079D02*
X156760265Y-112960814D01*
X156760265Y-112960814D02*
X156460266Y-113260813D01*
X157222000Y-110314500D02*
X157222000Y-112499079D01*
X148653500Y-112204500D02*
X146668467Y-110219467D01*
X155532000Y-112204500D02*
X148653500Y-112204500D01*
X156572000Y-111164500D02*
X155532000Y-112204500D01*
X156572000Y-110314500D02*
X156572000Y-111164500D01*
X146668467Y-110219467D02*
X146668467Y-97065653D01*
X146777141Y-96956979D02*
X147077140Y-96656980D01*
X146668467Y-97065653D02*
X146777141Y-96956979D01*
X159172000Y-91617980D02*
X158351499Y-90797479D01*
X159172000Y-96314500D02*
X159172000Y-91617980D01*
X158351499Y-90797479D02*
X158051500Y-90497480D01*
X147118478Y-98055022D02*
X147655001Y-97518499D01*
X147655001Y-97518499D02*
X147955000Y-97218500D01*
X155272000Y-110314500D02*
X149937089Y-110314500D01*
X149937089Y-110314500D02*
X147118478Y-107495889D01*
X147118478Y-107495889D02*
X147118478Y-98055022D01*
X155272000Y-110314500D02*
X155272000Y-111164500D01*
X162242500Y-102870000D02*
X163072000Y-103699500D01*
X163072000Y-103699500D02*
X163072000Y-110314500D01*
X163722000Y-110314500D02*
X163722000Y-103079500D01*
X163722000Y-103079500D02*
X163449000Y-102806500D01*
X163830000Y-102044500D02*
X164372000Y-102586500D01*
X164372000Y-102586500D02*
X164372000Y-110314500D01*
X165022000Y-110314500D02*
X165022000Y-102884500D01*
X165022000Y-102884500D02*
X165036500Y-102870000D01*
X164592000Y-100012500D02*
X165022000Y-99582500D01*
X165022000Y-99582500D02*
X165022000Y-96314500D01*
X164372000Y-99134892D02*
X164180397Y-99326495D01*
X164372000Y-96314500D02*
X164372000Y-99134892D01*
X163322000Y-98869500D02*
X163722000Y-98469500D01*
X163722000Y-98469500D02*
X163722000Y-96314500D01*
X162687000Y-98361500D02*
X163072000Y-97976500D01*
X163072000Y-97976500D02*
X163072000Y-96314500D01*
X156400500Y-97345500D02*
X156572000Y-97174000D01*
X156572000Y-97174000D02*
X156572000Y-96314500D01*
X153797000Y-96837500D02*
X154199001Y-97239501D01*
X154199001Y-97239501D02*
X155617499Y-97239501D01*
X155617499Y-97239501D02*
X155922000Y-96935000D01*
X155922000Y-96935000D02*
X155922000Y-96314500D01*
X149352000Y-109093000D02*
X155550500Y-109093000D01*
X148717000Y-96837500D02*
X148717000Y-99884089D01*
X155550500Y-109093000D02*
X155922000Y-109464500D01*
X148717000Y-99884089D02*
X147568489Y-101032600D01*
X147568489Y-101032600D02*
X147568489Y-107309489D01*
X147568489Y-107309489D02*
X149352000Y-109093000D01*
X155922000Y-109464500D02*
X155922000Y-110314500D01*
X154432000Y-93726000D02*
X155272000Y-94566000D01*
X155272000Y-94566000D02*
X155272000Y-96314500D01*
X161925000Y-92773500D02*
X162422000Y-93270500D01*
X162422000Y-93270500D02*
X162422000Y-96314500D01*
X156255999Y-92511979D02*
X155956000Y-92211980D01*
X157222000Y-96314500D02*
X157222000Y-93477980D01*
X157222000Y-93477980D02*
X156255999Y-92511979D01*
X157872000Y-96314500D02*
X157872000Y-93178599D01*
X157038388Y-92344987D02*
X156738389Y-92044988D01*
X157872000Y-93178599D02*
X157038388Y-92344987D01*
X161772000Y-95464500D02*
X161772000Y-96314500D01*
X159702500Y-91546764D02*
X161772000Y-93616264D01*
X159702500Y-91122500D02*
X159702500Y-91546764D01*
X161772000Y-93616264D02*
X161772000Y-95464500D01*
X137922000Y-84582000D02*
X136207500Y-82867500D01*
X139763500Y-96499764D02*
X139763500Y-86423500D01*
X139763500Y-86423500D02*
X137922000Y-84582000D01*
X138874500Y-96964500D02*
X139298764Y-96964500D01*
X139298764Y-96964500D02*
X139763500Y-96499764D01*
X135488764Y-91249500D02*
X134112000Y-91249500D01*
X134112000Y-91249500D02*
X134048500Y-91186000D01*
X137096500Y-93281500D02*
X137096500Y-92857236D01*
X137096500Y-92857236D02*
X135488764Y-91249500D01*
X126233500Y-112976500D02*
X126756000Y-112976500D01*
X126756000Y-112976500D02*
X127698500Y-113919000D01*
X150304500Y-99816897D02*
X149063111Y-101058286D01*
X150304500Y-95367020D02*
X150304500Y-99816897D01*
X149063111Y-101058286D02*
X148763112Y-101358285D01*
X148018500Y-101219000D02*
X148018500Y-102489000D01*
X148018500Y-102489000D02*
X148717000Y-103187500D01*
X149479000Y-99758500D02*
X148018500Y-101219000D01*
X149479000Y-96118764D02*
X149479000Y-99758500D01*
X149098000Y-95313500D02*
X149098000Y-95737764D01*
X149098000Y-95737764D02*
X149479000Y-96118764D01*
X133159500Y-94297500D02*
X136842500Y-97980500D01*
X136842500Y-97980500D02*
X136842500Y-104584500D01*
X132270500Y-94297500D02*
X133159500Y-94297500D01*
X168148000Y-113601500D02*
X168148000Y-107823000D01*
X168148000Y-107823000D02*
X167876499Y-107551499D01*
X167876499Y-107551499D02*
X167576500Y-107251500D01*
X168148000Y-113601500D02*
X168148000Y-110299500D01*
X168021000Y-107696000D02*
X167576500Y-107251500D01*
X135128000Y-111696500D02*
X136144000Y-110680500D01*
X136144000Y-110680500D02*
X136144000Y-108585000D01*
X178879500Y-109474000D02*
X178879500Y-106299000D01*
X178879500Y-106299000D02*
X178054000Y-105473500D01*
X177292000Y-111061500D02*
X178879500Y-109474000D01*
X177482500Y-109728000D02*
X177482500Y-107188000D01*
X177482500Y-107188000D02*
X177990500Y-106680000D01*
X125358124Y-106384376D02*
X132285887Y-106384376D01*
X123866000Y-107876500D02*
X125358124Y-106384376D01*
X123766000Y-107876500D02*
X123866000Y-107876500D01*
X132285887Y-106384376D02*
X132710151Y-106384376D01*
X132080000Y-107124500D02*
X131185500Y-107124500D01*
X131185500Y-107124500D02*
X130433500Y-107876500D01*
X119566000Y-112976500D02*
X119566000Y-113034500D01*
X119566000Y-113034500D02*
X118110000Y-114490500D01*
D27*
G36*
X185370000Y-126823000D02*
X97205000Y-126823000D01*
X97205000Y-123886619D01*
X109588113Y-123886619D01*
X109927655Y-124708372D01*
X110555821Y-125337636D01*
X111376981Y-125678611D01*
X112266119Y-125679387D01*
X113087872Y-125339845D01*
X113717136Y-124711679D01*
X113821642Y-124460000D01*
X120328541Y-124460000D01*
X120442615Y-125033489D01*
X120767471Y-125519670D01*
X121253652Y-125844526D01*
X121827141Y-125958600D01*
X121885859Y-125958600D01*
X122459348Y-125844526D01*
X122945529Y-125519670D01*
X123126500Y-125248828D01*
X123307471Y-125519670D01*
X123793652Y-125844526D01*
X124367141Y-125958600D01*
X124425859Y-125958600D01*
X124999348Y-125844526D01*
X125485529Y-125519670D01*
X125666500Y-125248828D01*
X125847471Y-125519670D01*
X126333652Y-125844526D01*
X126907141Y-125958600D01*
X126965859Y-125958600D01*
X127539348Y-125844526D01*
X128025529Y-125519670D01*
X128206500Y-125248828D01*
X128387471Y-125519670D01*
X128873652Y-125844526D01*
X129447141Y-125958600D01*
X129505859Y-125958600D01*
X130079348Y-125844526D01*
X130565529Y-125519670D01*
X130746500Y-125248828D01*
X130927471Y-125519670D01*
X131413652Y-125844526D01*
X131987141Y-125958600D01*
X132045859Y-125958600D01*
X132619348Y-125844526D01*
X133105529Y-125519670D01*
X133430385Y-125033489D01*
X133544459Y-124460000D01*
X141410541Y-124460000D01*
X141524615Y-125033489D01*
X141849471Y-125519670D01*
X142335652Y-125844526D01*
X142909141Y-125958600D01*
X142967859Y-125958600D01*
X143541348Y-125844526D01*
X144027529Y-125519670D01*
X144208500Y-125248828D01*
X144389471Y-125519670D01*
X144875652Y-125844526D01*
X145449141Y-125958600D01*
X145507859Y-125958600D01*
X146081348Y-125844526D01*
X146567529Y-125519670D01*
X146748500Y-125248828D01*
X146929471Y-125519670D01*
X147415652Y-125844526D01*
X147989141Y-125958600D01*
X148047859Y-125958600D01*
X148621348Y-125844526D01*
X149107529Y-125519670D01*
X149288500Y-125248828D01*
X149469471Y-125519670D01*
X149955652Y-125844526D01*
X150529141Y-125958600D01*
X150587859Y-125958600D01*
X151161348Y-125844526D01*
X151647529Y-125519670D01*
X151828500Y-125248828D01*
X152009471Y-125519670D01*
X152495652Y-125844526D01*
X153069141Y-125958600D01*
X153127859Y-125958600D01*
X153701348Y-125844526D01*
X154187529Y-125519670D01*
X154512385Y-125033489D01*
X154626459Y-124460000D01*
X162556041Y-124460000D01*
X162670115Y-125033489D01*
X162994971Y-125519670D01*
X163481152Y-125844526D01*
X164054641Y-125958600D01*
X164113359Y-125958600D01*
X164686848Y-125844526D01*
X165173029Y-125519670D01*
X165354000Y-125248828D01*
X165534971Y-125519670D01*
X166021152Y-125844526D01*
X166594641Y-125958600D01*
X166653359Y-125958600D01*
X167226848Y-125844526D01*
X167713029Y-125519670D01*
X167894000Y-125248828D01*
X168074971Y-125519670D01*
X168561152Y-125844526D01*
X169134641Y-125958600D01*
X169193359Y-125958600D01*
X169766848Y-125844526D01*
X170253029Y-125519670D01*
X170434000Y-125248828D01*
X170614971Y-125519670D01*
X171101152Y-125844526D01*
X171674641Y-125958600D01*
X171733359Y-125958600D01*
X172306848Y-125844526D01*
X172793029Y-125519670D01*
X172974000Y-125248828D01*
X173154971Y-125519670D01*
X173641152Y-125844526D01*
X174214641Y-125958600D01*
X174273359Y-125958600D01*
X174846848Y-125844526D01*
X175333029Y-125519670D01*
X175657885Y-125033489D01*
X175765643Y-124491750D01*
X181102000Y-124491750D01*
X181102000Y-125195910D01*
X181198673Y-125429299D01*
X181377302Y-125607927D01*
X181610691Y-125704600D01*
X182467250Y-125704600D01*
X182626000Y-125545850D01*
X182626000Y-124333000D01*
X182880000Y-124333000D01*
X182880000Y-125545850D01*
X183038750Y-125704600D01*
X183895309Y-125704600D01*
X184128698Y-125607927D01*
X184307327Y-125429299D01*
X184404000Y-125195910D01*
X184404000Y-124491750D01*
X184245250Y-124333000D01*
X182880000Y-124333000D01*
X182626000Y-124333000D01*
X181260750Y-124333000D01*
X181102000Y-124491750D01*
X175765643Y-124491750D01*
X175771959Y-124460000D01*
X175657885Y-123886511D01*
X175333029Y-123400330D01*
X175018248Y-123190000D01*
X175333029Y-122979670D01*
X175657885Y-122493489D01*
X175771959Y-121920000D01*
X175657885Y-121346511D01*
X175333029Y-120860330D01*
X174846848Y-120535474D01*
X174273359Y-120421400D01*
X174214641Y-120421400D01*
X173641152Y-120535474D01*
X173154971Y-120860330D01*
X172974000Y-121131172D01*
X172793029Y-120860330D01*
X172306848Y-120535474D01*
X171733359Y-120421400D01*
X171674641Y-120421400D01*
X171101152Y-120535474D01*
X170614971Y-120860330D01*
X170434000Y-121131172D01*
X170253029Y-120860330D01*
X169766848Y-120535474D01*
X169193359Y-120421400D01*
X169134641Y-120421400D01*
X168561152Y-120535474D01*
X168074971Y-120860330D01*
X167894000Y-121131172D01*
X167713029Y-120860330D01*
X167226848Y-120535474D01*
X166653359Y-120421400D01*
X166594641Y-120421400D01*
X166021152Y-120535474D01*
X165549644Y-120850526D01*
X165485927Y-120696701D01*
X165307298Y-120518073D01*
X165073909Y-120421400D01*
X164369750Y-120421400D01*
X164211000Y-120580150D01*
X164211000Y-121793000D01*
X164231000Y-121793000D01*
X164231000Y-122047000D01*
X164211000Y-122047000D01*
X164211000Y-122067000D01*
X163957000Y-122067000D01*
X163957000Y-122047000D01*
X162744150Y-122047000D01*
X162585400Y-122205750D01*
X162585400Y-122909910D01*
X162682073Y-123143299D01*
X162860702Y-123321927D01*
X163016023Y-123386263D01*
X162994971Y-123400330D01*
X162670115Y-123886511D01*
X162556041Y-124460000D01*
X154626459Y-124460000D01*
X154512385Y-123886511D01*
X154187529Y-123400330D01*
X153872748Y-123190000D01*
X154187529Y-122979670D01*
X154512385Y-122493489D01*
X154626459Y-121920000D01*
X154512385Y-121346511D01*
X154234142Y-120930090D01*
X162585400Y-120930090D01*
X162585400Y-121634250D01*
X162744150Y-121793000D01*
X163957000Y-121793000D01*
X163957000Y-120580150D01*
X163798250Y-120421400D01*
X163094091Y-120421400D01*
X162860702Y-120518073D01*
X162682073Y-120696701D01*
X162585400Y-120930090D01*
X154234142Y-120930090D01*
X154187529Y-120860330D01*
X153701348Y-120535474D01*
X153127859Y-120421400D01*
X153069141Y-120421400D01*
X152495652Y-120535474D01*
X152009471Y-120860330D01*
X151828500Y-121131172D01*
X151647529Y-120860330D01*
X151161348Y-120535474D01*
X150587859Y-120421400D01*
X150529141Y-120421400D01*
X149955652Y-120535474D01*
X149469471Y-120860330D01*
X149288500Y-121131172D01*
X149107529Y-120860330D01*
X148621348Y-120535474D01*
X148047859Y-120421400D01*
X147989141Y-120421400D01*
X147415652Y-120535474D01*
X146929471Y-120860330D01*
X146748500Y-121131172D01*
X146567529Y-120860330D01*
X146081348Y-120535474D01*
X145507859Y-120421400D01*
X145449141Y-120421400D01*
X144875652Y-120535474D01*
X144404144Y-120850526D01*
X144340427Y-120696701D01*
X144161798Y-120518073D01*
X143928409Y-120421400D01*
X143224250Y-120421400D01*
X143065500Y-120580150D01*
X143065500Y-121793000D01*
X143085500Y-121793000D01*
X143085500Y-122047000D01*
X143065500Y-122047000D01*
X143065500Y-122067000D01*
X142811500Y-122067000D01*
X142811500Y-122047000D01*
X141598650Y-122047000D01*
X141439900Y-122205750D01*
X141439900Y-122909910D01*
X141536573Y-123143299D01*
X141715202Y-123321927D01*
X141870523Y-123386263D01*
X141849471Y-123400330D01*
X141524615Y-123886511D01*
X141410541Y-124460000D01*
X133544459Y-124460000D01*
X133430385Y-123886511D01*
X133105529Y-123400330D01*
X132790748Y-123190000D01*
X133105529Y-122979670D01*
X133430385Y-122493489D01*
X133544459Y-121920000D01*
X133430385Y-121346511D01*
X133152142Y-120930090D01*
X141439900Y-120930090D01*
X141439900Y-121634250D01*
X141598650Y-121793000D01*
X142811500Y-121793000D01*
X142811500Y-120580150D01*
X142652750Y-120421400D01*
X141948591Y-120421400D01*
X141715202Y-120518073D01*
X141536573Y-120696701D01*
X141439900Y-120930090D01*
X133152142Y-120930090D01*
X133105529Y-120860330D01*
X132619348Y-120535474D01*
X132045859Y-120421400D01*
X131987141Y-120421400D01*
X131413652Y-120535474D01*
X130927471Y-120860330D01*
X130746500Y-121131172D01*
X130565529Y-120860330D01*
X130079348Y-120535474D01*
X129505859Y-120421400D01*
X129447141Y-120421400D01*
X128873652Y-120535474D01*
X128387471Y-120860330D01*
X128206500Y-121131172D01*
X128025529Y-120860330D01*
X127539348Y-120535474D01*
X126965859Y-120421400D01*
X126907141Y-120421400D01*
X126333652Y-120535474D01*
X125847471Y-120860330D01*
X125666500Y-121131172D01*
X125485529Y-120860330D01*
X124999348Y-120535474D01*
X124425859Y-120421400D01*
X124367141Y-120421400D01*
X123793652Y-120535474D01*
X123322144Y-120850526D01*
X123258427Y-120696701D01*
X123079798Y-120518073D01*
X122846409Y-120421400D01*
X122142250Y-120421400D01*
X121983500Y-120580150D01*
X121983500Y-121793000D01*
X122003500Y-121793000D01*
X122003500Y-122047000D01*
X121983500Y-122047000D01*
X121983500Y-122067000D01*
X121729500Y-122067000D01*
X121729500Y-122047000D01*
X120516650Y-122047000D01*
X120357900Y-122205750D01*
X120357900Y-122909910D01*
X120454573Y-123143299D01*
X120633202Y-123321927D01*
X120788523Y-123386263D01*
X120767471Y-123400330D01*
X120442615Y-123886511D01*
X120328541Y-124460000D01*
X113821642Y-124460000D01*
X114058111Y-123890519D01*
X114058887Y-123001381D01*
X113719345Y-122179628D01*
X113091179Y-121550364D01*
X112270019Y-121209389D01*
X111380881Y-121208613D01*
X110559128Y-121548155D01*
X109929864Y-122176321D01*
X109588889Y-122997481D01*
X109588113Y-123886619D01*
X97205000Y-123886619D01*
X97205000Y-111095641D01*
X99847400Y-111095641D01*
X99847400Y-111154359D01*
X99961474Y-111727848D01*
X100286330Y-112214029D01*
X100557172Y-112395000D01*
X100286330Y-112575971D01*
X99961474Y-113062152D01*
X99847400Y-113635641D01*
X99847400Y-113694359D01*
X99961474Y-114267848D01*
X100286330Y-114754029D01*
X100557172Y-114935000D01*
X100286330Y-115115971D01*
X99961474Y-115602152D01*
X99847400Y-116175641D01*
X99847400Y-116234359D01*
X99961474Y-116807848D01*
X100286330Y-117294029D01*
X100557172Y-117475000D01*
X100286330Y-117655971D01*
X99961474Y-118142152D01*
X99847400Y-118715641D01*
X99847400Y-118774359D01*
X99961474Y-119347848D01*
X100286330Y-119834029D01*
X100557172Y-120015000D01*
X100286330Y-120195971D01*
X99961474Y-120682152D01*
X99847400Y-121255641D01*
X99847400Y-121314359D01*
X99961474Y-121887848D01*
X100286330Y-122374029D01*
X100772511Y-122698885D01*
X101346000Y-122812959D01*
X101919489Y-122698885D01*
X102405670Y-122374029D01*
X102616000Y-122059248D01*
X102826330Y-122374029D01*
X103312511Y-122698885D01*
X103886000Y-122812959D01*
X104459489Y-122698885D01*
X104945670Y-122374029D01*
X105270526Y-121887848D01*
X105384600Y-121314359D01*
X105384600Y-121255641D01*
X105319844Y-120930090D01*
X120357900Y-120930090D01*
X120357900Y-121634250D01*
X120516650Y-121793000D01*
X121729500Y-121793000D01*
X121729500Y-120580150D01*
X121570750Y-120421400D01*
X120866591Y-120421400D01*
X120633202Y-120518073D01*
X120454573Y-120696701D01*
X120357900Y-120930090D01*
X105319844Y-120930090D01*
X105270526Y-120682152D01*
X104945670Y-120195971D01*
X104674828Y-120015000D01*
X104945670Y-119834029D01*
X105270526Y-119347848D01*
X105384600Y-118774359D01*
X105384600Y-118715641D01*
X105270526Y-118142152D01*
X105210459Y-118052255D01*
X107975400Y-118052255D01*
X107975400Y-118421745D01*
X108089474Y-118995234D01*
X108414330Y-119481415D01*
X108900511Y-119806271D01*
X109474000Y-119920345D01*
X110047489Y-119806271D01*
X110533670Y-119481415D01*
X110744000Y-119166634D01*
X110954330Y-119481415D01*
X111440511Y-119806271D01*
X112014000Y-119920345D01*
X112587489Y-119806271D01*
X113073670Y-119481415D01*
X113088500Y-119459220D01*
X113152073Y-119612698D01*
X113330701Y-119791327D01*
X113564090Y-119888000D01*
X114268250Y-119888000D01*
X114427000Y-119729250D01*
X114427000Y-118364000D01*
X114681000Y-118364000D01*
X114681000Y-119729250D01*
X114839750Y-119888000D01*
X115543910Y-119888000D01*
X115777299Y-119791327D01*
X115955927Y-119612698D01*
X116052600Y-119379309D01*
X116052600Y-119126000D01*
X181069655Y-119126000D01*
X181183729Y-119699489D01*
X181508585Y-120185670D01*
X181823366Y-120396000D01*
X181508585Y-120606330D01*
X181183729Y-121092511D01*
X181069655Y-121666000D01*
X181183729Y-122239489D01*
X181508585Y-122725670D01*
X181530780Y-122740500D01*
X181377302Y-122804073D01*
X181198673Y-122982701D01*
X181102000Y-123216090D01*
X181102000Y-123920250D01*
X181260750Y-124079000D01*
X182626000Y-124079000D01*
X182626000Y-124059000D01*
X182880000Y-124059000D01*
X182880000Y-124079000D01*
X184245250Y-124079000D01*
X184404000Y-123920250D01*
X184404000Y-123216090D01*
X184307327Y-122982701D01*
X184128698Y-122804073D01*
X183975220Y-122740500D01*
X183997415Y-122725670D01*
X184322271Y-122239489D01*
X184436345Y-121666000D01*
X184322271Y-121092511D01*
X183997415Y-120606330D01*
X183682634Y-120396000D01*
X183997415Y-120185670D01*
X184322271Y-119699489D01*
X184436345Y-119126000D01*
X184322271Y-118552511D01*
X183997415Y-118066330D01*
X183511234Y-117741474D01*
X182937745Y-117627400D01*
X182568255Y-117627400D01*
X181994766Y-117741474D01*
X181508585Y-118066330D01*
X181183729Y-118552511D01*
X181069655Y-119126000D01*
X116052600Y-119126000D01*
X116052600Y-118522750D01*
X115893850Y-118364000D01*
X114681000Y-118364000D01*
X114427000Y-118364000D01*
X114407000Y-118364000D01*
X114407000Y-118110000D01*
X114427000Y-118110000D01*
X114427000Y-116744750D01*
X114681000Y-116744750D01*
X114681000Y-118110000D01*
X115893850Y-118110000D01*
X116052600Y-117951250D01*
X116052600Y-117094691D01*
X115955927Y-116861302D01*
X115777299Y-116682673D01*
X115543910Y-116586000D01*
X114839750Y-116586000D01*
X114681000Y-116744750D01*
X114427000Y-116744750D01*
X114268250Y-116586000D01*
X113564090Y-116586000D01*
X113330701Y-116682673D01*
X113152073Y-116861302D01*
X113088500Y-117014780D01*
X113073670Y-116992585D01*
X112587489Y-116667729D01*
X112014000Y-116553655D01*
X111440511Y-116667729D01*
X110954330Y-116992585D01*
X110744000Y-117307366D01*
X110533670Y-116992585D01*
X110047489Y-116667729D01*
X109474000Y-116553655D01*
X108900511Y-116667729D01*
X108414330Y-116992585D01*
X108089474Y-117478766D01*
X107975400Y-118052255D01*
X105210459Y-118052255D01*
X104945670Y-117655971D01*
X104674828Y-117475000D01*
X104945670Y-117294029D01*
X105270526Y-116807848D01*
X105384600Y-116234359D01*
X105384600Y-116175641D01*
X105270526Y-115602152D01*
X104945670Y-115115971D01*
X104674828Y-114935000D01*
X104945670Y-114754029D01*
X104998029Y-114675667D01*
X117174838Y-114675667D01*
X117316883Y-115019443D01*
X117579673Y-115282692D01*
X117747862Y-115352530D01*
X117537175Y-115667845D01*
X117411500Y-116299655D01*
X117411500Y-116364345D01*
X117537175Y-116996155D01*
X117895067Y-117531778D01*
X118430690Y-117889670D01*
X119062500Y-118015345D01*
X119694310Y-117889670D01*
X120030501Y-117665034D01*
X120048173Y-117707698D01*
X120226801Y-117886327D01*
X120460190Y-117983000D01*
X121316750Y-117983000D01*
X121475500Y-117824250D01*
X121475500Y-116459000D01*
X121729500Y-116459000D01*
X121729500Y-117824250D01*
X121888250Y-117983000D01*
X122744810Y-117983000D01*
X122978199Y-117886327D01*
X123156827Y-117707698D01*
X123253500Y-117474309D01*
X123253500Y-116617750D01*
X123094750Y-116459000D01*
X121729500Y-116459000D01*
X121475500Y-116459000D01*
X121455500Y-116459000D01*
X121455500Y-116205000D01*
X121475500Y-116205000D01*
X121475500Y-114839750D01*
X121729500Y-114839750D01*
X121729500Y-116205000D01*
X123094750Y-116205000D01*
X123253500Y-116046250D01*
X123253500Y-115189691D01*
X123156827Y-114956302D01*
X122978199Y-114777673D01*
X122744810Y-114681000D01*
X121888250Y-114681000D01*
X121729500Y-114839750D01*
X121475500Y-114839750D01*
X121316750Y-114681000D01*
X120460190Y-114681000D01*
X120226801Y-114777673D01*
X120048173Y-114956302D01*
X120030501Y-114998966D01*
X119694310Y-114774330D01*
X119062500Y-114648655D01*
X119044860Y-114652164D01*
X119044879Y-114630423D01*
X119151362Y-114523940D01*
X120566000Y-114523940D01*
X120801317Y-114479662D01*
X121017441Y-114340590D01*
X121162431Y-114128390D01*
X121213440Y-113876500D01*
X121213440Y-113180381D01*
X121317383Y-113431943D01*
X121580173Y-113695192D01*
X121923701Y-113837838D01*
X122118560Y-113838008D01*
X122118560Y-113876500D01*
X122162838Y-114111817D01*
X122301910Y-114327941D01*
X122514110Y-114472931D01*
X122766000Y-114523940D01*
X124766000Y-114523940D01*
X125001317Y-114479662D01*
X125004556Y-114477578D01*
X125233500Y-114523940D01*
X126981247Y-114523940D01*
X127163411Y-114706421D01*
X126873000Y-114648655D01*
X126241190Y-114774330D01*
X125705567Y-115132222D01*
X125347675Y-115667845D01*
X125222000Y-116299655D01*
X125222000Y-116364345D01*
X125347675Y-116996155D01*
X125705567Y-117531778D01*
X126241190Y-117889670D01*
X126873000Y-118015345D01*
X127504810Y-117889670D01*
X127841001Y-117665034D01*
X127858673Y-117707698D01*
X128037301Y-117886327D01*
X128270690Y-117983000D01*
X129127250Y-117983000D01*
X129286000Y-117824250D01*
X129286000Y-116459000D01*
X129540000Y-116459000D01*
X129540000Y-117824250D01*
X129698750Y-117983000D01*
X130555310Y-117983000D01*
X130788699Y-117886327D01*
X130967327Y-117707698D01*
X131064000Y-117474309D01*
X131064000Y-116617750D01*
X130905250Y-116459000D01*
X129540000Y-116459000D01*
X129286000Y-116459000D01*
X129266000Y-116459000D01*
X129266000Y-116205000D01*
X129286000Y-116205000D01*
X129286000Y-114839750D01*
X129540000Y-114839750D01*
X129540000Y-116205000D01*
X130905250Y-116205000D01*
X131064000Y-116046250D01*
X131064000Y-115189691D01*
X130967327Y-114956302D01*
X130788699Y-114777673D01*
X130555310Y-114681000D01*
X129698750Y-114681000D01*
X129540000Y-114839750D01*
X129286000Y-114839750D01*
X129127250Y-114681000D01*
X128270690Y-114681000D01*
X128250050Y-114689549D01*
X128490692Y-114449327D01*
X128633338Y-114105799D01*
X128633662Y-113733833D01*
X128491617Y-113390057D01*
X128228827Y-113126808D01*
X127885299Y-112984162D01*
X127880940Y-112984158D01*
X127880940Y-112076500D01*
X128786060Y-112076500D01*
X128786060Y-113876500D01*
X128830338Y-114111817D01*
X128969410Y-114327941D01*
X129181610Y-114472931D01*
X129433500Y-114523940D01*
X131433500Y-114523940D01*
X131668817Y-114479662D01*
X131884941Y-114340590D01*
X132029931Y-114128390D01*
X132080940Y-113876500D01*
X132080940Y-113457057D01*
X132201667Y-113457162D01*
X132545443Y-113315117D01*
X132808692Y-113052327D01*
X132951338Y-112708799D01*
X132951662Y-112336833D01*
X132809617Y-111993057D01*
X132698422Y-111881667D01*
X134192838Y-111881667D01*
X134334883Y-112225443D01*
X134597673Y-112488692D01*
X134941201Y-112631338D01*
X135313167Y-112631662D01*
X135656943Y-112489617D01*
X135920192Y-112226827D01*
X136062838Y-111883299D01*
X136062879Y-111836423D01*
X136681401Y-111217901D01*
X136846148Y-110971339D01*
X136904000Y-110680500D01*
X136904000Y-109147463D01*
X136936192Y-109115327D01*
X137078838Y-108771799D01*
X137079162Y-108399833D01*
X136937117Y-108056057D01*
X136674327Y-107792808D01*
X136330799Y-107650162D01*
X135958833Y-107649838D01*
X135615057Y-107791883D01*
X135351808Y-108054673D01*
X135209162Y-108398201D01*
X135208838Y-108770167D01*
X135350883Y-109113943D01*
X135384000Y-109147118D01*
X135384000Y-110365698D01*
X134988320Y-110761378D01*
X134942833Y-110761338D01*
X134599057Y-110903383D01*
X134335808Y-111166173D01*
X134193162Y-111509701D01*
X134192838Y-111881667D01*
X132698422Y-111881667D01*
X132546827Y-111729808D01*
X132203299Y-111587162D01*
X131841665Y-111586847D01*
X131685390Y-111480069D01*
X131433500Y-111429060D01*
X129433500Y-111429060D01*
X129198183Y-111473338D01*
X128982059Y-111612410D01*
X128837069Y-111824610D01*
X128786060Y-112076500D01*
X127880940Y-112076500D01*
X127836662Y-111841183D01*
X127697590Y-111625059D01*
X127485390Y-111480069D01*
X127233500Y-111429060D01*
X125233500Y-111429060D01*
X124998183Y-111473338D01*
X124994944Y-111475422D01*
X124766000Y-111429060D01*
X122766000Y-111429060D01*
X122530683Y-111473338D01*
X122314559Y-111612410D01*
X122169569Y-111824610D01*
X122140527Y-111968025D01*
X121925333Y-111967838D01*
X121581557Y-112109883D01*
X121318308Y-112372673D01*
X121213440Y-112625222D01*
X121213440Y-112076500D01*
X121169162Y-111841183D01*
X121030090Y-111625059D01*
X120817890Y-111480069D01*
X120566000Y-111429060D01*
X118566000Y-111429060D01*
X118330683Y-111473338D01*
X118114559Y-111612410D01*
X117969569Y-111824610D01*
X117918560Y-112076500D01*
X117918560Y-113557930D01*
X117581057Y-113697383D01*
X117317808Y-113960173D01*
X117175162Y-114303701D01*
X117174838Y-114675667D01*
X104998029Y-114675667D01*
X105270526Y-114267848D01*
X105384600Y-113694359D01*
X105384600Y-113635641D01*
X105270526Y-113062152D01*
X104955474Y-112590644D01*
X105109299Y-112526927D01*
X105287927Y-112348298D01*
X105384600Y-112114909D01*
X105384600Y-111410750D01*
X105225850Y-111252000D01*
X104013000Y-111252000D01*
X104013000Y-111272000D01*
X103759000Y-111272000D01*
X103759000Y-111252000D01*
X103739000Y-111252000D01*
X103739000Y-110998000D01*
X103759000Y-110998000D01*
X103759000Y-109785150D01*
X104013000Y-109785150D01*
X104013000Y-110998000D01*
X105225850Y-110998000D01*
X105384600Y-110839250D01*
X105384600Y-110135091D01*
X105287927Y-109901702D01*
X105109299Y-109723073D01*
X104875910Y-109626400D01*
X104171750Y-109626400D01*
X104013000Y-109785150D01*
X103759000Y-109785150D01*
X103600250Y-109626400D01*
X102896090Y-109626400D01*
X102662701Y-109723073D01*
X102484073Y-109901702D01*
X102419737Y-110057023D01*
X102405670Y-110035971D01*
X101919489Y-109711115D01*
X101346000Y-109597041D01*
X100772511Y-109711115D01*
X100286330Y-110035971D01*
X99961474Y-110522152D01*
X99847400Y-111095641D01*
X97205000Y-111095641D01*
X97205000Y-108162250D01*
X117931000Y-108162250D01*
X117931000Y-108902809D01*
X118027673Y-109136198D01*
X118206301Y-109314827D01*
X118439690Y-109411500D01*
X119280250Y-109411500D01*
X119439000Y-109252750D01*
X119439000Y-108003500D01*
X119693000Y-108003500D01*
X119693000Y-109252750D01*
X119851750Y-109411500D01*
X120692310Y-109411500D01*
X120925699Y-109314827D01*
X121104327Y-109136198D01*
X121201000Y-108902809D01*
X121201000Y-108162250D01*
X121042250Y-108003500D01*
X119693000Y-108003500D01*
X119439000Y-108003500D01*
X118089750Y-108003500D01*
X117931000Y-108162250D01*
X97205000Y-108162250D01*
X97205000Y-106850191D01*
X117931000Y-106850191D01*
X117931000Y-107590750D01*
X118089750Y-107749500D01*
X119439000Y-107749500D01*
X119439000Y-106500250D01*
X119693000Y-106500250D01*
X119693000Y-107749500D01*
X121042250Y-107749500D01*
X121201000Y-107590750D01*
X121201000Y-106976500D01*
X122118560Y-106976500D01*
X122118560Y-108776500D01*
X122162838Y-109011817D01*
X122301910Y-109227941D01*
X122514110Y-109372931D01*
X122766000Y-109423940D01*
X124766000Y-109423940D01*
X125001317Y-109379662D01*
X125012678Y-109372352D01*
X125107190Y-109411500D01*
X125947750Y-109411500D01*
X126106500Y-109252750D01*
X126106500Y-108003500D01*
X126360500Y-108003500D01*
X126360500Y-109252750D01*
X126519250Y-109411500D01*
X127359810Y-109411500D01*
X127593199Y-109314827D01*
X127771827Y-109136198D01*
X127868500Y-108902809D01*
X127868500Y-108162250D01*
X127709750Y-108003500D01*
X126360500Y-108003500D01*
X126106500Y-108003500D01*
X126086500Y-108003500D01*
X126086500Y-107749500D01*
X126106500Y-107749500D01*
X126106500Y-107729500D01*
X126360500Y-107729500D01*
X126360500Y-107749500D01*
X127709750Y-107749500D01*
X127868500Y-107590750D01*
X127868500Y-107144376D01*
X128786060Y-107144376D01*
X128786060Y-108776500D01*
X128830338Y-109011817D01*
X128969410Y-109227941D01*
X129181610Y-109372931D01*
X129433500Y-109423940D01*
X131433500Y-109423940D01*
X131668817Y-109379662D01*
X131884941Y-109240590D01*
X132029931Y-109028390D01*
X132080940Y-108776500D01*
X132080940Y-108059502D01*
X132265167Y-108059662D01*
X132608943Y-107917617D01*
X132872192Y-107654827D01*
X133014838Y-107311299D01*
X133014874Y-107270139D01*
X133239094Y-107177493D01*
X133502343Y-106914703D01*
X133644989Y-106571175D01*
X133645313Y-106199209D01*
X133503268Y-105855433D01*
X133240478Y-105592184D01*
X132896950Y-105449538D01*
X132524984Y-105449214D01*
X132181208Y-105591259D01*
X132148033Y-105624376D01*
X125358124Y-105624376D01*
X125067285Y-105682228D01*
X124820723Y-105846975D01*
X124338638Y-106329060D01*
X122766000Y-106329060D01*
X122530683Y-106373338D01*
X122314559Y-106512410D01*
X122169569Y-106724610D01*
X122118560Y-106976500D01*
X121201000Y-106976500D01*
X121201000Y-106850191D01*
X121104327Y-106616802D01*
X120925699Y-106438173D01*
X120692310Y-106341500D01*
X119851750Y-106341500D01*
X119693000Y-106500250D01*
X119439000Y-106500250D01*
X119280250Y-106341500D01*
X118439690Y-106341500D01*
X118206301Y-106438173D01*
X118027673Y-106616802D01*
X117931000Y-106850191D01*
X97205000Y-106850191D01*
X97205000Y-104088611D01*
X106536146Y-104088611D01*
X106837709Y-104818449D01*
X107395614Y-105377329D01*
X108124925Y-105680165D01*
X108914611Y-105680854D01*
X109644449Y-105379291D01*
X110203329Y-104821386D01*
X110506165Y-104092075D01*
X110506854Y-103302389D01*
X110205291Y-102572551D01*
X109647386Y-102013671D01*
X108918075Y-101710835D01*
X108128389Y-101710146D01*
X107398551Y-102011709D01*
X106839671Y-102569614D01*
X106536835Y-103298925D01*
X106536146Y-104088611D01*
X97205000Y-104088611D01*
X97205000Y-96702681D01*
X109824278Y-96702681D01*
X110036510Y-97216323D01*
X110429150Y-97609649D01*
X110637032Y-97695969D01*
X110431217Y-97781010D01*
X110037891Y-98173650D01*
X109824763Y-98686920D01*
X109824278Y-99242681D01*
X110036510Y-99756323D01*
X110429150Y-100149649D01*
X110942420Y-100362777D01*
X111498181Y-100363262D01*
X112011823Y-100151030D01*
X112221030Y-99942188D01*
X112428130Y-100149649D01*
X112941400Y-100362777D01*
X113497161Y-100363262D01*
X114010803Y-100151030D01*
X114404129Y-99758390D01*
X114617257Y-99245120D01*
X114617742Y-98689359D01*
X114405510Y-98175717D01*
X114012870Y-97782391D01*
X113804988Y-97696071D01*
X114010803Y-97611030D01*
X114404129Y-97218390D01*
X114617257Y-96705120D01*
X114617742Y-96149359D01*
X114405510Y-95635717D01*
X114012870Y-95242391D01*
X113499600Y-95029263D01*
X112943839Y-95028778D01*
X112430197Y-95241010D01*
X112220990Y-95449852D01*
X112013890Y-95242391D01*
X111500620Y-95029263D01*
X110944859Y-95028778D01*
X110431217Y-95241010D01*
X110037891Y-95633650D01*
X109824763Y-96146920D01*
X109824278Y-96702681D01*
X97205000Y-96702681D01*
X97205000Y-94482667D01*
X131335338Y-94482667D01*
X131477383Y-94826443D01*
X131740173Y-95089692D01*
X132083701Y-95232338D01*
X132455667Y-95232662D01*
X132799443Y-95090617D01*
X132832618Y-95057500D01*
X132844698Y-95057500D01*
X136082500Y-98295302D01*
X136082500Y-104022037D01*
X136050308Y-104054173D01*
X135907662Y-104397701D01*
X135907338Y-104769667D01*
X136049383Y-105113443D01*
X136312173Y-105376692D01*
X136655701Y-105519338D01*
X137027667Y-105519662D01*
X137371443Y-105377617D01*
X137634692Y-105114827D01*
X137777338Y-104771299D01*
X137777662Y-104399333D01*
X137635617Y-104055557D01*
X137602500Y-104022382D01*
X137602500Y-97980500D01*
X137544648Y-97689661D01*
X137379901Y-97443099D01*
X133696901Y-93760099D01*
X133450339Y-93595352D01*
X133159500Y-93537500D01*
X132832963Y-93537500D01*
X132800827Y-93505308D01*
X132457299Y-93362662D01*
X132085333Y-93362338D01*
X131741557Y-93504383D01*
X131478308Y-93767173D01*
X131335662Y-94110701D01*
X131335338Y-94482667D01*
X97205000Y-94482667D01*
X97205000Y-92089651D01*
X106536146Y-92089651D01*
X106837709Y-92819489D01*
X107395614Y-93378369D01*
X108124925Y-93681205D01*
X108914611Y-93681894D01*
X109644449Y-93380331D01*
X110203329Y-92822426D01*
X110506165Y-92093115D01*
X110506234Y-92013446D01*
X116377017Y-92013446D01*
X116645812Y-92598879D01*
X117118182Y-93036885D01*
X117600056Y-93236475D01*
X117856000Y-93117336D01*
X117856000Y-91757500D01*
X116495633Y-91757500D01*
X116377017Y-92013446D01*
X110506234Y-92013446D01*
X110506854Y-91303429D01*
X110483767Y-91247554D01*
X116377017Y-91247554D01*
X116495633Y-91503500D01*
X117856000Y-91503500D01*
X117856000Y-90143664D01*
X118110000Y-90143664D01*
X118110000Y-91503500D01*
X118130000Y-91503500D01*
X118130000Y-91757500D01*
X118110000Y-91757500D01*
X118110000Y-93117336D01*
X118365944Y-93236475D01*
X118847818Y-93036885D01*
X118945398Y-92946403D01*
X119042910Y-93097941D01*
X119255110Y-93242931D01*
X119507000Y-93293940D01*
X121539000Y-93293940D01*
X121774317Y-93249662D01*
X121990441Y-93110590D01*
X122135431Y-92898390D01*
X122186440Y-92646500D01*
X122186440Y-91371167D01*
X133113338Y-91371167D01*
X133255383Y-91714943D01*
X133518173Y-91978192D01*
X133861701Y-92120838D01*
X134233667Y-92121162D01*
X134503910Y-92009500D01*
X135173962Y-92009500D01*
X136190269Y-93025807D01*
X136161662Y-93094701D01*
X136161338Y-93466667D01*
X136303383Y-93810443D01*
X136566173Y-94073692D01*
X136909701Y-94216338D01*
X137281667Y-94216662D01*
X137625443Y-94074617D01*
X137888692Y-93811827D01*
X138031338Y-93468299D01*
X138031662Y-93096333D01*
X137889617Y-92752557D01*
X137822255Y-92685078D01*
X137798648Y-92566397D01*
X137633901Y-92319835D01*
X136026165Y-90712099D01*
X135779603Y-90547352D01*
X135488764Y-90489500D01*
X134674352Y-90489500D01*
X134578827Y-90393808D01*
X134235299Y-90251162D01*
X133863333Y-90250838D01*
X133519557Y-90392883D01*
X133256308Y-90655673D01*
X133113662Y-90999201D01*
X133113338Y-91371167D01*
X122186440Y-91371167D01*
X122186440Y-90614500D01*
X122142162Y-90379183D01*
X122003090Y-90163059D01*
X121790890Y-90018069D01*
X121539000Y-89967060D01*
X119507000Y-89967060D01*
X119271683Y-90011338D01*
X119055559Y-90150410D01*
X118944160Y-90313448D01*
X118847818Y-90224115D01*
X118365944Y-90024525D01*
X118110000Y-90143664D01*
X117856000Y-90143664D01*
X117600056Y-90024525D01*
X117118182Y-90224115D01*
X116645812Y-90662121D01*
X116377017Y-91247554D01*
X110483767Y-91247554D01*
X110205291Y-90573591D01*
X109647386Y-90014711D01*
X108918075Y-89711875D01*
X108128389Y-89711186D01*
X107398551Y-90012749D01*
X106839671Y-90570654D01*
X106536835Y-91299965D01*
X106536146Y-92089651D01*
X97205000Y-92089651D01*
X97205000Y-86294619D01*
X100126613Y-86294619D01*
X100466155Y-87116372D01*
X101094321Y-87745636D01*
X101915481Y-88086611D01*
X102804619Y-88087387D01*
X103626372Y-87747845D01*
X104255636Y-87119679D01*
X104596611Y-86298519D01*
X104597387Y-85409381D01*
X104257845Y-84587628D01*
X103629679Y-83958364D01*
X102808519Y-83617389D01*
X101919381Y-83616613D01*
X101097628Y-83956155D01*
X100468364Y-84584321D01*
X100127389Y-85405481D01*
X100126613Y-86294619D01*
X97205000Y-86294619D01*
X97205000Y-79336900D01*
X122821960Y-79336900D01*
X122821960Y-81572100D01*
X122866238Y-81807417D01*
X123005310Y-82023541D01*
X123217510Y-82168531D01*
X123469400Y-82219540D01*
X125704600Y-82219540D01*
X125939917Y-82175262D01*
X126156041Y-82036190D01*
X126301031Y-81823990D01*
X126352040Y-81572100D01*
X126352040Y-79336900D01*
X126885960Y-79336900D01*
X126885960Y-81572100D01*
X126930238Y-81807417D01*
X127069310Y-82023541D01*
X127281510Y-82168531D01*
X127533400Y-82219540D01*
X129768600Y-82219540D01*
X130003917Y-82175262D01*
X130220041Y-82036190D01*
X130365031Y-81823990D01*
X130416040Y-81572100D01*
X130416040Y-80816413D01*
X131674316Y-80816413D01*
X131867546Y-81368820D01*
X132257464Y-81805232D01*
X132784709Y-82059209D01*
X132800474Y-82061858D01*
X133032500Y-81940717D01*
X133032500Y-80581500D01*
X131818576Y-80581500D01*
X131674316Y-80816413D01*
X130416040Y-80816413D01*
X130416040Y-80092587D01*
X131674316Y-80092587D01*
X131818576Y-80327500D01*
X133032500Y-80327500D01*
X133032500Y-78968283D01*
X133286500Y-78968283D01*
X133286500Y-80327500D01*
X133306500Y-80327500D01*
X133306500Y-80581500D01*
X133286500Y-80581500D01*
X133286500Y-81940717D01*
X133518526Y-82061858D01*
X133534291Y-82059209D01*
X134061536Y-81805232D01*
X134433039Y-81389431D01*
X134639830Y-81698915D01*
X135126011Y-82023771D01*
X135629027Y-82123827D01*
X135415308Y-82337173D01*
X135272662Y-82680701D01*
X135272338Y-83052667D01*
X135414383Y-83396443D01*
X135677173Y-83659692D01*
X136020701Y-83802338D01*
X136067577Y-83802379D01*
X139003500Y-86738302D01*
X139003500Y-96029612D01*
X138689333Y-96029338D01*
X138345557Y-96171383D01*
X138082308Y-96434173D01*
X137939662Y-96777701D01*
X137939338Y-97149667D01*
X138081383Y-97493443D01*
X138344173Y-97756692D01*
X138687701Y-97899338D01*
X139059667Y-97899662D01*
X139403443Y-97757617D01*
X139470922Y-97690255D01*
X139589603Y-97666648D01*
X139836165Y-97501901D01*
X140272413Y-97065653D01*
X145908467Y-97065653D01*
X145908467Y-110219467D01*
X145966319Y-110510306D01*
X146131066Y-110756868D01*
X148116099Y-112741901D01*
X148362661Y-112906648D01*
X148653500Y-112964500D01*
X155532000Y-112964500D01*
X155574405Y-112956065D01*
X155525428Y-113074014D01*
X155525104Y-113445980D01*
X155667149Y-113789756D01*
X155929939Y-114053005D01*
X156273467Y-114195651D01*
X156330097Y-114195700D01*
X156340719Y-114221407D01*
X156603509Y-114484656D01*
X156886025Y-114601967D01*
X156945275Y-114745364D01*
X157208065Y-115008613D01*
X157551593Y-115151259D01*
X157631892Y-115151329D01*
X157633018Y-115154054D01*
X157895808Y-115417303D01*
X158239336Y-115559949D01*
X158611302Y-115560273D01*
X158833098Y-115468629D01*
X159102642Y-115580554D01*
X159474608Y-115580878D01*
X159561537Y-115544960D01*
X159616673Y-115600192D01*
X159960201Y-115742838D01*
X160332167Y-115743162D01*
X160556127Y-115650624D01*
X160569173Y-115663692D01*
X160912701Y-115806338D01*
X161284667Y-115806662D01*
X161628443Y-115664617D01*
X161639038Y-115654040D01*
X161648673Y-115663692D01*
X161992201Y-115806338D01*
X162364167Y-115806662D01*
X162707943Y-115664617D01*
X162971192Y-115401827D01*
X163113838Y-115058299D01*
X163113921Y-114962951D01*
X163181147Y-114862340D01*
X163238999Y-114571501D01*
X163238999Y-111561940D01*
X163272000Y-111561940D01*
X163401589Y-111537556D01*
X163522000Y-111561940D01*
X163922000Y-111561940D01*
X164051589Y-111537556D01*
X164172000Y-111561940D01*
X164572000Y-111561940D01*
X164701589Y-111537556D01*
X164822000Y-111561940D01*
X165222000Y-111561940D01*
X165457317Y-111517662D01*
X165673441Y-111378590D01*
X165818431Y-111166390D01*
X165869440Y-110914500D01*
X165869440Y-109714500D01*
X165825162Y-109479183D01*
X165782000Y-109412107D01*
X165782000Y-107436667D01*
X166641338Y-107436667D01*
X166783383Y-107780443D01*
X167046173Y-108043692D01*
X167388000Y-108185632D01*
X167388000Y-113039037D01*
X167355808Y-113071173D01*
X167213162Y-113414701D01*
X167212838Y-113786667D01*
X167354883Y-114130443D01*
X167617673Y-114393692D01*
X167961201Y-114536338D01*
X168333167Y-114536662D01*
X168676943Y-114394617D01*
X168940192Y-114131827D01*
X169082838Y-113788299D01*
X169082867Y-113753900D01*
X172796460Y-113753900D01*
X172796460Y-115989100D01*
X172840738Y-116224417D01*
X172979810Y-116440541D01*
X173192010Y-116585531D01*
X173443900Y-116636540D01*
X175679100Y-116636540D01*
X175914417Y-116592262D01*
X176130541Y-116453190D01*
X176275531Y-116240990D01*
X176326540Y-115989100D01*
X176326540Y-113753900D01*
X176321407Y-113726619D01*
X178993613Y-113726619D01*
X179333155Y-114548372D01*
X179961321Y-115177636D01*
X180782481Y-115518611D01*
X181671619Y-115519387D01*
X182493372Y-115179845D01*
X183122636Y-114551679D01*
X183463611Y-113730519D01*
X183464387Y-112841381D01*
X183124845Y-112019628D01*
X182496679Y-111390364D01*
X181675519Y-111049389D01*
X180786381Y-111048613D01*
X179964628Y-111388155D01*
X179335364Y-112016321D01*
X178994389Y-112837481D01*
X178993613Y-113726619D01*
X176321407Y-113726619D01*
X176282262Y-113518583D01*
X176143190Y-113302459D01*
X175930990Y-113157469D01*
X175679100Y-113106460D01*
X173443900Y-113106460D01*
X173208583Y-113150738D01*
X172992459Y-113289810D01*
X172847469Y-113502010D01*
X172796460Y-113753900D01*
X169082867Y-113753900D01*
X169083162Y-113416333D01*
X168941117Y-113072557D01*
X168908000Y-113039382D01*
X168908000Y-111246667D01*
X176356838Y-111246667D01*
X176498883Y-111590443D01*
X176761673Y-111853692D01*
X177105201Y-111996338D01*
X177477167Y-111996662D01*
X177820943Y-111854617D01*
X178084192Y-111591827D01*
X178226838Y-111248299D01*
X178226879Y-111201423D01*
X179416901Y-110011401D01*
X179581648Y-109764839D01*
X179639500Y-109474000D01*
X179639500Y-106299000D01*
X179608390Y-106142599D01*
X179581648Y-106008160D01*
X179416901Y-105761599D01*
X178989122Y-105333820D01*
X178989162Y-105288333D01*
X178847117Y-104944557D01*
X178584327Y-104681308D01*
X178240799Y-104538662D01*
X177868833Y-104538338D01*
X177525057Y-104680383D01*
X177261808Y-104943173D01*
X177119162Y-105286701D01*
X177118838Y-105658667D01*
X177260883Y-106002443D01*
X177303265Y-106044899D01*
X177198308Y-106149673D01*
X177055662Y-106493201D01*
X177055621Y-106540077D01*
X176945099Y-106650599D01*
X176780352Y-106897161D01*
X176722500Y-107188000D01*
X176722500Y-109165537D01*
X176690308Y-109197673D01*
X176547662Y-109541201D01*
X176547338Y-109913167D01*
X176689383Y-110256943D01*
X176731876Y-110299510D01*
X176499808Y-110531173D01*
X176357162Y-110874701D01*
X176356838Y-111246667D01*
X168908000Y-111246667D01*
X168908000Y-107823000D01*
X168866594Y-107614838D01*
X168850148Y-107532160D01*
X168685401Y-107285599D01*
X168511622Y-107111820D01*
X168511662Y-107066333D01*
X168369617Y-106722557D01*
X168106827Y-106459308D01*
X167763299Y-106316662D01*
X167391333Y-106316338D01*
X167047557Y-106458383D01*
X166784308Y-106721173D01*
X166641662Y-107064701D01*
X166641338Y-107436667D01*
X165782000Y-107436667D01*
X165782000Y-104013000D01*
X171417655Y-104013000D01*
X171531729Y-104586489D01*
X171856585Y-105072670D01*
X172171366Y-105283000D01*
X171856585Y-105493330D01*
X171531729Y-105979511D01*
X171417655Y-106553000D01*
X171531729Y-107126489D01*
X171856585Y-107612670D01*
X172342766Y-107937526D01*
X172916255Y-108051600D01*
X173285745Y-108051600D01*
X173859234Y-107937526D01*
X174345415Y-107612670D01*
X174670271Y-107126489D01*
X174784345Y-106553000D01*
X174670271Y-105979511D01*
X174345415Y-105493330D01*
X174030634Y-105283000D01*
X174345415Y-105072670D01*
X174670271Y-104586489D01*
X174784345Y-104013000D01*
X174676983Y-103473250D01*
X178460400Y-103473250D01*
X178460400Y-104177409D01*
X178557073Y-104410798D01*
X178735701Y-104589427D01*
X178969090Y-104686100D01*
X179673250Y-104686100D01*
X179832000Y-104527350D01*
X179832000Y-103314500D01*
X178619150Y-103314500D01*
X178460400Y-103473250D01*
X174676983Y-103473250D01*
X174670271Y-103439511D01*
X174345415Y-102953330D01*
X174323220Y-102938500D01*
X174476698Y-102874927D01*
X174655327Y-102696299D01*
X174752000Y-102462910D01*
X174752000Y-101758750D01*
X174593250Y-101600000D01*
X173228000Y-101600000D01*
X173228000Y-101620000D01*
X172974000Y-101620000D01*
X172974000Y-101600000D01*
X171608750Y-101600000D01*
X171450000Y-101758750D01*
X171450000Y-102462910D01*
X171546673Y-102696299D01*
X171725302Y-102874927D01*
X171878780Y-102938500D01*
X171856585Y-102953330D01*
X171531729Y-103439511D01*
X171417655Y-104013000D01*
X165782000Y-104013000D01*
X165782000Y-103446938D01*
X165828692Y-103400327D01*
X165971338Y-103056799D01*
X165971662Y-102684833D01*
X165829617Y-102341057D01*
X165566827Y-102077808D01*
X165223299Y-101935162D01*
X164851333Y-101934838D01*
X164811570Y-101951268D01*
X164765122Y-101904820D01*
X164765162Y-101859333D01*
X164623117Y-101515557D01*
X164360327Y-101252308D01*
X164016799Y-101109662D01*
X163644833Y-101109338D01*
X163301057Y-101251383D01*
X163037808Y-101514173D01*
X162895162Y-101857701D01*
X162895005Y-102038392D01*
X162814101Y-102119154D01*
X162772827Y-102077808D01*
X162429299Y-101935162D01*
X162057333Y-101934838D01*
X161713557Y-102076883D01*
X161450308Y-102339673D01*
X161307662Y-102683201D01*
X161307338Y-103055167D01*
X161449383Y-103398943D01*
X161712173Y-103662192D01*
X162055701Y-103804838D01*
X162102577Y-103804879D01*
X162312000Y-104014302D01*
X162312000Y-109067060D01*
X162222000Y-109067060D01*
X162092411Y-109091444D01*
X161972000Y-109067060D01*
X161572000Y-109067060D01*
X161442411Y-109091444D01*
X161322000Y-109067060D01*
X160922000Y-109067060D01*
X160816295Y-109086950D01*
X160798310Y-109079500D01*
X160730750Y-109079500D01*
X160701746Y-109108504D01*
X160686683Y-109111338D01*
X160470559Y-109250410D01*
X160469610Y-109251799D01*
X160273890Y-109118069D01*
X160246215Y-109112465D01*
X160213250Y-109079500D01*
X160145690Y-109079500D01*
X160125247Y-109087968D01*
X160022000Y-109067060D01*
X159622000Y-109067060D01*
X159492411Y-109091444D01*
X159372000Y-109067060D01*
X158972000Y-109067060D01*
X158842411Y-109091444D01*
X158722000Y-109067060D01*
X158322000Y-109067060D01*
X158192411Y-109091444D01*
X158072000Y-109067060D01*
X157672000Y-109067060D01*
X157542411Y-109091444D01*
X157422000Y-109067060D01*
X157022000Y-109067060D01*
X156892411Y-109091444D01*
X156772000Y-109067060D01*
X156552920Y-109067060D01*
X156459401Y-108927099D01*
X156087901Y-108555599D01*
X155841339Y-108390852D01*
X155550500Y-108333000D01*
X149666802Y-108333000D01*
X148328489Y-106994687D01*
X148328489Y-104038579D01*
X148530201Y-104122338D01*
X148902167Y-104122662D01*
X149245943Y-103980617D01*
X149509192Y-103717827D01*
X149651838Y-103374299D01*
X149652162Y-103002333D01*
X149510117Y-102658557D01*
X149247327Y-102395308D01*
X148975216Y-102282317D01*
X149292055Y-102151402D01*
X149555304Y-101888612D01*
X149697950Y-101545084D01*
X149697991Y-101498208D01*
X150841901Y-100354298D01*
X151006648Y-100107736D01*
X151064500Y-99816897D01*
X151064500Y-97022667D01*
X152861838Y-97022667D01*
X153003883Y-97366443D01*
X153266673Y-97629692D01*
X153610201Y-97772338D01*
X153657077Y-97772379D01*
X153661600Y-97776902D01*
X153908161Y-97941649D01*
X154199001Y-97999501D01*
X155617499Y-97999501D01*
X155713217Y-97980461D01*
X155870173Y-98137692D01*
X156213701Y-98280338D01*
X156585667Y-98280662D01*
X156929443Y-98138617D01*
X157192692Y-97875827D01*
X157323030Y-97561940D01*
X157422000Y-97561940D01*
X157551589Y-97537556D01*
X157672000Y-97561940D01*
X158072000Y-97561940D01*
X158201589Y-97537556D01*
X158322000Y-97561940D01*
X158366663Y-97561940D01*
X158323162Y-97666701D01*
X158322838Y-98038667D01*
X158464883Y-98382443D01*
X158727673Y-98645692D01*
X159071201Y-98788338D01*
X159443167Y-98788662D01*
X159786943Y-98646617D01*
X160050192Y-98383827D01*
X160192838Y-98040299D01*
X160192879Y-97993423D01*
X160359401Y-97826901D01*
X160524148Y-97580340D01*
X160527808Y-97561940D01*
X160672000Y-97561940D01*
X160801589Y-97537556D01*
X160922000Y-97561940D01*
X161322000Y-97561940D01*
X161451589Y-97537556D01*
X161572000Y-97561940D01*
X161972000Y-97561940D01*
X162101589Y-97537556D01*
X162189553Y-97555369D01*
X162158057Y-97568383D01*
X161894808Y-97831173D01*
X161752162Y-98174701D01*
X161751838Y-98546667D01*
X161893883Y-98890443D01*
X162156673Y-99153692D01*
X162483897Y-99289568D01*
X162528883Y-99398443D01*
X162791673Y-99661692D01*
X163135201Y-99804338D01*
X163366249Y-99804539D01*
X163387280Y-99855438D01*
X163650070Y-100118687D01*
X163656904Y-100121525D01*
X163656838Y-100197667D01*
X163798883Y-100541443D01*
X164061673Y-100804692D01*
X164405201Y-100947338D01*
X164777167Y-100947662D01*
X165120943Y-100805617D01*
X165384192Y-100542827D01*
X165408997Y-100483090D01*
X171450000Y-100483090D01*
X171450000Y-101187250D01*
X171608750Y-101346000D01*
X172974000Y-101346000D01*
X172974000Y-100133150D01*
X173228000Y-100133150D01*
X173228000Y-101346000D01*
X174593250Y-101346000D01*
X174752000Y-101187250D01*
X174752000Y-100483090D01*
X174655327Y-100249701D01*
X174476698Y-100071073D01*
X174243309Y-99974400D01*
X173386750Y-99974400D01*
X173228000Y-100133150D01*
X172974000Y-100133150D01*
X172815250Y-99974400D01*
X171958691Y-99974400D01*
X171725302Y-100071073D01*
X171546673Y-100249701D01*
X171450000Y-100483090D01*
X165408997Y-100483090D01*
X165526838Y-100199299D01*
X165526879Y-100152423D01*
X165559401Y-100119901D01*
X165724148Y-99873339D01*
X165782000Y-99582500D01*
X165782000Y-97219709D01*
X165818431Y-97166390D01*
X165869440Y-96914500D01*
X165869440Y-95714500D01*
X165825162Y-95479183D01*
X165686090Y-95263059D01*
X165473890Y-95118069D01*
X165222000Y-95067060D01*
X164822000Y-95067060D01*
X164692411Y-95091444D01*
X164572000Y-95067060D01*
X164172000Y-95067060D01*
X164042411Y-95091444D01*
X163922000Y-95067060D01*
X163522000Y-95067060D01*
X163392411Y-95091444D01*
X163272000Y-95067060D01*
X163182000Y-95067060D01*
X163182000Y-93270500D01*
X163127824Y-92998141D01*
X178460400Y-92998141D01*
X178460400Y-93056859D01*
X178574474Y-93630348D01*
X178899330Y-94116529D01*
X179170172Y-94297500D01*
X178899330Y-94478471D01*
X178574474Y-94964652D01*
X178460400Y-95538141D01*
X178460400Y-95596859D01*
X178574474Y-96170348D01*
X178899330Y-96656529D01*
X179170172Y-96837500D01*
X178899330Y-97018471D01*
X178574474Y-97504652D01*
X178460400Y-98078141D01*
X178460400Y-98136859D01*
X178574474Y-98710348D01*
X178899330Y-99196529D01*
X179170172Y-99377500D01*
X178899330Y-99558471D01*
X178574474Y-100044652D01*
X178460400Y-100618141D01*
X178460400Y-100676859D01*
X178574474Y-101250348D01*
X178889526Y-101721856D01*
X178735701Y-101785573D01*
X178557073Y-101964202D01*
X178460400Y-102197591D01*
X178460400Y-102901750D01*
X178619150Y-103060500D01*
X179832000Y-103060500D01*
X179832000Y-103040500D01*
X180086000Y-103040500D01*
X180086000Y-103060500D01*
X180106000Y-103060500D01*
X180106000Y-103314500D01*
X180086000Y-103314500D01*
X180086000Y-104527350D01*
X180244750Y-104686100D01*
X180948910Y-104686100D01*
X181182299Y-104589427D01*
X181360927Y-104410798D01*
X181425263Y-104255477D01*
X181439330Y-104276529D01*
X181925511Y-104601385D01*
X182499000Y-104715459D01*
X183072489Y-104601385D01*
X183558670Y-104276529D01*
X183883526Y-103790348D01*
X183997600Y-103216859D01*
X183997600Y-103158141D01*
X183883526Y-102584652D01*
X183558670Y-102098471D01*
X183287828Y-101917500D01*
X183558670Y-101736529D01*
X183883526Y-101250348D01*
X183997600Y-100676859D01*
X183997600Y-100618141D01*
X183883526Y-100044652D01*
X183558670Y-99558471D01*
X183287828Y-99377500D01*
X183558670Y-99196529D01*
X183883526Y-98710348D01*
X183997600Y-98136859D01*
X183997600Y-98078141D01*
X183883526Y-97504652D01*
X183558670Y-97018471D01*
X183287828Y-96837500D01*
X183558670Y-96656529D01*
X183883526Y-96170348D01*
X183997600Y-95596859D01*
X183997600Y-95538141D01*
X183883526Y-94964652D01*
X183558670Y-94478471D01*
X183287828Y-94297500D01*
X183558670Y-94116529D01*
X183883526Y-93630348D01*
X183997600Y-93056859D01*
X183997600Y-92998141D01*
X183883526Y-92424652D01*
X183558670Y-91938471D01*
X183072489Y-91613615D01*
X182499000Y-91499541D01*
X181925511Y-91613615D01*
X181439330Y-91938471D01*
X181229000Y-92253252D01*
X181018670Y-91938471D01*
X180532489Y-91613615D01*
X179959000Y-91499541D01*
X179385511Y-91613615D01*
X178899330Y-91938471D01*
X178574474Y-92424652D01*
X178460400Y-92998141D01*
X163127824Y-92998141D01*
X163124148Y-92979661D01*
X162959401Y-92733099D01*
X162860122Y-92633820D01*
X162860162Y-92588333D01*
X162718117Y-92244557D01*
X162455327Y-91981308D01*
X162111799Y-91838662D01*
X161739833Y-91838338D01*
X161396057Y-91980383D01*
X161303408Y-92072870D01*
X160608731Y-91378193D01*
X160637338Y-91309299D01*
X160637662Y-90937333D01*
X160495617Y-90593557D01*
X160232827Y-90330308D01*
X159889299Y-90187662D01*
X159517333Y-90187338D01*
X159173557Y-90329383D01*
X159065787Y-90436965D01*
X158986622Y-90357800D01*
X158986662Y-90312313D01*
X158844617Y-89968537D01*
X158734528Y-89858255D01*
X165252400Y-89858255D01*
X165252400Y-90227745D01*
X165366474Y-90801234D01*
X165691330Y-91287415D01*
X166177511Y-91612271D01*
X166751000Y-91726345D01*
X167324489Y-91612271D01*
X167810670Y-91287415D01*
X168021000Y-90972634D01*
X168231330Y-91287415D01*
X168717511Y-91612271D01*
X169291000Y-91726345D01*
X169864489Y-91612271D01*
X170350670Y-91287415D01*
X170365500Y-91265220D01*
X170429073Y-91418698D01*
X170607701Y-91597327D01*
X170841090Y-91694000D01*
X171545250Y-91694000D01*
X171704000Y-91535250D01*
X171704000Y-90170000D01*
X171958000Y-90170000D01*
X171958000Y-91535250D01*
X172116750Y-91694000D01*
X172820910Y-91694000D01*
X173054299Y-91597327D01*
X173232927Y-91418698D01*
X173329600Y-91185309D01*
X173329600Y-90328750D01*
X173170850Y-90170000D01*
X171958000Y-90170000D01*
X171704000Y-90170000D01*
X171684000Y-90170000D01*
X171684000Y-89916000D01*
X171704000Y-89916000D01*
X171704000Y-88550750D01*
X171958000Y-88550750D01*
X171958000Y-89916000D01*
X173170850Y-89916000D01*
X173329600Y-89757250D01*
X173329600Y-88900691D01*
X173232927Y-88667302D01*
X173054299Y-88488673D01*
X172820910Y-88392000D01*
X172116750Y-88392000D01*
X171958000Y-88550750D01*
X171704000Y-88550750D01*
X171545250Y-88392000D01*
X170841090Y-88392000D01*
X170607701Y-88488673D01*
X170429073Y-88667302D01*
X170365500Y-88820780D01*
X170350670Y-88798585D01*
X169864489Y-88473729D01*
X169291000Y-88359655D01*
X168717511Y-88473729D01*
X168231330Y-88798585D01*
X168021000Y-89113366D01*
X167810670Y-88798585D01*
X167324489Y-88473729D01*
X166751000Y-88359655D01*
X166177511Y-88473729D01*
X165691330Y-88798585D01*
X165366474Y-89284766D01*
X165252400Y-89858255D01*
X158734528Y-89858255D01*
X158581827Y-89705288D01*
X158238299Y-89562642D01*
X157866333Y-89562318D01*
X157522557Y-89704363D01*
X157259308Y-89967153D01*
X157116662Y-90310681D01*
X157116338Y-90682647D01*
X157258383Y-91026423D01*
X157521173Y-91289672D01*
X157864701Y-91432318D01*
X157911577Y-91432359D01*
X158412000Y-91932782D01*
X158412000Y-92645088D01*
X158409401Y-92641198D01*
X157673511Y-91905308D01*
X157673551Y-91859821D01*
X157531506Y-91516045D01*
X157268716Y-91252796D01*
X156925188Y-91110150D01*
X156553222Y-91109826D01*
X156209446Y-91251871D01*
X156171989Y-91289263D01*
X156142799Y-91277142D01*
X155770833Y-91276818D01*
X155427057Y-91418863D01*
X155163808Y-91681653D01*
X155021162Y-92025181D01*
X155020838Y-92397147D01*
X155162883Y-92740923D01*
X155425673Y-93004172D01*
X155769201Y-93146818D01*
X155816077Y-93146859D01*
X156462000Y-93792782D01*
X156462000Y-95067060D01*
X156372000Y-95067060D01*
X156242411Y-95091444D01*
X156122000Y-95067060D01*
X156032000Y-95067060D01*
X156032000Y-94566000D01*
X155974148Y-94275161D01*
X155974148Y-94275160D01*
X155809401Y-94028599D01*
X155367122Y-93586320D01*
X155367162Y-93540833D01*
X155225117Y-93197057D01*
X154962327Y-92933808D01*
X154618799Y-92791162D01*
X154246833Y-92790838D01*
X153903057Y-92932883D01*
X153639808Y-93195673D01*
X153497162Y-93539201D01*
X153496838Y-93911167D01*
X153638883Y-94254943D01*
X153901673Y-94518192D01*
X154245201Y-94660838D01*
X154292077Y-94660879D01*
X154512000Y-94880802D01*
X154512000Y-95409291D01*
X154475569Y-95462610D01*
X154424560Y-95714500D01*
X154424560Y-96142711D01*
X154327327Y-96045308D01*
X153983799Y-95902662D01*
X153611833Y-95902338D01*
X153268057Y-96044383D01*
X153004808Y-96307173D01*
X152862162Y-96650701D01*
X152861838Y-97022667D01*
X151064500Y-97022667D01*
X151064500Y-95929483D01*
X151096692Y-95897347D01*
X151239338Y-95553819D01*
X151239662Y-95181853D01*
X151097617Y-94838077D01*
X150834827Y-94574828D01*
X150491299Y-94432182D01*
X150119333Y-94431858D01*
X149775557Y-94573903D01*
X149728111Y-94621266D01*
X149628327Y-94521308D01*
X149284799Y-94378662D01*
X148912833Y-94378338D01*
X148569057Y-94520383D01*
X148305808Y-94783173D01*
X148163162Y-95126701D01*
X148162838Y-95498667D01*
X148304883Y-95842443D01*
X148372245Y-95909922D01*
X148382971Y-95963846D01*
X148188057Y-96044383D01*
X147948529Y-96283494D01*
X147934485Y-96283481D01*
X147870257Y-96128037D01*
X147607467Y-95864788D01*
X147263939Y-95722142D01*
X146891973Y-95721818D01*
X146548197Y-95863863D01*
X146284948Y-96126653D01*
X146142302Y-96470181D01*
X146142261Y-96517057D01*
X146131066Y-96528252D01*
X145966319Y-96774814D01*
X145908467Y-97065653D01*
X140272413Y-97065653D01*
X140300901Y-97037165D01*
X140465648Y-96790603D01*
X140523500Y-96499764D01*
X140523500Y-86423500D01*
X140465648Y-86132661D01*
X140465648Y-86132660D01*
X140300901Y-85886099D01*
X137142622Y-82727820D01*
X137142662Y-82682333D01*
X137000617Y-82338557D01*
X136737827Y-82075308D01*
X136403577Y-81936515D01*
X136759170Y-81698915D01*
X136768743Y-81684587D01*
X136772738Y-81705817D01*
X136911810Y-81921941D01*
X137124010Y-82066931D01*
X137375900Y-82117940D01*
X139103100Y-82117940D01*
X139338417Y-82073662D01*
X139554541Y-81934590D01*
X139699531Y-81722390D01*
X139750540Y-81470500D01*
X139750540Y-81343500D01*
X144712541Y-81343500D01*
X144826615Y-81916989D01*
X145151471Y-82403170D01*
X145466252Y-82613500D01*
X145151471Y-82823830D01*
X144826615Y-83310011D01*
X144712541Y-83883500D01*
X144826615Y-84456989D01*
X145151471Y-84943170D01*
X145637652Y-85268026D01*
X146211141Y-85382100D01*
X146269859Y-85382100D01*
X146843348Y-85268026D01*
X147329529Y-84943170D01*
X147510500Y-84672328D01*
X147691471Y-84943170D01*
X148177652Y-85268026D01*
X148751141Y-85382100D01*
X148809859Y-85382100D01*
X149383348Y-85268026D01*
X149869529Y-84943170D01*
X150050500Y-84672328D01*
X150231471Y-84943170D01*
X150717652Y-85268026D01*
X151291141Y-85382100D01*
X151349859Y-85382100D01*
X151923348Y-85268026D01*
X152409529Y-84943170D01*
X152590500Y-84672328D01*
X152771471Y-84943170D01*
X153257652Y-85268026D01*
X153831141Y-85382100D01*
X153889859Y-85382100D01*
X154463348Y-85268026D01*
X154934856Y-84952974D01*
X154998573Y-85106799D01*
X155177202Y-85285427D01*
X155410591Y-85382100D01*
X156114750Y-85382100D01*
X156273500Y-85223350D01*
X156273500Y-84010500D01*
X156527500Y-84010500D01*
X156527500Y-85223350D01*
X156686250Y-85382100D01*
X157390409Y-85382100D01*
X157623798Y-85285427D01*
X157802427Y-85106799D01*
X157899100Y-84873410D01*
X157899100Y-84169250D01*
X157740350Y-84010500D01*
X156527500Y-84010500D01*
X156273500Y-84010500D01*
X156253500Y-84010500D01*
X156253500Y-83756500D01*
X156273500Y-83756500D01*
X156273500Y-83736500D01*
X156527500Y-83736500D01*
X156527500Y-83756500D01*
X157740350Y-83756500D01*
X157803850Y-83693000D01*
X165985041Y-83693000D01*
X166099115Y-84266489D01*
X166423971Y-84752670D01*
X166910152Y-85077526D01*
X167483641Y-85191600D01*
X167542359Y-85191600D01*
X168115848Y-85077526D01*
X168602029Y-84752670D01*
X168783000Y-84481828D01*
X168963971Y-84752670D01*
X169450152Y-85077526D01*
X170023641Y-85191600D01*
X170082359Y-85191600D01*
X170655848Y-85077526D01*
X171142029Y-84752670D01*
X171323000Y-84481828D01*
X171503971Y-84752670D01*
X171990152Y-85077526D01*
X172563641Y-85191600D01*
X172622359Y-85191600D01*
X173195848Y-85077526D01*
X173682029Y-84752670D01*
X173863000Y-84481828D01*
X174043971Y-84752670D01*
X174530152Y-85077526D01*
X175103641Y-85191600D01*
X175162359Y-85191600D01*
X175735848Y-85077526D01*
X176222029Y-84752670D01*
X176403000Y-84481828D01*
X176583971Y-84752670D01*
X177070152Y-85077526D01*
X177643641Y-85191600D01*
X177702359Y-85191600D01*
X178275848Y-85077526D01*
X178762029Y-84752670D01*
X179086885Y-84266489D01*
X179200959Y-83693000D01*
X179086885Y-83119511D01*
X178762029Y-82633330D01*
X178447248Y-82423000D01*
X178762029Y-82212670D01*
X179086885Y-81726489D01*
X179200959Y-81153000D01*
X179086885Y-80579511D01*
X178762029Y-80093330D01*
X178275848Y-79768474D01*
X177702359Y-79654400D01*
X177643641Y-79654400D01*
X177070152Y-79768474D01*
X176583971Y-80093330D01*
X176403000Y-80364172D01*
X176222029Y-80093330D01*
X175735848Y-79768474D01*
X175162359Y-79654400D01*
X175103641Y-79654400D01*
X174530152Y-79768474D01*
X174043971Y-80093330D01*
X173863000Y-80364172D01*
X173682029Y-80093330D01*
X173195848Y-79768474D01*
X172622359Y-79654400D01*
X172563641Y-79654400D01*
X171990152Y-79768474D01*
X171503971Y-80093330D01*
X171323000Y-80364172D01*
X171142029Y-80093330D01*
X170655848Y-79768474D01*
X170082359Y-79654400D01*
X170023641Y-79654400D01*
X169450152Y-79768474D01*
X168978644Y-80083526D01*
X168914927Y-79929701D01*
X168736298Y-79751073D01*
X168502909Y-79654400D01*
X167798750Y-79654400D01*
X167640000Y-79813150D01*
X167640000Y-81026000D01*
X167660000Y-81026000D01*
X167660000Y-81280000D01*
X167640000Y-81280000D01*
X167640000Y-81300000D01*
X167386000Y-81300000D01*
X167386000Y-81280000D01*
X166173150Y-81280000D01*
X166014400Y-81438750D01*
X166014400Y-82142910D01*
X166111073Y-82376299D01*
X166289702Y-82554927D01*
X166445023Y-82619263D01*
X166423971Y-82633330D01*
X166099115Y-83119511D01*
X165985041Y-83693000D01*
X157803850Y-83693000D01*
X157899100Y-83597750D01*
X157899100Y-82893590D01*
X157802427Y-82660201D01*
X157623798Y-82481573D01*
X157468477Y-82417237D01*
X157489529Y-82403170D01*
X157814385Y-81916989D01*
X157928459Y-81343500D01*
X157814385Y-80770011D01*
X157489529Y-80283830D01*
X157308829Y-80163090D01*
X166014400Y-80163090D01*
X166014400Y-80867250D01*
X166173150Y-81026000D01*
X167386000Y-81026000D01*
X167386000Y-79813150D01*
X167227250Y-79654400D01*
X166523091Y-79654400D01*
X166289702Y-79751073D01*
X166111073Y-79929701D01*
X166014400Y-80163090D01*
X157308829Y-80163090D01*
X157003348Y-79958974D01*
X156429859Y-79844900D01*
X156371141Y-79844900D01*
X155797652Y-79958974D01*
X155311471Y-80283830D01*
X155130500Y-80554672D01*
X154949529Y-80283830D01*
X154463348Y-79958974D01*
X153889859Y-79844900D01*
X153831141Y-79844900D01*
X153257652Y-79958974D01*
X152771471Y-80283830D01*
X152590500Y-80554672D01*
X152409529Y-80283830D01*
X151923348Y-79958974D01*
X151349859Y-79844900D01*
X151291141Y-79844900D01*
X150717652Y-79958974D01*
X150231471Y-80283830D01*
X150050500Y-80554672D01*
X149869529Y-80283830D01*
X149383348Y-79958974D01*
X148809859Y-79844900D01*
X148751141Y-79844900D01*
X148177652Y-79958974D01*
X147691471Y-80283830D01*
X147510500Y-80554672D01*
X147329529Y-80283830D01*
X146843348Y-79958974D01*
X146269859Y-79844900D01*
X146211141Y-79844900D01*
X145637652Y-79958974D01*
X145151471Y-80283830D01*
X144826615Y-80770011D01*
X144712541Y-81343500D01*
X139750540Y-81343500D01*
X139750540Y-79438500D01*
X139706262Y-79203183D01*
X139567190Y-78987059D01*
X139354990Y-78842069D01*
X139103100Y-78791060D01*
X137375900Y-78791060D01*
X137140583Y-78835338D01*
X136924459Y-78974410D01*
X136779469Y-79186610D01*
X136771100Y-79227939D01*
X136759170Y-79210085D01*
X136272989Y-78885229D01*
X135699500Y-78771155D01*
X135126011Y-78885229D01*
X134639830Y-79210085D01*
X134433039Y-79519569D01*
X134061536Y-79103768D01*
X133534291Y-78849791D01*
X133518526Y-78847142D01*
X133286500Y-78968283D01*
X133032500Y-78968283D01*
X132800474Y-78847142D01*
X132784709Y-78849791D01*
X132257464Y-79103768D01*
X131867546Y-79540180D01*
X131674316Y-80092587D01*
X130416040Y-80092587D01*
X130416040Y-79336900D01*
X130371762Y-79101583D01*
X130232690Y-78885459D01*
X130020490Y-78740469D01*
X129768600Y-78689460D01*
X127533400Y-78689460D01*
X127298083Y-78733738D01*
X127081959Y-78872810D01*
X126936969Y-79085010D01*
X126885960Y-79336900D01*
X126352040Y-79336900D01*
X126307762Y-79101583D01*
X126168690Y-78885459D01*
X125956490Y-78740469D01*
X125704600Y-78689460D01*
X123469400Y-78689460D01*
X123234083Y-78733738D01*
X123017959Y-78872810D01*
X122872969Y-79085010D01*
X122821960Y-79336900D01*
X97205000Y-79336900D01*
X97205000Y-78155000D01*
X185370000Y-78155000D01*
X185370000Y-126823000D01*
X185370000Y-126823000D01*
G37*
X185370000Y-126823000D02*
X97205000Y-126823000D01*
X97205000Y-123886619D01*
X109588113Y-123886619D01*
X109927655Y-124708372D01*
X110555821Y-125337636D01*
X111376981Y-125678611D01*
X112266119Y-125679387D01*
X113087872Y-125339845D01*
X113717136Y-124711679D01*
X113821642Y-124460000D01*
X120328541Y-124460000D01*
X120442615Y-125033489D01*
X120767471Y-125519670D01*
X121253652Y-125844526D01*
X121827141Y-125958600D01*
X121885859Y-125958600D01*
X122459348Y-125844526D01*
X122945529Y-125519670D01*
X123126500Y-125248828D01*
X123307471Y-125519670D01*
X123793652Y-125844526D01*
X124367141Y-125958600D01*
X124425859Y-125958600D01*
X124999348Y-125844526D01*
X125485529Y-125519670D01*
X125666500Y-125248828D01*
X125847471Y-125519670D01*
X126333652Y-125844526D01*
X126907141Y-125958600D01*
X126965859Y-125958600D01*
X127539348Y-125844526D01*
X128025529Y-125519670D01*
X128206500Y-125248828D01*
X128387471Y-125519670D01*
X128873652Y-125844526D01*
X129447141Y-125958600D01*
X129505859Y-125958600D01*
X130079348Y-125844526D01*
X130565529Y-125519670D01*
X130746500Y-125248828D01*
X130927471Y-125519670D01*
X131413652Y-125844526D01*
X131987141Y-125958600D01*
X132045859Y-125958600D01*
X132619348Y-125844526D01*
X133105529Y-125519670D01*
X133430385Y-125033489D01*
X133544459Y-124460000D01*
X141410541Y-124460000D01*
X141524615Y-125033489D01*
X141849471Y-125519670D01*
X142335652Y-125844526D01*
X142909141Y-125958600D01*
X142967859Y-125958600D01*
X143541348Y-125844526D01*
X144027529Y-125519670D01*
X144208500Y-125248828D01*
X144389471Y-125519670D01*
X144875652Y-125844526D01*
X145449141Y-125958600D01*
X145507859Y-125958600D01*
X146081348Y-125844526D01*
X146567529Y-125519670D01*
X146748500Y-125248828D01*
X146929471Y-125519670D01*
X147415652Y-125844526D01*
X147989141Y-125958600D01*
X148047859Y-125958600D01*
X148621348Y-125844526D01*
X149107529Y-125519670D01*
X149288500Y-125248828D01*
X149469471Y-125519670D01*
X149955652Y-125844526D01*
X150529141Y-125958600D01*
X150587859Y-125958600D01*
X151161348Y-125844526D01*
X151647529Y-125519670D01*
X151828500Y-125248828D01*
X152009471Y-125519670D01*
X152495652Y-125844526D01*
X153069141Y-125958600D01*
X153127859Y-125958600D01*
X153701348Y-125844526D01*
X154187529Y-125519670D01*
X154512385Y-125033489D01*
X154626459Y-124460000D01*
X162556041Y-124460000D01*
X162670115Y-125033489D01*
X162994971Y-125519670D01*
X163481152Y-125844526D01*
X164054641Y-125958600D01*
X164113359Y-125958600D01*
X164686848Y-125844526D01*
X165173029Y-125519670D01*
X165354000Y-125248828D01*
X165534971Y-125519670D01*
X166021152Y-125844526D01*
X166594641Y-125958600D01*
X166653359Y-125958600D01*
X167226848Y-125844526D01*
X167713029Y-125519670D01*
X167894000Y-125248828D01*
X168074971Y-125519670D01*
X168561152Y-125844526D01*
X169134641Y-125958600D01*
X169193359Y-125958600D01*
X169766848Y-125844526D01*
X170253029Y-125519670D01*
X170434000Y-125248828D01*
X170614971Y-125519670D01*
X171101152Y-125844526D01*
X171674641Y-125958600D01*
X171733359Y-125958600D01*
X172306848Y-125844526D01*
X172793029Y-125519670D01*
X172974000Y-125248828D01*
X173154971Y-125519670D01*
X173641152Y-125844526D01*
X174214641Y-125958600D01*
X174273359Y-125958600D01*
X174846848Y-125844526D01*
X175333029Y-125519670D01*
X175657885Y-125033489D01*
X175765643Y-124491750D01*
X181102000Y-124491750D01*
X181102000Y-125195910D01*
X181198673Y-125429299D01*
X181377302Y-125607927D01*
X181610691Y-125704600D01*
X182467250Y-125704600D01*
X182626000Y-125545850D01*
X182626000Y-124333000D01*
X182880000Y-124333000D01*
X182880000Y-125545850D01*
X183038750Y-125704600D01*
X183895309Y-125704600D01*
X184128698Y-125607927D01*
X184307327Y-125429299D01*
X184404000Y-125195910D01*
X184404000Y-124491750D01*
X184245250Y-124333000D01*
X182880000Y-124333000D01*
X182626000Y-124333000D01*
X181260750Y-124333000D01*
X181102000Y-124491750D01*
X175765643Y-124491750D01*
X175771959Y-124460000D01*
X175657885Y-123886511D01*
X175333029Y-123400330D01*
X175018248Y-123190000D01*
X175333029Y-122979670D01*
X175657885Y-122493489D01*
X175771959Y-121920000D01*
X175657885Y-121346511D01*
X175333029Y-120860330D01*
X174846848Y-120535474D01*
X174273359Y-120421400D01*
X174214641Y-120421400D01*
X173641152Y-120535474D01*
X173154971Y-120860330D01*
X172974000Y-121131172D01*
X172793029Y-120860330D01*
X172306848Y-120535474D01*
X171733359Y-120421400D01*
X171674641Y-120421400D01*
X171101152Y-120535474D01*
X170614971Y-120860330D01*
X170434000Y-121131172D01*
X170253029Y-120860330D01*
X169766848Y-120535474D01*
X169193359Y-120421400D01*
X169134641Y-120421400D01*
X168561152Y-120535474D01*
X168074971Y-120860330D01*
X167894000Y-121131172D01*
X167713029Y-120860330D01*
X167226848Y-120535474D01*
X166653359Y-120421400D01*
X166594641Y-120421400D01*
X166021152Y-120535474D01*
X165549644Y-120850526D01*
X165485927Y-120696701D01*
X165307298Y-120518073D01*
X165073909Y-120421400D01*
X164369750Y-120421400D01*
X164211000Y-120580150D01*
X164211000Y-121793000D01*
X164231000Y-121793000D01*
X164231000Y-122047000D01*
X164211000Y-122047000D01*
X164211000Y-122067000D01*
X163957000Y-122067000D01*
X163957000Y-122047000D01*
X162744150Y-122047000D01*
X162585400Y-122205750D01*
X162585400Y-122909910D01*
X162682073Y-123143299D01*
X162860702Y-123321927D01*
X163016023Y-123386263D01*
X162994971Y-123400330D01*
X162670115Y-123886511D01*
X162556041Y-124460000D01*
X154626459Y-124460000D01*
X154512385Y-123886511D01*
X154187529Y-123400330D01*
X153872748Y-123190000D01*
X154187529Y-122979670D01*
X154512385Y-122493489D01*
X154626459Y-121920000D01*
X154512385Y-121346511D01*
X154234142Y-120930090D01*
X162585400Y-120930090D01*
X162585400Y-121634250D01*
X162744150Y-121793000D01*
X163957000Y-121793000D01*
X163957000Y-120580150D01*
X163798250Y-120421400D01*
X163094091Y-120421400D01*
X162860702Y-120518073D01*
X162682073Y-120696701D01*
X162585400Y-120930090D01*
X154234142Y-120930090D01*
X154187529Y-120860330D01*
X153701348Y-120535474D01*
X153127859Y-120421400D01*
X153069141Y-120421400D01*
X152495652Y-120535474D01*
X152009471Y-120860330D01*
X151828500Y-121131172D01*
X151647529Y-120860330D01*
X151161348Y-120535474D01*
X150587859Y-120421400D01*
X150529141Y-120421400D01*
X149955652Y-120535474D01*
X149469471Y-120860330D01*
X149288500Y-121131172D01*
X149107529Y-120860330D01*
X148621348Y-120535474D01*
X148047859Y-120421400D01*
X147989141Y-120421400D01*
X147415652Y-120535474D01*
X146929471Y-120860330D01*
X146748500Y-121131172D01*
X146567529Y-120860330D01*
X146081348Y-120535474D01*
X145507859Y-120421400D01*
X145449141Y-120421400D01*
X144875652Y-120535474D01*
X144404144Y-120850526D01*
X144340427Y-120696701D01*
X144161798Y-120518073D01*
X143928409Y-120421400D01*
X143224250Y-120421400D01*
X143065500Y-120580150D01*
X143065500Y-121793000D01*
X143085500Y-121793000D01*
X143085500Y-122047000D01*
X143065500Y-122047000D01*
X143065500Y-122067000D01*
X142811500Y-122067000D01*
X142811500Y-122047000D01*
X141598650Y-122047000D01*
X141439900Y-122205750D01*
X141439900Y-122909910D01*
X141536573Y-123143299D01*
X141715202Y-123321927D01*
X141870523Y-123386263D01*
X141849471Y-123400330D01*
X141524615Y-123886511D01*
X141410541Y-124460000D01*
X133544459Y-124460000D01*
X133430385Y-123886511D01*
X133105529Y-123400330D01*
X132790748Y-123190000D01*
X133105529Y-122979670D01*
X133430385Y-122493489D01*
X133544459Y-121920000D01*
X133430385Y-121346511D01*
X133152142Y-120930090D01*
X141439900Y-120930090D01*
X141439900Y-121634250D01*
X141598650Y-121793000D01*
X142811500Y-121793000D01*
X142811500Y-120580150D01*
X142652750Y-120421400D01*
X141948591Y-120421400D01*
X141715202Y-120518073D01*
X141536573Y-120696701D01*
X141439900Y-120930090D01*
X133152142Y-120930090D01*
X133105529Y-120860330D01*
X132619348Y-120535474D01*
X132045859Y-120421400D01*
X131987141Y-120421400D01*
X131413652Y-120535474D01*
X130927471Y-120860330D01*
X130746500Y-121131172D01*
X130565529Y-120860330D01*
X130079348Y-120535474D01*
X129505859Y-120421400D01*
X129447141Y-120421400D01*
X128873652Y-120535474D01*
X128387471Y-120860330D01*
X128206500Y-121131172D01*
X128025529Y-120860330D01*
X127539348Y-120535474D01*
X126965859Y-120421400D01*
X126907141Y-120421400D01*
X126333652Y-120535474D01*
X125847471Y-120860330D01*
X125666500Y-121131172D01*
X125485529Y-120860330D01*
X124999348Y-120535474D01*
X124425859Y-120421400D01*
X124367141Y-120421400D01*
X123793652Y-120535474D01*
X123322144Y-120850526D01*
X123258427Y-120696701D01*
X123079798Y-120518073D01*
X122846409Y-120421400D01*
X122142250Y-120421400D01*
X121983500Y-120580150D01*
X121983500Y-121793000D01*
X122003500Y-121793000D01*
X122003500Y-122047000D01*
X121983500Y-122047000D01*
X121983500Y-122067000D01*
X121729500Y-122067000D01*
X121729500Y-122047000D01*
X120516650Y-122047000D01*
X120357900Y-122205750D01*
X120357900Y-122909910D01*
X120454573Y-123143299D01*
X120633202Y-123321927D01*
X120788523Y-123386263D01*
X120767471Y-123400330D01*
X120442615Y-123886511D01*
X120328541Y-124460000D01*
X113821642Y-124460000D01*
X114058111Y-123890519D01*
X114058887Y-123001381D01*
X113719345Y-122179628D01*
X113091179Y-121550364D01*
X112270019Y-121209389D01*
X111380881Y-121208613D01*
X110559128Y-121548155D01*
X109929864Y-122176321D01*
X109588889Y-122997481D01*
X109588113Y-123886619D01*
X97205000Y-123886619D01*
X97205000Y-111095641D01*
X99847400Y-111095641D01*
X99847400Y-111154359D01*
X99961474Y-111727848D01*
X100286330Y-112214029D01*
X100557172Y-112395000D01*
X100286330Y-112575971D01*
X99961474Y-113062152D01*
X99847400Y-113635641D01*
X99847400Y-113694359D01*
X99961474Y-114267848D01*
X100286330Y-114754029D01*
X100557172Y-114935000D01*
X100286330Y-115115971D01*
X99961474Y-115602152D01*
X99847400Y-116175641D01*
X99847400Y-116234359D01*
X99961474Y-116807848D01*
X100286330Y-117294029D01*
X100557172Y-117475000D01*
X100286330Y-117655971D01*
X99961474Y-118142152D01*
X99847400Y-118715641D01*
X99847400Y-118774359D01*
X99961474Y-119347848D01*
X100286330Y-119834029D01*
X100557172Y-120015000D01*
X100286330Y-120195971D01*
X99961474Y-120682152D01*
X99847400Y-121255641D01*
X99847400Y-121314359D01*
X99961474Y-121887848D01*
X100286330Y-122374029D01*
X100772511Y-122698885D01*
X101346000Y-122812959D01*
X101919489Y-122698885D01*
X102405670Y-122374029D01*
X102616000Y-122059248D01*
X102826330Y-122374029D01*
X103312511Y-122698885D01*
X103886000Y-122812959D01*
X104459489Y-122698885D01*
X104945670Y-122374029D01*
X105270526Y-121887848D01*
X105384600Y-121314359D01*
X105384600Y-121255641D01*
X105319844Y-120930090D01*
X120357900Y-120930090D01*
X120357900Y-121634250D01*
X120516650Y-121793000D01*
X121729500Y-121793000D01*
X121729500Y-120580150D01*
X121570750Y-120421400D01*
X120866591Y-120421400D01*
X120633202Y-120518073D01*
X120454573Y-120696701D01*
X120357900Y-120930090D01*
X105319844Y-120930090D01*
X105270526Y-120682152D01*
X104945670Y-120195971D01*
X104674828Y-120015000D01*
X104945670Y-119834029D01*
X105270526Y-119347848D01*
X105384600Y-118774359D01*
X105384600Y-118715641D01*
X105270526Y-118142152D01*
X105210459Y-118052255D01*
X107975400Y-118052255D01*
X107975400Y-118421745D01*
X108089474Y-118995234D01*
X108414330Y-119481415D01*
X108900511Y-119806271D01*
X109474000Y-119920345D01*
X110047489Y-119806271D01*
X110533670Y-119481415D01*
X110744000Y-119166634D01*
X110954330Y-119481415D01*
X111440511Y-119806271D01*
X112014000Y-119920345D01*
X112587489Y-119806271D01*
X113073670Y-119481415D01*
X113088500Y-119459220D01*
X113152073Y-119612698D01*
X113330701Y-119791327D01*
X113564090Y-119888000D01*
X114268250Y-119888000D01*
X114427000Y-119729250D01*
X114427000Y-118364000D01*
X114681000Y-118364000D01*
X114681000Y-119729250D01*
X114839750Y-119888000D01*
X115543910Y-119888000D01*
X115777299Y-119791327D01*
X115955927Y-119612698D01*
X116052600Y-119379309D01*
X116052600Y-119126000D01*
X181069655Y-119126000D01*
X181183729Y-119699489D01*
X181508585Y-120185670D01*
X181823366Y-120396000D01*
X181508585Y-120606330D01*
X181183729Y-121092511D01*
X181069655Y-121666000D01*
X181183729Y-122239489D01*
X181508585Y-122725670D01*
X181530780Y-122740500D01*
X181377302Y-122804073D01*
X181198673Y-122982701D01*
X181102000Y-123216090D01*
X181102000Y-123920250D01*
X181260750Y-124079000D01*
X182626000Y-124079000D01*
X182626000Y-124059000D01*
X182880000Y-124059000D01*
X182880000Y-124079000D01*
X184245250Y-124079000D01*
X184404000Y-123920250D01*
X184404000Y-123216090D01*
X184307327Y-122982701D01*
X184128698Y-122804073D01*
X183975220Y-122740500D01*
X183997415Y-122725670D01*
X184322271Y-122239489D01*
X184436345Y-121666000D01*
X184322271Y-121092511D01*
X183997415Y-120606330D01*
X183682634Y-120396000D01*
X183997415Y-120185670D01*
X184322271Y-119699489D01*
X184436345Y-119126000D01*
X184322271Y-118552511D01*
X183997415Y-118066330D01*
X183511234Y-117741474D01*
X182937745Y-117627400D01*
X182568255Y-117627400D01*
X181994766Y-117741474D01*
X181508585Y-118066330D01*
X181183729Y-118552511D01*
X181069655Y-119126000D01*
X116052600Y-119126000D01*
X116052600Y-118522750D01*
X115893850Y-118364000D01*
X114681000Y-118364000D01*
X114427000Y-118364000D01*
X114407000Y-118364000D01*
X114407000Y-118110000D01*
X114427000Y-118110000D01*
X114427000Y-116744750D01*
X114681000Y-116744750D01*
X114681000Y-118110000D01*
X115893850Y-118110000D01*
X116052600Y-117951250D01*
X116052600Y-117094691D01*
X115955927Y-116861302D01*
X115777299Y-116682673D01*
X115543910Y-116586000D01*
X114839750Y-116586000D01*
X114681000Y-116744750D01*
X114427000Y-116744750D01*
X114268250Y-116586000D01*
X113564090Y-116586000D01*
X113330701Y-116682673D01*
X113152073Y-116861302D01*
X113088500Y-117014780D01*
X113073670Y-116992585D01*
X112587489Y-116667729D01*
X112014000Y-116553655D01*
X111440511Y-116667729D01*
X110954330Y-116992585D01*
X110744000Y-117307366D01*
X110533670Y-116992585D01*
X110047489Y-116667729D01*
X109474000Y-116553655D01*
X108900511Y-116667729D01*
X108414330Y-116992585D01*
X108089474Y-117478766D01*
X107975400Y-118052255D01*
X105210459Y-118052255D01*
X104945670Y-117655971D01*
X104674828Y-117475000D01*
X104945670Y-117294029D01*
X105270526Y-116807848D01*
X105384600Y-116234359D01*
X105384600Y-116175641D01*
X105270526Y-115602152D01*
X104945670Y-115115971D01*
X104674828Y-114935000D01*
X104945670Y-114754029D01*
X104998029Y-114675667D01*
X117174838Y-114675667D01*
X117316883Y-115019443D01*
X117579673Y-115282692D01*
X117747862Y-115352530D01*
X117537175Y-115667845D01*
X117411500Y-116299655D01*
X117411500Y-116364345D01*
X117537175Y-116996155D01*
X117895067Y-117531778D01*
X118430690Y-117889670D01*
X119062500Y-118015345D01*
X119694310Y-117889670D01*
X120030501Y-117665034D01*
X120048173Y-117707698D01*
X120226801Y-117886327D01*
X120460190Y-117983000D01*
X121316750Y-117983000D01*
X121475500Y-117824250D01*
X121475500Y-116459000D01*
X121729500Y-116459000D01*
X121729500Y-117824250D01*
X121888250Y-117983000D01*
X122744810Y-117983000D01*
X122978199Y-117886327D01*
X123156827Y-117707698D01*
X123253500Y-117474309D01*
X123253500Y-116617750D01*
X123094750Y-116459000D01*
X121729500Y-116459000D01*
X121475500Y-116459000D01*
X121455500Y-116459000D01*
X121455500Y-116205000D01*
X121475500Y-116205000D01*
X121475500Y-114839750D01*
X121729500Y-114839750D01*
X121729500Y-116205000D01*
X123094750Y-116205000D01*
X123253500Y-116046250D01*
X123253500Y-115189691D01*
X123156827Y-114956302D01*
X122978199Y-114777673D01*
X122744810Y-114681000D01*
X121888250Y-114681000D01*
X121729500Y-114839750D01*
X121475500Y-114839750D01*
X121316750Y-114681000D01*
X120460190Y-114681000D01*
X120226801Y-114777673D01*
X120048173Y-114956302D01*
X120030501Y-114998966D01*
X119694310Y-114774330D01*
X119062500Y-114648655D01*
X119044860Y-114652164D01*
X119044879Y-114630423D01*
X119151362Y-114523940D01*
X120566000Y-114523940D01*
X120801317Y-114479662D01*
X121017441Y-114340590D01*
X121162431Y-114128390D01*
X121213440Y-113876500D01*
X121213440Y-113180381D01*
X121317383Y-113431943D01*
X121580173Y-113695192D01*
X121923701Y-113837838D01*
X122118560Y-113838008D01*
X122118560Y-113876500D01*
X122162838Y-114111817D01*
X122301910Y-114327941D01*
X122514110Y-114472931D01*
X122766000Y-114523940D01*
X124766000Y-114523940D01*
X125001317Y-114479662D01*
X125004556Y-114477578D01*
X125233500Y-114523940D01*
X126981247Y-114523940D01*
X127163411Y-114706421D01*
X126873000Y-114648655D01*
X126241190Y-114774330D01*
X125705567Y-115132222D01*
X125347675Y-115667845D01*
X125222000Y-116299655D01*
X125222000Y-116364345D01*
X125347675Y-116996155D01*
X125705567Y-117531778D01*
X126241190Y-117889670D01*
X126873000Y-118015345D01*
X127504810Y-117889670D01*
X127841001Y-117665034D01*
X127858673Y-117707698D01*
X128037301Y-117886327D01*
X128270690Y-117983000D01*
X129127250Y-117983000D01*
X129286000Y-117824250D01*
X129286000Y-116459000D01*
X129540000Y-116459000D01*
X129540000Y-117824250D01*
X129698750Y-117983000D01*
X130555310Y-117983000D01*
X130788699Y-117886327D01*
X130967327Y-117707698D01*
X131064000Y-117474309D01*
X131064000Y-116617750D01*
X130905250Y-116459000D01*
X129540000Y-116459000D01*
X129286000Y-116459000D01*
X129266000Y-116459000D01*
X129266000Y-116205000D01*
X129286000Y-116205000D01*
X129286000Y-114839750D01*
X129540000Y-114839750D01*
X129540000Y-116205000D01*
X130905250Y-116205000D01*
X131064000Y-116046250D01*
X131064000Y-115189691D01*
X130967327Y-114956302D01*
X130788699Y-114777673D01*
X130555310Y-114681000D01*
X129698750Y-114681000D01*
X129540000Y-114839750D01*
X129286000Y-114839750D01*
X129127250Y-114681000D01*
X128270690Y-114681000D01*
X128250050Y-114689549D01*
X128490692Y-114449327D01*
X128633338Y-114105799D01*
X128633662Y-113733833D01*
X128491617Y-113390057D01*
X128228827Y-113126808D01*
X127885299Y-112984162D01*
X127880940Y-112984158D01*
X127880940Y-112076500D01*
X128786060Y-112076500D01*
X128786060Y-113876500D01*
X128830338Y-114111817D01*
X128969410Y-114327941D01*
X129181610Y-114472931D01*
X129433500Y-114523940D01*
X131433500Y-114523940D01*
X131668817Y-114479662D01*
X131884941Y-114340590D01*
X132029931Y-114128390D01*
X132080940Y-113876500D01*
X132080940Y-113457057D01*
X132201667Y-113457162D01*
X132545443Y-113315117D01*
X132808692Y-113052327D01*
X132951338Y-112708799D01*
X132951662Y-112336833D01*
X132809617Y-111993057D01*
X132698422Y-111881667D01*
X134192838Y-111881667D01*
X134334883Y-112225443D01*
X134597673Y-112488692D01*
X134941201Y-112631338D01*
X135313167Y-112631662D01*
X135656943Y-112489617D01*
X135920192Y-112226827D01*
X136062838Y-111883299D01*
X136062879Y-111836423D01*
X136681401Y-111217901D01*
X136846148Y-110971339D01*
X136904000Y-110680500D01*
X136904000Y-109147463D01*
X136936192Y-109115327D01*
X137078838Y-108771799D01*
X137079162Y-108399833D01*
X136937117Y-108056057D01*
X136674327Y-107792808D01*
X136330799Y-107650162D01*
X135958833Y-107649838D01*
X135615057Y-107791883D01*
X135351808Y-108054673D01*
X135209162Y-108398201D01*
X135208838Y-108770167D01*
X135350883Y-109113943D01*
X135384000Y-109147118D01*
X135384000Y-110365698D01*
X134988320Y-110761378D01*
X134942833Y-110761338D01*
X134599057Y-110903383D01*
X134335808Y-111166173D01*
X134193162Y-111509701D01*
X134192838Y-111881667D01*
X132698422Y-111881667D01*
X132546827Y-111729808D01*
X132203299Y-111587162D01*
X131841665Y-111586847D01*
X131685390Y-111480069D01*
X131433500Y-111429060D01*
X129433500Y-111429060D01*
X129198183Y-111473338D01*
X128982059Y-111612410D01*
X128837069Y-111824610D01*
X128786060Y-112076500D01*
X127880940Y-112076500D01*
X127836662Y-111841183D01*
X127697590Y-111625059D01*
X127485390Y-111480069D01*
X127233500Y-111429060D01*
X125233500Y-111429060D01*
X124998183Y-111473338D01*
X124994944Y-111475422D01*
X124766000Y-111429060D01*
X122766000Y-111429060D01*
X122530683Y-111473338D01*
X122314559Y-111612410D01*
X122169569Y-111824610D01*
X122140527Y-111968025D01*
X121925333Y-111967838D01*
X121581557Y-112109883D01*
X121318308Y-112372673D01*
X121213440Y-112625222D01*
X121213440Y-112076500D01*
X121169162Y-111841183D01*
X121030090Y-111625059D01*
X120817890Y-111480069D01*
X120566000Y-111429060D01*
X118566000Y-111429060D01*
X118330683Y-111473338D01*
X118114559Y-111612410D01*
X117969569Y-111824610D01*
X117918560Y-112076500D01*
X117918560Y-113557930D01*
X117581057Y-113697383D01*
X117317808Y-113960173D01*
X117175162Y-114303701D01*
X117174838Y-114675667D01*
X104998029Y-114675667D01*
X105270526Y-114267848D01*
X105384600Y-113694359D01*
X105384600Y-113635641D01*
X105270526Y-113062152D01*
X104955474Y-112590644D01*
X105109299Y-112526927D01*
X105287927Y-112348298D01*
X105384600Y-112114909D01*
X105384600Y-111410750D01*
X105225850Y-111252000D01*
X104013000Y-111252000D01*
X104013000Y-111272000D01*
X103759000Y-111272000D01*
X103759000Y-111252000D01*
X103739000Y-111252000D01*
X103739000Y-110998000D01*
X103759000Y-110998000D01*
X103759000Y-109785150D01*
X104013000Y-109785150D01*
X104013000Y-110998000D01*
X105225850Y-110998000D01*
X105384600Y-110839250D01*
X105384600Y-110135091D01*
X105287927Y-109901702D01*
X105109299Y-109723073D01*
X104875910Y-109626400D01*
X104171750Y-109626400D01*
X104013000Y-109785150D01*
X103759000Y-109785150D01*
X103600250Y-109626400D01*
X102896090Y-109626400D01*
X102662701Y-109723073D01*
X102484073Y-109901702D01*
X102419737Y-110057023D01*
X102405670Y-110035971D01*
X101919489Y-109711115D01*
X101346000Y-109597041D01*
X100772511Y-109711115D01*
X100286330Y-110035971D01*
X99961474Y-110522152D01*
X99847400Y-111095641D01*
X97205000Y-111095641D01*
X97205000Y-108162250D01*
X117931000Y-108162250D01*
X117931000Y-108902809D01*
X118027673Y-109136198D01*
X118206301Y-109314827D01*
X118439690Y-109411500D01*
X119280250Y-109411500D01*
X119439000Y-109252750D01*
X119439000Y-108003500D01*
X119693000Y-108003500D01*
X119693000Y-109252750D01*
X119851750Y-109411500D01*
X120692310Y-109411500D01*
X120925699Y-109314827D01*
X121104327Y-109136198D01*
X121201000Y-108902809D01*
X121201000Y-108162250D01*
X121042250Y-108003500D01*
X119693000Y-108003500D01*
X119439000Y-108003500D01*
X118089750Y-108003500D01*
X117931000Y-108162250D01*
X97205000Y-108162250D01*
X97205000Y-106850191D01*
X117931000Y-106850191D01*
X117931000Y-107590750D01*
X118089750Y-107749500D01*
X119439000Y-107749500D01*
X119439000Y-106500250D01*
X119693000Y-106500250D01*
X119693000Y-107749500D01*
X121042250Y-107749500D01*
X121201000Y-107590750D01*
X121201000Y-106976500D01*
X122118560Y-106976500D01*
X122118560Y-108776500D01*
X122162838Y-109011817D01*
X122301910Y-109227941D01*
X122514110Y-109372931D01*
X122766000Y-109423940D01*
X124766000Y-109423940D01*
X125001317Y-109379662D01*
X125012678Y-109372352D01*
X125107190Y-109411500D01*
X125947750Y-109411500D01*
X126106500Y-109252750D01*
X126106500Y-108003500D01*
X126360500Y-108003500D01*
X126360500Y-109252750D01*
X126519250Y-109411500D01*
X127359810Y-109411500D01*
X127593199Y-109314827D01*
X127771827Y-109136198D01*
X127868500Y-108902809D01*
X127868500Y-108162250D01*
X127709750Y-108003500D01*
X126360500Y-108003500D01*
X126106500Y-108003500D01*
X126086500Y-108003500D01*
X126086500Y-107749500D01*
X126106500Y-107749500D01*
X126106500Y-107729500D01*
X126360500Y-107729500D01*
X126360500Y-107749500D01*
X127709750Y-107749500D01*
X127868500Y-107590750D01*
X127868500Y-107144376D01*
X128786060Y-107144376D01*
X128786060Y-108776500D01*
X128830338Y-109011817D01*
X128969410Y-109227941D01*
X129181610Y-109372931D01*
X129433500Y-109423940D01*
X131433500Y-109423940D01*
X131668817Y-109379662D01*
X131884941Y-109240590D01*
X132029931Y-109028390D01*
X132080940Y-108776500D01*
X132080940Y-108059502D01*
X132265167Y-108059662D01*
X132608943Y-107917617D01*
X132872192Y-107654827D01*
X133014838Y-107311299D01*
X133014874Y-107270139D01*
X133239094Y-107177493D01*
X133502343Y-106914703D01*
X133644989Y-106571175D01*
X133645313Y-106199209D01*
X133503268Y-105855433D01*
X133240478Y-105592184D01*
X132896950Y-105449538D01*
X132524984Y-105449214D01*
X132181208Y-105591259D01*
X132148033Y-105624376D01*
X125358124Y-105624376D01*
X125067285Y-105682228D01*
X124820723Y-105846975D01*
X124338638Y-106329060D01*
X122766000Y-106329060D01*
X122530683Y-106373338D01*
X122314559Y-106512410D01*
X122169569Y-106724610D01*
X122118560Y-106976500D01*
X121201000Y-106976500D01*
X121201000Y-106850191D01*
X121104327Y-106616802D01*
X120925699Y-106438173D01*
X120692310Y-106341500D01*
X119851750Y-106341500D01*
X119693000Y-106500250D01*
X119439000Y-106500250D01*
X119280250Y-106341500D01*
X118439690Y-106341500D01*
X118206301Y-106438173D01*
X118027673Y-106616802D01*
X117931000Y-106850191D01*
X97205000Y-106850191D01*
X97205000Y-104088611D01*
X106536146Y-104088611D01*
X106837709Y-104818449D01*
X107395614Y-105377329D01*
X108124925Y-105680165D01*
X108914611Y-105680854D01*
X109644449Y-105379291D01*
X110203329Y-104821386D01*
X110506165Y-104092075D01*
X110506854Y-103302389D01*
X110205291Y-102572551D01*
X109647386Y-102013671D01*
X108918075Y-101710835D01*
X108128389Y-101710146D01*
X107398551Y-102011709D01*
X106839671Y-102569614D01*
X106536835Y-103298925D01*
X106536146Y-104088611D01*
X97205000Y-104088611D01*
X97205000Y-96702681D01*
X109824278Y-96702681D01*
X110036510Y-97216323D01*
X110429150Y-97609649D01*
X110637032Y-97695969D01*
X110431217Y-97781010D01*
X110037891Y-98173650D01*
X109824763Y-98686920D01*
X109824278Y-99242681D01*
X110036510Y-99756323D01*
X110429150Y-100149649D01*
X110942420Y-100362777D01*
X111498181Y-100363262D01*
X112011823Y-100151030D01*
X112221030Y-99942188D01*
X112428130Y-100149649D01*
X112941400Y-100362777D01*
X113497161Y-100363262D01*
X114010803Y-100151030D01*
X114404129Y-99758390D01*
X114617257Y-99245120D01*
X114617742Y-98689359D01*
X114405510Y-98175717D01*
X114012870Y-97782391D01*
X113804988Y-97696071D01*
X114010803Y-97611030D01*
X114404129Y-97218390D01*
X114617257Y-96705120D01*
X114617742Y-96149359D01*
X114405510Y-95635717D01*
X114012870Y-95242391D01*
X113499600Y-95029263D01*
X112943839Y-95028778D01*
X112430197Y-95241010D01*
X112220990Y-95449852D01*
X112013890Y-95242391D01*
X111500620Y-95029263D01*
X110944859Y-95028778D01*
X110431217Y-95241010D01*
X110037891Y-95633650D01*
X109824763Y-96146920D01*
X109824278Y-96702681D01*
X97205000Y-96702681D01*
X97205000Y-94482667D01*
X131335338Y-94482667D01*
X131477383Y-94826443D01*
X131740173Y-95089692D01*
X132083701Y-95232338D01*
X132455667Y-95232662D01*
X132799443Y-95090617D01*
X132832618Y-95057500D01*
X132844698Y-95057500D01*
X136082500Y-98295302D01*
X136082500Y-104022037D01*
X136050308Y-104054173D01*
X135907662Y-104397701D01*
X135907338Y-104769667D01*
X136049383Y-105113443D01*
X136312173Y-105376692D01*
X136655701Y-105519338D01*
X137027667Y-105519662D01*
X137371443Y-105377617D01*
X137634692Y-105114827D01*
X137777338Y-104771299D01*
X137777662Y-104399333D01*
X137635617Y-104055557D01*
X137602500Y-104022382D01*
X137602500Y-97980500D01*
X137544648Y-97689661D01*
X137379901Y-97443099D01*
X133696901Y-93760099D01*
X133450339Y-93595352D01*
X133159500Y-93537500D01*
X132832963Y-93537500D01*
X132800827Y-93505308D01*
X132457299Y-93362662D01*
X132085333Y-93362338D01*
X131741557Y-93504383D01*
X131478308Y-93767173D01*
X131335662Y-94110701D01*
X131335338Y-94482667D01*
X97205000Y-94482667D01*
X97205000Y-92089651D01*
X106536146Y-92089651D01*
X106837709Y-92819489D01*
X107395614Y-93378369D01*
X108124925Y-93681205D01*
X108914611Y-93681894D01*
X109644449Y-93380331D01*
X110203329Y-92822426D01*
X110506165Y-92093115D01*
X110506234Y-92013446D01*
X116377017Y-92013446D01*
X116645812Y-92598879D01*
X117118182Y-93036885D01*
X117600056Y-93236475D01*
X117856000Y-93117336D01*
X117856000Y-91757500D01*
X116495633Y-91757500D01*
X116377017Y-92013446D01*
X110506234Y-92013446D01*
X110506854Y-91303429D01*
X110483767Y-91247554D01*
X116377017Y-91247554D01*
X116495633Y-91503500D01*
X117856000Y-91503500D01*
X117856000Y-90143664D01*
X118110000Y-90143664D01*
X118110000Y-91503500D01*
X118130000Y-91503500D01*
X118130000Y-91757500D01*
X118110000Y-91757500D01*
X118110000Y-93117336D01*
X118365944Y-93236475D01*
X118847818Y-93036885D01*
X118945398Y-92946403D01*
X119042910Y-93097941D01*
X119255110Y-93242931D01*
X119507000Y-93293940D01*
X121539000Y-93293940D01*
X121774317Y-93249662D01*
X121990441Y-93110590D01*
X122135431Y-92898390D01*
X122186440Y-92646500D01*
X122186440Y-91371167D01*
X133113338Y-91371167D01*
X133255383Y-91714943D01*
X133518173Y-91978192D01*
X133861701Y-92120838D01*
X134233667Y-92121162D01*
X134503910Y-92009500D01*
X135173962Y-92009500D01*
X136190269Y-93025807D01*
X136161662Y-93094701D01*
X136161338Y-93466667D01*
X136303383Y-93810443D01*
X136566173Y-94073692D01*
X136909701Y-94216338D01*
X137281667Y-94216662D01*
X137625443Y-94074617D01*
X137888692Y-93811827D01*
X138031338Y-93468299D01*
X138031662Y-93096333D01*
X137889617Y-92752557D01*
X137822255Y-92685078D01*
X137798648Y-92566397D01*
X137633901Y-92319835D01*
X136026165Y-90712099D01*
X135779603Y-90547352D01*
X135488764Y-90489500D01*
X134674352Y-90489500D01*
X134578827Y-90393808D01*
X134235299Y-90251162D01*
X133863333Y-90250838D01*
X133519557Y-90392883D01*
X133256308Y-90655673D01*
X133113662Y-90999201D01*
X133113338Y-91371167D01*
X122186440Y-91371167D01*
X122186440Y-90614500D01*
X122142162Y-90379183D01*
X122003090Y-90163059D01*
X121790890Y-90018069D01*
X121539000Y-89967060D01*
X119507000Y-89967060D01*
X119271683Y-90011338D01*
X119055559Y-90150410D01*
X118944160Y-90313448D01*
X118847818Y-90224115D01*
X118365944Y-90024525D01*
X118110000Y-90143664D01*
X117856000Y-90143664D01*
X117600056Y-90024525D01*
X117118182Y-90224115D01*
X116645812Y-90662121D01*
X116377017Y-91247554D01*
X110483767Y-91247554D01*
X110205291Y-90573591D01*
X109647386Y-90014711D01*
X108918075Y-89711875D01*
X108128389Y-89711186D01*
X107398551Y-90012749D01*
X106839671Y-90570654D01*
X106536835Y-91299965D01*
X106536146Y-92089651D01*
X97205000Y-92089651D01*
X97205000Y-86294619D01*
X100126613Y-86294619D01*
X100466155Y-87116372D01*
X101094321Y-87745636D01*
X101915481Y-88086611D01*
X102804619Y-88087387D01*
X103626372Y-87747845D01*
X104255636Y-87119679D01*
X104596611Y-86298519D01*
X104597387Y-85409381D01*
X104257845Y-84587628D01*
X103629679Y-83958364D01*
X102808519Y-83617389D01*
X101919381Y-83616613D01*
X101097628Y-83956155D01*
X100468364Y-84584321D01*
X100127389Y-85405481D01*
X100126613Y-86294619D01*
X97205000Y-86294619D01*
X97205000Y-79336900D01*
X122821960Y-79336900D01*
X122821960Y-81572100D01*
X122866238Y-81807417D01*
X123005310Y-82023541D01*
X123217510Y-82168531D01*
X123469400Y-82219540D01*
X125704600Y-82219540D01*
X125939917Y-82175262D01*
X126156041Y-82036190D01*
X126301031Y-81823990D01*
X126352040Y-81572100D01*
X126352040Y-79336900D01*
X126885960Y-79336900D01*
X126885960Y-81572100D01*
X126930238Y-81807417D01*
X127069310Y-82023541D01*
X127281510Y-82168531D01*
X127533400Y-82219540D01*
X129768600Y-82219540D01*
X130003917Y-82175262D01*
X130220041Y-82036190D01*
X130365031Y-81823990D01*
X130416040Y-81572100D01*
X130416040Y-80816413D01*
X131674316Y-80816413D01*
X131867546Y-81368820D01*
X132257464Y-81805232D01*
X132784709Y-82059209D01*
X132800474Y-82061858D01*
X133032500Y-81940717D01*
X133032500Y-80581500D01*
X131818576Y-80581500D01*
X131674316Y-80816413D01*
X130416040Y-80816413D01*
X130416040Y-80092587D01*
X131674316Y-80092587D01*
X131818576Y-80327500D01*
X133032500Y-80327500D01*
X133032500Y-78968283D01*
X133286500Y-78968283D01*
X133286500Y-80327500D01*
X133306500Y-80327500D01*
X133306500Y-80581500D01*
X133286500Y-80581500D01*
X133286500Y-81940717D01*
X133518526Y-82061858D01*
X133534291Y-82059209D01*
X134061536Y-81805232D01*
X134433039Y-81389431D01*
X134639830Y-81698915D01*
X135126011Y-82023771D01*
X135629027Y-82123827D01*
X135415308Y-82337173D01*
X135272662Y-82680701D01*
X135272338Y-83052667D01*
X135414383Y-83396443D01*
X135677173Y-83659692D01*
X136020701Y-83802338D01*
X136067577Y-83802379D01*
X139003500Y-86738302D01*
X139003500Y-96029612D01*
X138689333Y-96029338D01*
X138345557Y-96171383D01*
X138082308Y-96434173D01*
X137939662Y-96777701D01*
X137939338Y-97149667D01*
X138081383Y-97493443D01*
X138344173Y-97756692D01*
X138687701Y-97899338D01*
X139059667Y-97899662D01*
X139403443Y-97757617D01*
X139470922Y-97690255D01*
X139589603Y-97666648D01*
X139836165Y-97501901D01*
X140272413Y-97065653D01*
X145908467Y-97065653D01*
X145908467Y-110219467D01*
X145966319Y-110510306D01*
X146131066Y-110756868D01*
X148116099Y-112741901D01*
X148362661Y-112906648D01*
X148653500Y-112964500D01*
X155532000Y-112964500D01*
X155574405Y-112956065D01*
X155525428Y-113074014D01*
X155525104Y-113445980D01*
X155667149Y-113789756D01*
X155929939Y-114053005D01*
X156273467Y-114195651D01*
X156330097Y-114195700D01*
X156340719Y-114221407D01*
X156603509Y-114484656D01*
X156886025Y-114601967D01*
X156945275Y-114745364D01*
X157208065Y-115008613D01*
X157551593Y-115151259D01*
X157631892Y-115151329D01*
X157633018Y-115154054D01*
X157895808Y-115417303D01*
X158239336Y-115559949D01*
X158611302Y-115560273D01*
X158833098Y-115468629D01*
X159102642Y-115580554D01*
X159474608Y-115580878D01*
X159561537Y-115544960D01*
X159616673Y-115600192D01*
X159960201Y-115742838D01*
X160332167Y-115743162D01*
X160556127Y-115650624D01*
X160569173Y-115663692D01*
X160912701Y-115806338D01*
X161284667Y-115806662D01*
X161628443Y-115664617D01*
X161639038Y-115654040D01*
X161648673Y-115663692D01*
X161992201Y-115806338D01*
X162364167Y-115806662D01*
X162707943Y-115664617D01*
X162971192Y-115401827D01*
X163113838Y-115058299D01*
X163113921Y-114962951D01*
X163181147Y-114862340D01*
X163238999Y-114571501D01*
X163238999Y-111561940D01*
X163272000Y-111561940D01*
X163401589Y-111537556D01*
X163522000Y-111561940D01*
X163922000Y-111561940D01*
X164051589Y-111537556D01*
X164172000Y-111561940D01*
X164572000Y-111561940D01*
X164701589Y-111537556D01*
X164822000Y-111561940D01*
X165222000Y-111561940D01*
X165457317Y-111517662D01*
X165673441Y-111378590D01*
X165818431Y-111166390D01*
X165869440Y-110914500D01*
X165869440Y-109714500D01*
X165825162Y-109479183D01*
X165782000Y-109412107D01*
X165782000Y-107436667D01*
X166641338Y-107436667D01*
X166783383Y-107780443D01*
X167046173Y-108043692D01*
X167388000Y-108185632D01*
X167388000Y-113039037D01*
X167355808Y-113071173D01*
X167213162Y-113414701D01*
X167212838Y-113786667D01*
X167354883Y-114130443D01*
X167617673Y-114393692D01*
X167961201Y-114536338D01*
X168333167Y-114536662D01*
X168676943Y-114394617D01*
X168940192Y-114131827D01*
X169082838Y-113788299D01*
X169082867Y-113753900D01*
X172796460Y-113753900D01*
X172796460Y-115989100D01*
X172840738Y-116224417D01*
X172979810Y-116440541D01*
X173192010Y-116585531D01*
X173443900Y-116636540D01*
X175679100Y-116636540D01*
X175914417Y-116592262D01*
X176130541Y-116453190D01*
X176275531Y-116240990D01*
X176326540Y-115989100D01*
X176326540Y-113753900D01*
X176321407Y-113726619D01*
X178993613Y-113726619D01*
X179333155Y-114548372D01*
X179961321Y-115177636D01*
X180782481Y-115518611D01*
X181671619Y-115519387D01*
X182493372Y-115179845D01*
X183122636Y-114551679D01*
X183463611Y-113730519D01*
X183464387Y-112841381D01*
X183124845Y-112019628D01*
X182496679Y-111390364D01*
X181675519Y-111049389D01*
X180786381Y-111048613D01*
X179964628Y-111388155D01*
X179335364Y-112016321D01*
X178994389Y-112837481D01*
X178993613Y-113726619D01*
X176321407Y-113726619D01*
X176282262Y-113518583D01*
X176143190Y-113302459D01*
X175930990Y-113157469D01*
X175679100Y-113106460D01*
X173443900Y-113106460D01*
X173208583Y-113150738D01*
X172992459Y-113289810D01*
X172847469Y-113502010D01*
X172796460Y-113753900D01*
X169082867Y-113753900D01*
X169083162Y-113416333D01*
X168941117Y-113072557D01*
X168908000Y-113039382D01*
X168908000Y-111246667D01*
X176356838Y-111246667D01*
X176498883Y-111590443D01*
X176761673Y-111853692D01*
X177105201Y-111996338D01*
X177477167Y-111996662D01*
X177820943Y-111854617D01*
X178084192Y-111591827D01*
X178226838Y-111248299D01*
X178226879Y-111201423D01*
X179416901Y-110011401D01*
X179581648Y-109764839D01*
X179639500Y-109474000D01*
X179639500Y-106299000D01*
X179608390Y-106142599D01*
X179581648Y-106008160D01*
X179416901Y-105761599D01*
X178989122Y-105333820D01*
X178989162Y-105288333D01*
X178847117Y-104944557D01*
X178584327Y-104681308D01*
X178240799Y-104538662D01*
X177868833Y-104538338D01*
X177525057Y-104680383D01*
X177261808Y-104943173D01*
X177119162Y-105286701D01*
X177118838Y-105658667D01*
X177260883Y-106002443D01*
X177303265Y-106044899D01*
X177198308Y-106149673D01*
X177055662Y-106493201D01*
X177055621Y-106540077D01*
X176945099Y-106650599D01*
X176780352Y-106897161D01*
X176722500Y-107188000D01*
X176722500Y-109165537D01*
X176690308Y-109197673D01*
X176547662Y-109541201D01*
X176547338Y-109913167D01*
X176689383Y-110256943D01*
X176731876Y-110299510D01*
X176499808Y-110531173D01*
X176357162Y-110874701D01*
X176356838Y-111246667D01*
X168908000Y-111246667D01*
X168908000Y-107823000D01*
X168866594Y-107614838D01*
X168850148Y-107532160D01*
X168685401Y-107285599D01*
X168511622Y-107111820D01*
X168511662Y-107066333D01*
X168369617Y-106722557D01*
X168106827Y-106459308D01*
X167763299Y-106316662D01*
X167391333Y-106316338D01*
X167047557Y-106458383D01*
X166784308Y-106721173D01*
X166641662Y-107064701D01*
X166641338Y-107436667D01*
X165782000Y-107436667D01*
X165782000Y-104013000D01*
X171417655Y-104013000D01*
X171531729Y-104586489D01*
X171856585Y-105072670D01*
X172171366Y-105283000D01*
X171856585Y-105493330D01*
X171531729Y-105979511D01*
X171417655Y-106553000D01*
X171531729Y-107126489D01*
X171856585Y-107612670D01*
X172342766Y-107937526D01*
X172916255Y-108051600D01*
X173285745Y-108051600D01*
X173859234Y-107937526D01*
X174345415Y-107612670D01*
X174670271Y-107126489D01*
X174784345Y-106553000D01*
X174670271Y-105979511D01*
X174345415Y-105493330D01*
X174030634Y-105283000D01*
X174345415Y-105072670D01*
X174670271Y-104586489D01*
X174784345Y-104013000D01*
X174676983Y-103473250D01*
X178460400Y-103473250D01*
X178460400Y-104177409D01*
X178557073Y-104410798D01*
X178735701Y-104589427D01*
X178969090Y-104686100D01*
X179673250Y-104686100D01*
X179832000Y-104527350D01*
X179832000Y-103314500D01*
X178619150Y-103314500D01*
X178460400Y-103473250D01*
X174676983Y-103473250D01*
X174670271Y-103439511D01*
X174345415Y-102953330D01*
X174323220Y-102938500D01*
X174476698Y-102874927D01*
X174655327Y-102696299D01*
X174752000Y-102462910D01*
X174752000Y-101758750D01*
X174593250Y-101600000D01*
X173228000Y-101600000D01*
X173228000Y-101620000D01*
X172974000Y-101620000D01*
X172974000Y-101600000D01*
X171608750Y-101600000D01*
X171450000Y-101758750D01*
X171450000Y-102462910D01*
X171546673Y-102696299D01*
X171725302Y-102874927D01*
X171878780Y-102938500D01*
X171856585Y-102953330D01*
X171531729Y-103439511D01*
X171417655Y-104013000D01*
X165782000Y-104013000D01*
X165782000Y-103446938D01*
X165828692Y-103400327D01*
X165971338Y-103056799D01*
X165971662Y-102684833D01*
X165829617Y-102341057D01*
X165566827Y-102077808D01*
X165223299Y-101935162D01*
X164851333Y-101934838D01*
X164811570Y-101951268D01*
X164765122Y-101904820D01*
X164765162Y-101859333D01*
X164623117Y-101515557D01*
X164360327Y-101252308D01*
X164016799Y-101109662D01*
X163644833Y-101109338D01*
X163301057Y-101251383D01*
X163037808Y-101514173D01*
X162895162Y-101857701D01*
X162895005Y-102038392D01*
X162814101Y-102119154D01*
X162772827Y-102077808D01*
X162429299Y-101935162D01*
X162057333Y-101934838D01*
X161713557Y-102076883D01*
X161450308Y-102339673D01*
X161307662Y-102683201D01*
X161307338Y-103055167D01*
X161449383Y-103398943D01*
X161712173Y-103662192D01*
X162055701Y-103804838D01*
X162102577Y-103804879D01*
X162312000Y-104014302D01*
X162312000Y-109067060D01*
X162222000Y-109067060D01*
X162092411Y-109091444D01*
X161972000Y-109067060D01*
X161572000Y-109067060D01*
X161442411Y-109091444D01*
X161322000Y-109067060D01*
X160922000Y-109067060D01*
X160816295Y-109086950D01*
X160798310Y-109079500D01*
X160730750Y-109079500D01*
X160701746Y-109108504D01*
X160686683Y-109111338D01*
X160470559Y-109250410D01*
X160469610Y-109251799D01*
X160273890Y-109118069D01*
X160246215Y-109112465D01*
X160213250Y-109079500D01*
X160145690Y-109079500D01*
X160125247Y-109087968D01*
X160022000Y-109067060D01*
X159622000Y-109067060D01*
X159492411Y-109091444D01*
X159372000Y-109067060D01*
X158972000Y-109067060D01*
X158842411Y-109091444D01*
X158722000Y-109067060D01*
X158322000Y-109067060D01*
X158192411Y-109091444D01*
X158072000Y-109067060D01*
X157672000Y-109067060D01*
X157542411Y-109091444D01*
X157422000Y-109067060D01*
X157022000Y-109067060D01*
X156892411Y-109091444D01*
X156772000Y-109067060D01*
X156552920Y-109067060D01*
X156459401Y-108927099D01*
X156087901Y-108555599D01*
X155841339Y-108390852D01*
X155550500Y-108333000D01*
X149666802Y-108333000D01*
X148328489Y-106994687D01*
X148328489Y-104038579D01*
X148530201Y-104122338D01*
X148902167Y-104122662D01*
X149245943Y-103980617D01*
X149509192Y-103717827D01*
X149651838Y-103374299D01*
X149652162Y-103002333D01*
X149510117Y-102658557D01*
X149247327Y-102395308D01*
X148975216Y-102282317D01*
X149292055Y-102151402D01*
X149555304Y-101888612D01*
X149697950Y-101545084D01*
X149697991Y-101498208D01*
X150841901Y-100354298D01*
X151006648Y-100107736D01*
X151064500Y-99816897D01*
X151064500Y-97022667D01*
X152861838Y-97022667D01*
X153003883Y-97366443D01*
X153266673Y-97629692D01*
X153610201Y-97772338D01*
X153657077Y-97772379D01*
X153661600Y-97776902D01*
X153908161Y-97941649D01*
X154199001Y-97999501D01*
X155617499Y-97999501D01*
X155713217Y-97980461D01*
X155870173Y-98137692D01*
X156213701Y-98280338D01*
X156585667Y-98280662D01*
X156929443Y-98138617D01*
X157192692Y-97875827D01*
X157323030Y-97561940D01*
X157422000Y-97561940D01*
X157551589Y-97537556D01*
X157672000Y-97561940D01*
X158072000Y-97561940D01*
X158201589Y-97537556D01*
X158322000Y-97561940D01*
X158366663Y-97561940D01*
X158323162Y-97666701D01*
X158322838Y-98038667D01*
X158464883Y-98382443D01*
X158727673Y-98645692D01*
X159071201Y-98788338D01*
X159443167Y-98788662D01*
X159786943Y-98646617D01*
X160050192Y-98383827D01*
X160192838Y-98040299D01*
X160192879Y-97993423D01*
X160359401Y-97826901D01*
X160524148Y-97580340D01*
X160527808Y-97561940D01*
X160672000Y-97561940D01*
X160801589Y-97537556D01*
X160922000Y-97561940D01*
X161322000Y-97561940D01*
X161451589Y-97537556D01*
X161572000Y-97561940D01*
X161972000Y-97561940D01*
X162101589Y-97537556D01*
X162189553Y-97555369D01*
X162158057Y-97568383D01*
X161894808Y-97831173D01*
X161752162Y-98174701D01*
X161751838Y-98546667D01*
X161893883Y-98890443D01*
X162156673Y-99153692D01*
X162483897Y-99289568D01*
X162528883Y-99398443D01*
X162791673Y-99661692D01*
X163135201Y-99804338D01*
X163366249Y-99804539D01*
X163387280Y-99855438D01*
X163650070Y-100118687D01*
X163656904Y-100121525D01*
X163656838Y-100197667D01*
X163798883Y-100541443D01*
X164061673Y-100804692D01*
X164405201Y-100947338D01*
X164777167Y-100947662D01*
X165120943Y-100805617D01*
X165384192Y-100542827D01*
X165408997Y-100483090D01*
X171450000Y-100483090D01*
X171450000Y-101187250D01*
X171608750Y-101346000D01*
X172974000Y-101346000D01*
X172974000Y-100133150D01*
X173228000Y-100133150D01*
X173228000Y-101346000D01*
X174593250Y-101346000D01*
X174752000Y-101187250D01*
X174752000Y-100483090D01*
X174655327Y-100249701D01*
X174476698Y-100071073D01*
X174243309Y-99974400D01*
X173386750Y-99974400D01*
X173228000Y-100133150D01*
X172974000Y-100133150D01*
X172815250Y-99974400D01*
X171958691Y-99974400D01*
X171725302Y-100071073D01*
X171546673Y-100249701D01*
X171450000Y-100483090D01*
X165408997Y-100483090D01*
X165526838Y-100199299D01*
X165526879Y-100152423D01*
X165559401Y-100119901D01*
X165724148Y-99873339D01*
X165782000Y-99582500D01*
X165782000Y-97219709D01*
X165818431Y-97166390D01*
X165869440Y-96914500D01*
X165869440Y-95714500D01*
X165825162Y-95479183D01*
X165686090Y-95263059D01*
X165473890Y-95118069D01*
X165222000Y-95067060D01*
X164822000Y-95067060D01*
X164692411Y-95091444D01*
X164572000Y-95067060D01*
X164172000Y-95067060D01*
X164042411Y-95091444D01*
X163922000Y-95067060D01*
X163522000Y-95067060D01*
X163392411Y-95091444D01*
X163272000Y-95067060D01*
X163182000Y-95067060D01*
X163182000Y-93270500D01*
X163127824Y-92998141D01*
X178460400Y-92998141D01*
X178460400Y-93056859D01*
X178574474Y-93630348D01*
X178899330Y-94116529D01*
X179170172Y-94297500D01*
X178899330Y-94478471D01*
X178574474Y-94964652D01*
X178460400Y-95538141D01*
X178460400Y-95596859D01*
X178574474Y-96170348D01*
X178899330Y-96656529D01*
X179170172Y-96837500D01*
X178899330Y-97018471D01*
X178574474Y-97504652D01*
X178460400Y-98078141D01*
X178460400Y-98136859D01*
X178574474Y-98710348D01*
X178899330Y-99196529D01*
X179170172Y-99377500D01*
X178899330Y-99558471D01*
X178574474Y-100044652D01*
X178460400Y-100618141D01*
X178460400Y-100676859D01*
X178574474Y-101250348D01*
X178889526Y-101721856D01*
X178735701Y-101785573D01*
X178557073Y-101964202D01*
X178460400Y-102197591D01*
X178460400Y-102901750D01*
X178619150Y-103060500D01*
X179832000Y-103060500D01*
X179832000Y-103040500D01*
X180086000Y-103040500D01*
X180086000Y-103060500D01*
X180106000Y-103060500D01*
X180106000Y-103314500D01*
X180086000Y-103314500D01*
X180086000Y-104527350D01*
X180244750Y-104686100D01*
X180948910Y-104686100D01*
X181182299Y-104589427D01*
X181360927Y-104410798D01*
X181425263Y-104255477D01*
X181439330Y-104276529D01*
X181925511Y-104601385D01*
X182499000Y-104715459D01*
X183072489Y-104601385D01*
X183558670Y-104276529D01*
X183883526Y-103790348D01*
X183997600Y-103216859D01*
X183997600Y-103158141D01*
X183883526Y-102584652D01*
X183558670Y-102098471D01*
X183287828Y-101917500D01*
X183558670Y-101736529D01*
X183883526Y-101250348D01*
X183997600Y-100676859D01*
X183997600Y-100618141D01*
X183883526Y-100044652D01*
X183558670Y-99558471D01*
X183287828Y-99377500D01*
X183558670Y-99196529D01*
X183883526Y-98710348D01*
X183997600Y-98136859D01*
X183997600Y-98078141D01*
X183883526Y-97504652D01*
X183558670Y-97018471D01*
X183287828Y-96837500D01*
X183558670Y-96656529D01*
X183883526Y-96170348D01*
X183997600Y-95596859D01*
X183997600Y-95538141D01*
X183883526Y-94964652D01*
X183558670Y-94478471D01*
X183287828Y-94297500D01*
X183558670Y-94116529D01*
X183883526Y-93630348D01*
X183997600Y-93056859D01*
X183997600Y-92998141D01*
X183883526Y-92424652D01*
X183558670Y-91938471D01*
X183072489Y-91613615D01*
X182499000Y-91499541D01*
X181925511Y-91613615D01*
X181439330Y-91938471D01*
X181229000Y-92253252D01*
X181018670Y-91938471D01*
X180532489Y-91613615D01*
X179959000Y-91499541D01*
X179385511Y-91613615D01*
X178899330Y-91938471D01*
X178574474Y-92424652D01*
X178460400Y-92998141D01*
X163127824Y-92998141D01*
X163124148Y-92979661D01*
X162959401Y-92733099D01*
X162860122Y-92633820D01*
X162860162Y-92588333D01*
X162718117Y-92244557D01*
X162455327Y-91981308D01*
X162111799Y-91838662D01*
X161739833Y-91838338D01*
X161396057Y-91980383D01*
X161303408Y-92072870D01*
X160608731Y-91378193D01*
X160637338Y-91309299D01*
X160637662Y-90937333D01*
X160495617Y-90593557D01*
X160232827Y-90330308D01*
X159889299Y-90187662D01*
X159517333Y-90187338D01*
X159173557Y-90329383D01*
X159065787Y-90436965D01*
X158986622Y-90357800D01*
X158986662Y-90312313D01*
X158844617Y-89968537D01*
X158734528Y-89858255D01*
X165252400Y-89858255D01*
X165252400Y-90227745D01*
X165366474Y-90801234D01*
X165691330Y-91287415D01*
X166177511Y-91612271D01*
X166751000Y-91726345D01*
X167324489Y-91612271D01*
X167810670Y-91287415D01*
X168021000Y-90972634D01*
X168231330Y-91287415D01*
X168717511Y-91612271D01*
X169291000Y-91726345D01*
X169864489Y-91612271D01*
X170350670Y-91287415D01*
X170365500Y-91265220D01*
X170429073Y-91418698D01*
X170607701Y-91597327D01*
X170841090Y-91694000D01*
X171545250Y-91694000D01*
X171704000Y-91535250D01*
X171704000Y-90170000D01*
X171958000Y-90170000D01*
X171958000Y-91535250D01*
X172116750Y-91694000D01*
X172820910Y-91694000D01*
X173054299Y-91597327D01*
X173232927Y-91418698D01*
X173329600Y-91185309D01*
X173329600Y-90328750D01*
X173170850Y-90170000D01*
X171958000Y-90170000D01*
X171704000Y-90170000D01*
X171684000Y-90170000D01*
X171684000Y-89916000D01*
X171704000Y-89916000D01*
X171704000Y-88550750D01*
X171958000Y-88550750D01*
X171958000Y-89916000D01*
X173170850Y-89916000D01*
X173329600Y-89757250D01*
X173329600Y-88900691D01*
X173232927Y-88667302D01*
X173054299Y-88488673D01*
X172820910Y-88392000D01*
X172116750Y-88392000D01*
X171958000Y-88550750D01*
X171704000Y-88550750D01*
X171545250Y-88392000D01*
X170841090Y-88392000D01*
X170607701Y-88488673D01*
X170429073Y-88667302D01*
X170365500Y-88820780D01*
X170350670Y-88798585D01*
X169864489Y-88473729D01*
X169291000Y-88359655D01*
X168717511Y-88473729D01*
X168231330Y-88798585D01*
X168021000Y-89113366D01*
X167810670Y-88798585D01*
X167324489Y-88473729D01*
X166751000Y-88359655D01*
X166177511Y-88473729D01*
X165691330Y-88798585D01*
X165366474Y-89284766D01*
X165252400Y-89858255D01*
X158734528Y-89858255D01*
X158581827Y-89705288D01*
X158238299Y-89562642D01*
X157866333Y-89562318D01*
X157522557Y-89704363D01*
X157259308Y-89967153D01*
X157116662Y-90310681D01*
X157116338Y-90682647D01*
X157258383Y-91026423D01*
X157521173Y-91289672D01*
X157864701Y-91432318D01*
X157911577Y-91432359D01*
X158412000Y-91932782D01*
X158412000Y-92645088D01*
X158409401Y-92641198D01*
X157673511Y-91905308D01*
X157673551Y-91859821D01*
X157531506Y-91516045D01*
X157268716Y-91252796D01*
X156925188Y-91110150D01*
X156553222Y-91109826D01*
X156209446Y-91251871D01*
X156171989Y-91289263D01*
X156142799Y-91277142D01*
X155770833Y-91276818D01*
X155427057Y-91418863D01*
X155163808Y-91681653D01*
X155021162Y-92025181D01*
X155020838Y-92397147D01*
X155162883Y-92740923D01*
X155425673Y-93004172D01*
X155769201Y-93146818D01*
X155816077Y-93146859D01*
X156462000Y-93792782D01*
X156462000Y-95067060D01*
X156372000Y-95067060D01*
X156242411Y-95091444D01*
X156122000Y-95067060D01*
X156032000Y-95067060D01*
X156032000Y-94566000D01*
X155974148Y-94275161D01*
X155974148Y-94275160D01*
X155809401Y-94028599D01*
X155367122Y-93586320D01*
X155367162Y-93540833D01*
X155225117Y-93197057D01*
X154962327Y-92933808D01*
X154618799Y-92791162D01*
X154246833Y-92790838D01*
X153903057Y-92932883D01*
X153639808Y-93195673D01*
X153497162Y-93539201D01*
X153496838Y-93911167D01*
X153638883Y-94254943D01*
X153901673Y-94518192D01*
X154245201Y-94660838D01*
X154292077Y-94660879D01*
X154512000Y-94880802D01*
X154512000Y-95409291D01*
X154475569Y-95462610D01*
X154424560Y-95714500D01*
X154424560Y-96142711D01*
X154327327Y-96045308D01*
X153983799Y-95902662D01*
X153611833Y-95902338D01*
X153268057Y-96044383D01*
X153004808Y-96307173D01*
X152862162Y-96650701D01*
X152861838Y-97022667D01*
X151064500Y-97022667D01*
X151064500Y-95929483D01*
X151096692Y-95897347D01*
X151239338Y-95553819D01*
X151239662Y-95181853D01*
X151097617Y-94838077D01*
X150834827Y-94574828D01*
X150491299Y-94432182D01*
X150119333Y-94431858D01*
X149775557Y-94573903D01*
X149728111Y-94621266D01*
X149628327Y-94521308D01*
X149284799Y-94378662D01*
X148912833Y-94378338D01*
X148569057Y-94520383D01*
X148305808Y-94783173D01*
X148163162Y-95126701D01*
X148162838Y-95498667D01*
X148304883Y-95842443D01*
X148372245Y-95909922D01*
X148382971Y-95963846D01*
X148188057Y-96044383D01*
X147948529Y-96283494D01*
X147934485Y-96283481D01*
X147870257Y-96128037D01*
X147607467Y-95864788D01*
X147263939Y-95722142D01*
X146891973Y-95721818D01*
X146548197Y-95863863D01*
X146284948Y-96126653D01*
X146142302Y-96470181D01*
X146142261Y-96517057D01*
X146131066Y-96528252D01*
X145966319Y-96774814D01*
X145908467Y-97065653D01*
X140272413Y-97065653D01*
X140300901Y-97037165D01*
X140465648Y-96790603D01*
X140523500Y-96499764D01*
X140523500Y-86423500D01*
X140465648Y-86132661D01*
X140465648Y-86132660D01*
X140300901Y-85886099D01*
X137142622Y-82727820D01*
X137142662Y-82682333D01*
X137000617Y-82338557D01*
X136737827Y-82075308D01*
X136403577Y-81936515D01*
X136759170Y-81698915D01*
X136768743Y-81684587D01*
X136772738Y-81705817D01*
X136911810Y-81921941D01*
X137124010Y-82066931D01*
X137375900Y-82117940D01*
X139103100Y-82117940D01*
X139338417Y-82073662D01*
X139554541Y-81934590D01*
X139699531Y-81722390D01*
X139750540Y-81470500D01*
X139750540Y-81343500D01*
X144712541Y-81343500D01*
X144826615Y-81916989D01*
X145151471Y-82403170D01*
X145466252Y-82613500D01*
X145151471Y-82823830D01*
X144826615Y-83310011D01*
X144712541Y-83883500D01*
X144826615Y-84456989D01*
X145151471Y-84943170D01*
X145637652Y-85268026D01*
X146211141Y-85382100D01*
X146269859Y-85382100D01*
X146843348Y-85268026D01*
X147329529Y-84943170D01*
X147510500Y-84672328D01*
X147691471Y-84943170D01*
X148177652Y-85268026D01*
X148751141Y-85382100D01*
X148809859Y-85382100D01*
X149383348Y-85268026D01*
X149869529Y-84943170D01*
X150050500Y-84672328D01*
X150231471Y-84943170D01*
X150717652Y-85268026D01*
X151291141Y-85382100D01*
X151349859Y-85382100D01*
X151923348Y-85268026D01*
X152409529Y-84943170D01*
X152590500Y-84672328D01*
X152771471Y-84943170D01*
X153257652Y-85268026D01*
X153831141Y-85382100D01*
X153889859Y-85382100D01*
X154463348Y-85268026D01*
X154934856Y-84952974D01*
X154998573Y-85106799D01*
X155177202Y-85285427D01*
X155410591Y-85382100D01*
X156114750Y-85382100D01*
X156273500Y-85223350D01*
X156273500Y-84010500D01*
X156527500Y-84010500D01*
X156527500Y-85223350D01*
X156686250Y-85382100D01*
X157390409Y-85382100D01*
X157623798Y-85285427D01*
X157802427Y-85106799D01*
X157899100Y-84873410D01*
X157899100Y-84169250D01*
X157740350Y-84010500D01*
X156527500Y-84010500D01*
X156273500Y-84010500D01*
X156253500Y-84010500D01*
X156253500Y-83756500D01*
X156273500Y-83756500D01*
X156273500Y-83736500D01*
X156527500Y-83736500D01*
X156527500Y-83756500D01*
X157740350Y-83756500D01*
X157803850Y-83693000D01*
X165985041Y-83693000D01*
X166099115Y-84266489D01*
X166423971Y-84752670D01*
X166910152Y-85077526D01*
X167483641Y-85191600D01*
X167542359Y-85191600D01*
X168115848Y-85077526D01*
X168602029Y-84752670D01*
X168783000Y-84481828D01*
X168963971Y-84752670D01*
X169450152Y-85077526D01*
X170023641Y-85191600D01*
X170082359Y-85191600D01*
X170655848Y-85077526D01*
X171142029Y-84752670D01*
X171323000Y-84481828D01*
X171503971Y-84752670D01*
X171990152Y-85077526D01*
X172563641Y-85191600D01*
X172622359Y-85191600D01*
X173195848Y-85077526D01*
X173682029Y-84752670D01*
X173863000Y-84481828D01*
X174043971Y-84752670D01*
X174530152Y-85077526D01*
X175103641Y-85191600D01*
X175162359Y-85191600D01*
X175735848Y-85077526D01*
X176222029Y-84752670D01*
X176403000Y-84481828D01*
X176583971Y-84752670D01*
X177070152Y-85077526D01*
X177643641Y-85191600D01*
X177702359Y-85191600D01*
X178275848Y-85077526D01*
X178762029Y-84752670D01*
X179086885Y-84266489D01*
X179200959Y-83693000D01*
X179086885Y-83119511D01*
X178762029Y-82633330D01*
X178447248Y-82423000D01*
X178762029Y-82212670D01*
X179086885Y-81726489D01*
X179200959Y-81153000D01*
X179086885Y-80579511D01*
X178762029Y-80093330D01*
X178275848Y-79768474D01*
X177702359Y-79654400D01*
X177643641Y-79654400D01*
X177070152Y-79768474D01*
X176583971Y-80093330D01*
X176403000Y-80364172D01*
X176222029Y-80093330D01*
X175735848Y-79768474D01*
X175162359Y-79654400D01*
X175103641Y-79654400D01*
X174530152Y-79768474D01*
X174043971Y-80093330D01*
X173863000Y-80364172D01*
X173682029Y-80093330D01*
X173195848Y-79768474D01*
X172622359Y-79654400D01*
X172563641Y-79654400D01*
X171990152Y-79768474D01*
X171503971Y-80093330D01*
X171323000Y-80364172D01*
X171142029Y-80093330D01*
X170655848Y-79768474D01*
X170082359Y-79654400D01*
X170023641Y-79654400D01*
X169450152Y-79768474D01*
X168978644Y-80083526D01*
X168914927Y-79929701D01*
X168736298Y-79751073D01*
X168502909Y-79654400D01*
X167798750Y-79654400D01*
X167640000Y-79813150D01*
X167640000Y-81026000D01*
X167660000Y-81026000D01*
X167660000Y-81280000D01*
X167640000Y-81280000D01*
X167640000Y-81300000D01*
X167386000Y-81300000D01*
X167386000Y-81280000D01*
X166173150Y-81280000D01*
X166014400Y-81438750D01*
X166014400Y-82142910D01*
X166111073Y-82376299D01*
X166289702Y-82554927D01*
X166445023Y-82619263D01*
X166423971Y-82633330D01*
X166099115Y-83119511D01*
X165985041Y-83693000D01*
X157803850Y-83693000D01*
X157899100Y-83597750D01*
X157899100Y-82893590D01*
X157802427Y-82660201D01*
X157623798Y-82481573D01*
X157468477Y-82417237D01*
X157489529Y-82403170D01*
X157814385Y-81916989D01*
X157928459Y-81343500D01*
X157814385Y-80770011D01*
X157489529Y-80283830D01*
X157308829Y-80163090D01*
X166014400Y-80163090D01*
X166014400Y-80867250D01*
X166173150Y-81026000D01*
X167386000Y-81026000D01*
X167386000Y-79813150D01*
X167227250Y-79654400D01*
X166523091Y-79654400D01*
X166289702Y-79751073D01*
X166111073Y-79929701D01*
X166014400Y-80163090D01*
X157308829Y-80163090D01*
X157003348Y-79958974D01*
X156429859Y-79844900D01*
X156371141Y-79844900D01*
X155797652Y-79958974D01*
X155311471Y-80283830D01*
X155130500Y-80554672D01*
X154949529Y-80283830D01*
X154463348Y-79958974D01*
X153889859Y-79844900D01*
X153831141Y-79844900D01*
X153257652Y-79958974D01*
X152771471Y-80283830D01*
X152590500Y-80554672D01*
X152409529Y-80283830D01*
X151923348Y-79958974D01*
X151349859Y-79844900D01*
X151291141Y-79844900D01*
X150717652Y-79958974D01*
X150231471Y-80283830D01*
X150050500Y-80554672D01*
X149869529Y-80283830D01*
X149383348Y-79958974D01*
X148809859Y-79844900D01*
X148751141Y-79844900D01*
X148177652Y-79958974D01*
X147691471Y-80283830D01*
X147510500Y-80554672D01*
X147329529Y-80283830D01*
X146843348Y-79958974D01*
X146269859Y-79844900D01*
X146211141Y-79844900D01*
X145637652Y-79958974D01*
X145151471Y-80283830D01*
X144826615Y-80770011D01*
X144712541Y-81343500D01*
X139750540Y-81343500D01*
X139750540Y-79438500D01*
X139706262Y-79203183D01*
X139567190Y-78987059D01*
X139354990Y-78842069D01*
X139103100Y-78791060D01*
X137375900Y-78791060D01*
X137140583Y-78835338D01*
X136924459Y-78974410D01*
X136779469Y-79186610D01*
X136771100Y-79227939D01*
X136759170Y-79210085D01*
X136272989Y-78885229D01*
X135699500Y-78771155D01*
X135126011Y-78885229D01*
X134639830Y-79210085D01*
X134433039Y-79519569D01*
X134061536Y-79103768D01*
X133534291Y-78849791D01*
X133518526Y-78847142D01*
X133286500Y-78968283D01*
X133032500Y-78968283D01*
X132800474Y-78847142D01*
X132784709Y-78849791D01*
X132257464Y-79103768D01*
X131867546Y-79540180D01*
X131674316Y-80092587D01*
X130416040Y-80092587D01*
X130416040Y-79336900D01*
X130371762Y-79101583D01*
X130232690Y-78885459D01*
X130020490Y-78740469D01*
X129768600Y-78689460D01*
X127533400Y-78689460D01*
X127298083Y-78733738D01*
X127081959Y-78872810D01*
X126936969Y-79085010D01*
X126885960Y-79336900D01*
X126352040Y-79336900D01*
X126307762Y-79101583D01*
X126168690Y-78885459D01*
X125956490Y-78740469D01*
X125704600Y-78689460D01*
X123469400Y-78689460D01*
X123234083Y-78733738D01*
X123017959Y-78872810D01*
X122872969Y-79085010D01*
X122821960Y-79336900D01*
X97205000Y-79336900D01*
X97205000Y-78155000D01*
X185370000Y-78155000D01*
X185370000Y-126823000D01*
M02*
