M48
;DRILL file {KiCad 4.0.2-stable} date vie 27 may 2016 01:22:15 CEST
;FORMAT={-:-/ absolute / inch / decimal}
FMAT,2
INCH,TZ
T1C0.016
T2C0.032
T3C0.040
T4C0.091
T5C0.126
%
G90
G05
M72
T1
X4.115Y-4.305
X4.1575Y-4.365
X4.2675Y-3.4375
X4.3125Y-3.505
X4.35Y-3.44
X4.5125Y-4.575
X4.515Y-4.735
X4.545Y-3.3325
X4.5475Y-3.3825
X4.5625Y-3.6075
X4.575Y-4.6575
X4.64Y-3.435
X4.64Y-3.5325
X4.645Y-3.6925
X4.65Y-4.5075
X4.6925Y-3.4975
X4.7225Y-4.35
X4.7275Y-4.8
X4.735Y-3.43
X4.7625Y-4.3825
X4.7875Y-4.5225
X4.7875Y-4.64
X4.795Y-4.7325
X4.8075Y-4.445
X4.845Y-4.5775
X4.9775Y-4.032
X4.98Y-3.96
X5.0275Y-4.485
X5.0325Y-4.39
X5.095Y-4.5225
X5.0975Y-4.645
X5.1525Y-4.58
X5.1625Y-3.315
X5.1625Y-3.395
X5.1975Y-4.43
X5.2Y-3.17
X5.2Y-4.2175
X5.2075Y-3.7125
X5.2225Y-3.3575
X5.2248Y-4.1884
X5.24Y-3.12
X5.24Y-3.215
X5.2775Y-3.59
X5.29Y-3.395
X5.2925Y-3.3225
X5.32Y-4.3975
X5.3272Y-4.0161
X5.3309Y-4.149
X5.36Y-4.275
X5.3625Y-3.2625
X5.3775Y-3.8
X5.3875Y-4.1175
X5.3975Y-3.6725
X5.4675Y-3.8175
X5.555Y-4.8025
X5.6147Y-4.3233
X5.6275Y-4.73
X5.7904Y-3.8054
X5.825Y-3.8275
X5.855Y-3.8125
X5.855Y-4.0625
X5.8568Y-3.9905
X5.8569Y-4.1074
X5.87Y-3.7525
X5.9175Y-3.7546
X6.055Y-3.8125
X6.08Y-3.69
X6.14Y-3.6304
X6.1575Y-3.3675
X6.1575Y-3.8325
X6.1599Y-4.4591
X6.1708Y-3.6238
X6.1864Y-4.4761
X6.2102Y-4.4967
X6.2225Y-3.5629
X6.225Y-3.305
X6.2372Y-4.5128
X6.27Y-3.8525
X6.2712Y-4.5136
X6.2875Y-3.5875
X6.305Y-4.52
X6.3425Y-4.5225
X6.375Y-3.6525
X6.385Y-4.5225
X6.3875Y-4.05
X6.3875Y-4.8
X6.405Y-3.8725
X6.43Y-3.8925
X6.435Y-4.0475
X6.45Y-4.0175
X6.46Y-4.735
X6.4638Y-3.9105
X6.48Y-3.9375
X6.4975Y-4.05
X6.5225Y-3.1975
X6.5925Y-3.125
X6.5975Y-4.2225
X6.62Y-4.4725
X6.74Y-4.
X6.7675Y-3.62
X6.77Y-3.4775
X6.825Y-3.925
X6.835Y-3.545
X6.89Y-3.995
X6.98Y-4.3725
X6.9875Y-4.32
X7.0075Y-4.2
X7.01Y-4.1525
X7.0175Y-4.0625
X7.085Y-4.13
X7.12Y-4.8925
X7.195Y-4.955
X7.27Y-4.89
T2
X4.3788Y-3.7963
X4.3788Y-3.8963
X4.4575Y-3.7963
X4.4575Y-3.8963
T3
X3.99Y-4.375
X3.99Y-4.475
X3.99Y-4.575
X3.99Y-4.675
X3.99Y-4.775
X4.09Y-4.375
X4.09Y-4.475
X4.09Y-4.575
X4.09Y-4.675
X4.09Y-4.775
X4.31Y-4.655
X4.41Y-4.655
X4.51Y-4.655
X4.645Y-3.6075
X4.6875Y-4.58
X4.745Y-3.6075
X4.7875Y-4.58
X4.7975Y-4.8
X4.7975Y-4.9
X4.8975Y-4.8
X4.8975Y-4.9
X4.905Y-3.1675
X4.995Y-4.58
X4.9975Y-4.8
X4.9975Y-4.9
X5.065Y-3.1675
X5.095Y-4.58
X5.0975Y-4.8
X5.0975Y-4.9
X5.1975Y-4.8
X5.1975Y-4.9
X5.2425Y-3.1675
X5.3425Y-3.1675
X5.4425Y-3.1675
X5.6275Y-4.8
X5.6275Y-4.9
X5.7275Y-4.8
X5.7275Y-4.9
X5.7575Y-3.2025
X5.7575Y-3.3025
X5.8275Y-4.8
X5.8275Y-4.9
X5.8575Y-3.2025
X5.8575Y-3.3025
X5.9275Y-4.8
X5.9275Y-4.9
X5.9575Y-3.2025
X5.9575Y-3.3025
X6.0275Y-4.8
X6.0275Y-4.9
X6.0575Y-3.2025
X6.0575Y-3.3025
X6.1575Y-3.2025
X6.1575Y-3.3025
X6.46Y-4.8
X6.46Y-4.9
X6.56Y-4.8
X6.56Y-4.9
X6.565Y-3.545
X6.595Y-3.195
X6.595Y-3.295
X6.66Y-4.8
X6.66Y-4.9
X6.665Y-3.545
X6.695Y-3.195
X6.695Y-3.295
X6.76Y-4.8
X6.76Y-4.9
X6.765Y-3.545
X6.795Y-3.195
X6.795Y-3.295
X6.815Y-3.995
X6.815Y-4.095
X6.815Y-4.195
X6.86Y-4.8
X6.86Y-4.9
X6.8725Y-4.5225
X6.895Y-3.195
X6.895Y-3.295
X6.995Y-3.195
X6.995Y-3.295
X7.085Y-3.6625
X7.085Y-3.7625
X7.085Y-3.8625
X7.085Y-3.9625
X7.085Y-4.0625
X7.185Y-3.6625
X7.185Y-3.7625
X7.185Y-3.8625
X7.185Y-3.9625
X7.185Y-4.0625
X7.195Y-4.69
X7.195Y-4.79
X7.195Y-4.89
T4
X4.2725Y-3.6101
X4.2725Y-4.0825
T5
X4.03Y-3.38
X4.4025Y-4.86
X7.135Y-4.46
T0
M30
