%FSLAX45Y45*%
G04 Gerber Fmt 4.5, Leading zero omitted, Abs format (unit mm)*
G04 Created by KiCad (PCBNEW 4.0.2-stable) date vie 27 may 2016 01:22:39 CEST*
%MOMM*%
G01*
G04 APERTURE LIST*
%ADD10C,0.127000*%
%ADD11C,0.100000*%
%ADD12C,0.200000*%
%ADD13C,0.300000*%
G04 APERTURE END LIST*
D10*
D11*
X9652000Y-7747000D02*
X9652000Y-12750800D01*
X18605500Y-7747000D02*
X9652000Y-7747000D01*
X18605500Y-12750800D02*
X18605500Y-7747000D01*
X9652000Y-12750800D02*
X18605500Y-12750800D01*
D12*
X10432100Y-10914700D02*
X10472100Y-10954700D01*
X10472100Y-10914700D02*
X10432100Y-10954700D01*
X10540050Y-11067100D02*
X10580050Y-11107100D01*
X10580050Y-11067100D02*
X10540050Y-11107100D01*
X10819450Y-8711250D02*
X10859450Y-8751250D01*
X10859450Y-8711250D02*
X10819450Y-8751250D01*
X10933750Y-8882700D02*
X10973750Y-8922700D01*
X10973750Y-8882700D02*
X10933750Y-8922700D01*
X11029000Y-8717600D02*
X11069000Y-8757600D01*
X11069000Y-8717600D02*
X11029000Y-8757600D01*
X11441750Y-11600500D02*
X11481750Y-11640500D01*
X11481750Y-11600500D02*
X11441750Y-11640500D01*
X11448100Y-12006900D02*
X11488100Y-12046900D01*
X11488100Y-12006900D02*
X11448100Y-12046900D01*
X11524300Y-8444550D02*
X11564300Y-8484550D01*
X11564300Y-8444550D02*
X11524300Y-8484550D01*
X11530650Y-8571550D02*
X11570650Y-8611550D01*
X11570650Y-8571550D02*
X11530650Y-8611550D01*
X11568750Y-9143050D02*
X11608750Y-9183050D01*
X11608750Y-9143050D02*
X11568750Y-9183050D01*
X11600500Y-11810050D02*
X11640500Y-11850050D01*
X11640500Y-11810050D02*
X11600500Y-11850050D01*
X11765600Y-8704900D02*
X11805600Y-8744900D01*
X11805600Y-8704900D02*
X11765600Y-8744900D01*
X11765600Y-8952550D02*
X11805600Y-8992550D01*
X11805600Y-8952550D02*
X11765600Y-8992550D01*
X11778300Y-9358950D02*
X11818300Y-9398950D01*
X11818300Y-9358950D02*
X11778300Y-9398950D01*
X11791000Y-11429050D02*
X11831000Y-11469050D01*
X11831000Y-11429050D02*
X11791000Y-11469050D01*
X11898950Y-8863650D02*
X11938950Y-8903650D01*
X11938950Y-8863650D02*
X11898950Y-8903650D01*
X11975150Y-11029000D02*
X12015150Y-11069000D01*
X12015150Y-11029000D02*
X11975150Y-11069000D01*
X11987850Y-12172000D02*
X12027850Y-12212000D01*
X12027850Y-12172000D02*
X11987850Y-12212000D01*
X12006900Y-8692200D02*
X12046900Y-8732200D01*
X12046900Y-8692200D02*
X12006900Y-8732200D01*
X12076750Y-11111550D02*
X12116750Y-11151550D01*
X12116750Y-11111550D02*
X12076750Y-11151550D01*
X12140250Y-11467150D02*
X12180250Y-11507150D01*
X12180250Y-11467150D02*
X12140250Y-11507150D01*
X12140250Y-11765600D02*
X12180250Y-11805600D01*
X12180250Y-11765600D02*
X12140250Y-11805600D01*
X12159300Y-12000550D02*
X12199300Y-12040550D01*
X12199300Y-12000550D02*
X12159300Y-12040550D01*
X12191050Y-11270300D02*
X12231050Y-11310300D01*
X12231050Y-11270300D02*
X12191050Y-11310300D01*
X12286300Y-11606850D02*
X12326300Y-11646850D01*
X12326300Y-11606850D02*
X12286300Y-11646850D01*
X12622850Y-10221344D02*
X12662850Y-10261344D01*
X12662850Y-10221344D02*
X12622850Y-10261344D01*
X12629200Y-10038400D02*
X12669200Y-10078400D01*
X12669200Y-10038400D02*
X12629200Y-10078400D01*
X12749850Y-11371900D02*
X12789850Y-11411900D01*
X12789850Y-11371900D02*
X12749850Y-11411900D01*
X12762550Y-11130600D02*
X12802550Y-11170600D01*
X12802550Y-11130600D02*
X12762550Y-11170600D01*
X12921300Y-11467150D02*
X12961300Y-11507150D01*
X12961300Y-11467150D02*
X12921300Y-11507150D01*
X12927650Y-11778300D02*
X12967650Y-11818300D01*
X12967650Y-11778300D02*
X12927650Y-11818300D01*
X13067350Y-11613200D02*
X13107350Y-11653200D01*
X13107350Y-11613200D02*
X13067350Y-11653200D01*
X13092750Y-8400100D02*
X13132750Y-8440100D01*
X13132750Y-8400100D02*
X13092750Y-8440100D01*
X13092750Y-8603300D02*
X13132750Y-8643300D01*
X13132750Y-8603300D02*
X13092750Y-8643300D01*
X13181650Y-11232200D02*
X13221650Y-11272200D01*
X13221650Y-11232200D02*
X13181650Y-11272200D01*
X13188000Y-8031800D02*
X13228000Y-8071800D01*
X13228000Y-8031800D02*
X13188000Y-8071800D01*
X13188000Y-10692450D02*
X13228000Y-10732450D01*
X13228000Y-10692450D02*
X13188000Y-10732450D01*
X13207050Y-9409750D02*
X13247050Y-9449750D01*
X13247050Y-9409750D02*
X13207050Y-9449750D01*
X13245150Y-8508050D02*
X13285150Y-8548050D01*
X13285150Y-8508050D02*
X13245150Y-8548050D01*
X13251015Y-10618438D02*
X13291015Y-10658438D01*
X13291015Y-10618438D02*
X13251015Y-10658438D01*
X13289600Y-7904800D02*
X13329600Y-7944800D01*
X13329600Y-7904800D02*
X13289600Y-7944800D01*
X13289600Y-8146100D02*
X13329600Y-8186100D01*
X13329600Y-8146100D02*
X13289600Y-8186100D01*
X13384850Y-9098600D02*
X13424850Y-9138600D01*
X13424850Y-9098600D02*
X13384850Y-9138600D01*
X13416600Y-8603300D02*
X13456600Y-8643300D01*
X13456600Y-8603300D02*
X13416600Y-8643300D01*
X13422950Y-8419150D02*
X13462950Y-8459150D01*
X13462950Y-8419150D02*
X13422950Y-8459150D01*
X13492800Y-11149650D02*
X13532800Y-11189650D01*
X13532800Y-11149650D02*
X13492800Y-11189650D01*
X13510999Y-10180940D02*
X13550999Y-10220940D01*
X13550999Y-10180940D02*
X13510999Y-10220940D01*
X13520435Y-10518438D02*
X13560435Y-10558438D01*
X13560435Y-10518438D02*
X13520435Y-10558438D01*
X13594400Y-10838500D02*
X13634400Y-10878500D01*
X13634400Y-10838500D02*
X13594400Y-10878500D01*
X13600750Y-8266750D02*
X13640750Y-8306750D01*
X13640750Y-8266750D02*
X13600750Y-8306750D01*
X13638850Y-9632000D02*
X13678850Y-9672000D01*
X13678850Y-9632000D02*
X13638850Y-9672000D01*
X13664250Y-10438450D02*
X13704250Y-10478450D01*
X13704250Y-10438450D02*
X13664250Y-10478450D01*
X13689650Y-9308150D02*
X13729650Y-9348150D01*
X13729650Y-9308150D02*
X13689650Y-9348150D01*
X13867450Y-9676450D02*
X13907450Y-9716450D01*
X13907450Y-9676450D02*
X13867450Y-9716450D01*
X14089700Y-12178350D02*
X14129700Y-12218350D01*
X14129700Y-12178350D02*
X14089700Y-12218350D01*
X14241300Y-10961241D02*
X14281300Y-11001241D01*
X14281300Y-10961241D02*
X14241300Y-11001241D01*
X14273850Y-11994200D02*
X14313850Y-12034200D01*
X14313850Y-11994200D02*
X14273850Y-12034200D01*
X14687714Y-9645698D02*
X14727714Y-9685698D01*
X14727714Y-9645698D02*
X14687714Y-9685698D01*
X14775500Y-9701850D02*
X14815500Y-9741850D01*
X14815500Y-9701850D02*
X14775500Y-9741850D01*
X14851700Y-9663750D02*
X14891700Y-9703750D01*
X14891700Y-9663750D02*
X14851700Y-9703750D01*
X14851700Y-10298750D02*
X14891700Y-10338750D01*
X14891700Y-10298750D02*
X14851700Y-10338750D01*
X14856311Y-10115829D02*
X14896311Y-10155829D01*
X14896311Y-10115829D02*
X14856311Y-10155829D01*
X14856461Y-10412922D02*
X14896461Y-10452922D01*
X14896461Y-10412922D02*
X14856461Y-10452922D01*
X14889800Y-9511350D02*
X14929800Y-9551350D01*
X14929800Y-9511350D02*
X14889800Y-9551350D01*
X15010450Y-9516702D02*
X15050450Y-9556702D01*
X15050450Y-9516702D02*
X15010450Y-9556702D01*
X15359700Y-9663750D02*
X15399700Y-9703750D01*
X15399700Y-9663750D02*
X15359700Y-9703750D01*
X15423200Y-9352600D02*
X15463200Y-9392600D01*
X15463200Y-9352600D02*
X15423200Y-9392600D01*
X15575600Y-9201198D02*
X15615600Y-9241198D01*
X15615600Y-9201198D02*
X15575600Y-9241198D01*
X15620050Y-8533450D02*
X15660050Y-8573450D01*
X15660050Y-8533450D02*
X15620050Y-8573450D01*
X15620050Y-9714550D02*
X15660050Y-9754550D01*
X15660050Y-9714550D02*
X15620050Y-9754550D01*
X15626027Y-11306081D02*
X15666027Y-11346081D01*
X15666027Y-11306081D02*
X15626027Y-11346081D01*
X15653839Y-9184499D02*
X15693839Y-9224499D01*
X15693839Y-9184499D02*
X15653839Y-9224499D01*
X15693384Y-11349246D02*
X15733384Y-11389246D01*
X15733384Y-11349246D02*
X15693384Y-11389246D01*
X15753839Y-11401642D02*
X15793839Y-11441642D01*
X15793839Y-11401642D02*
X15753839Y-11441642D01*
X15785150Y-9029748D02*
X15825150Y-9069748D01*
X15825150Y-9029748D02*
X15785150Y-9069748D01*
X15791500Y-8374700D02*
X15831500Y-8414700D01*
X15831500Y-8374700D02*
X15791500Y-8414700D01*
X15822613Y-11442511D02*
X15862613Y-11482511D01*
X15862613Y-11442511D02*
X15822613Y-11482511D01*
X15905800Y-9765350D02*
X15945800Y-9805350D01*
X15945800Y-9765350D02*
X15905800Y-9805350D01*
X15908944Y-11444572D02*
X15948944Y-11484572D01*
X15948944Y-11444572D02*
X15908944Y-11484572D01*
X15950250Y-9092250D02*
X15990250Y-9132250D01*
X15990250Y-9092250D02*
X15950250Y-9132250D01*
X15994700Y-11460800D02*
X16034700Y-11500800D01*
X16034700Y-11460800D02*
X15994700Y-11500800D01*
X16089950Y-11467150D02*
X16129950Y-11507150D01*
X16129950Y-11467150D02*
X16089950Y-11507150D01*
X16172500Y-9257350D02*
X16212500Y-9297350D01*
X16212500Y-9257350D02*
X16172500Y-9297350D01*
X16197900Y-11467150D02*
X16237900Y-11507150D01*
X16237900Y-11467150D02*
X16197900Y-11507150D01*
X16204250Y-10267000D02*
X16244250Y-10307000D01*
X16244250Y-10267000D02*
X16204250Y-10307000D01*
X16204250Y-12172000D02*
X16244250Y-12212000D01*
X16244250Y-12172000D02*
X16204250Y-12212000D01*
X16248700Y-9816150D02*
X16288700Y-9856150D01*
X16288700Y-9816150D02*
X16248700Y-9856150D01*
X16312200Y-9866950D02*
X16352200Y-9906950D01*
X16352200Y-9866950D02*
X16312200Y-9906950D01*
X16324900Y-10260650D02*
X16364900Y-10300650D01*
X16364900Y-10260650D02*
X16324900Y-10300650D01*
X16363000Y-10184450D02*
X16403000Y-10224450D01*
X16403000Y-10184450D02*
X16363000Y-10224450D01*
X16388400Y-12006900D02*
X16428400Y-12046900D01*
X16428400Y-12006900D02*
X16388400Y-12046900D01*
X16398040Y-9912650D02*
X16438040Y-9952650D01*
X16438040Y-9912650D02*
X16398040Y-9952650D01*
X16439200Y-9981250D02*
X16479200Y-10021250D01*
X16479200Y-9981250D02*
X16439200Y-10021250D01*
X16483650Y-10267000D02*
X16523650Y-10307000D01*
X16523650Y-10267000D02*
X16483650Y-10307000D01*
X16547150Y-8101650D02*
X16587150Y-8141650D01*
X16587150Y-8101650D02*
X16547150Y-8141650D01*
X16724950Y-7917500D02*
X16764950Y-7957500D01*
X16764950Y-7917500D02*
X16724950Y-7957500D01*
X16737650Y-10705150D02*
X16777650Y-10745150D01*
X16777650Y-10705150D02*
X16737650Y-10745150D01*
X16794800Y-11340150D02*
X16834800Y-11380150D01*
X16834800Y-11340150D02*
X16794800Y-11380150D01*
X17099600Y-10140000D02*
X17139600Y-10180000D01*
X17139600Y-10140000D02*
X17099600Y-10180000D01*
X17169450Y-9174800D02*
X17209450Y-9214800D01*
X17209450Y-9174800D02*
X17169450Y-9214800D01*
X17175800Y-8812850D02*
X17215800Y-8852850D01*
X17215800Y-8812850D02*
X17175800Y-8852850D01*
X17315500Y-9949500D02*
X17355500Y-9989500D01*
X17355500Y-9949500D02*
X17315500Y-9989500D01*
X17340900Y-8984300D02*
X17380900Y-9024300D01*
X17380900Y-8984300D02*
X17340900Y-9024300D01*
X17480600Y-10127300D02*
X17520600Y-10167300D01*
X17520600Y-10127300D02*
X17480600Y-10167300D01*
X17709200Y-11086150D02*
X17749200Y-11126150D01*
X17749200Y-11086150D02*
X17709200Y-11126150D01*
X17728250Y-10952800D02*
X17768250Y-10992800D01*
X17768250Y-10952800D02*
X17728250Y-10992800D01*
X17779050Y-10648000D02*
X17819050Y-10688000D01*
X17819050Y-10648000D02*
X17779050Y-10688000D01*
X17785400Y-10527350D02*
X17825400Y-10567350D01*
X17825400Y-10527350D02*
X17785400Y-10567350D01*
X17804450Y-10298750D02*
X17844450Y-10338750D01*
X17844450Y-10298750D02*
X17804450Y-10338750D01*
X17975900Y-10470200D02*
X18015900Y-10510200D01*
X18015900Y-10470200D02*
X17975900Y-10510200D01*
X18064800Y-12406950D02*
X18104800Y-12446950D01*
X18104800Y-12406950D02*
X18064800Y-12446950D01*
X18255300Y-12565700D02*
X18295300Y-12605700D01*
X18295300Y-12565700D02*
X18255300Y-12605700D01*
X18445800Y-12400600D02*
X18485800Y-12440600D01*
X18485800Y-12400600D02*
X18445800Y-12440600D01*
X11162792Y-9642602D02*
G75*
G03X11162792Y-9642602I-40640J0D01*
G01*
X11162792Y-9896602D02*
G75*
G03X11162792Y-9896602I-40640J0D01*
G01*
X11362690Y-9642602D02*
G75*
G03X11362690Y-9642602I-40640J0D01*
G01*
X11362690Y-9896602D02*
G75*
G03X11362690Y-9896602I-40640J0D01*
G01*
X10134600Y-11061700D02*
X10134600Y-11163300D01*
X10083800Y-11112500D02*
X10185400Y-11112500D01*
X10134600Y-11315700D02*
X10134600Y-11417300D01*
X10083800Y-11366500D02*
X10185400Y-11366500D01*
X10134600Y-11569700D02*
X10134600Y-11671300D01*
X10083800Y-11620500D02*
X10185400Y-11620500D01*
X10134600Y-11823700D02*
X10134600Y-11925300D01*
X10083800Y-11874500D02*
X10185400Y-11874500D01*
X10134600Y-12077700D02*
X10134600Y-12179300D01*
X10083800Y-12128500D02*
X10185400Y-12128500D01*
X10388600Y-11061700D02*
X10388600Y-11163300D01*
X10337800Y-11112500D02*
X10439400Y-11112500D01*
X10388600Y-11315700D02*
X10388600Y-11417300D01*
X10337800Y-11366500D02*
X10439400Y-11366500D01*
X10388600Y-11569700D02*
X10388600Y-11671300D01*
X10337800Y-11620500D02*
X10439400Y-11620500D01*
X10388600Y-11823700D02*
X10388600Y-11925300D01*
X10337800Y-11874500D02*
X10439400Y-11874500D01*
X10388600Y-12077700D02*
X10388600Y-12179300D01*
X10337800Y-12128500D02*
X10439400Y-12128500D01*
X10947400Y-11772900D02*
X10947400Y-11874500D01*
X10896600Y-11823700D02*
X10998200Y-11823700D01*
X11201400Y-11772900D02*
X11201400Y-11874500D01*
X11150600Y-11823700D02*
X11252200Y-11823700D01*
X11455400Y-11772900D02*
X11455400Y-11874500D01*
X11404600Y-11823700D02*
X11506200Y-11823700D01*
X11798300Y-9112250D02*
X11798300Y-9213850D01*
X11747500Y-9163050D02*
X11849100Y-9163050D01*
X11906250Y-11582400D02*
X11906250Y-11684000D01*
X11855450Y-11633200D02*
X11957050Y-11633200D01*
X12052300Y-9112250D02*
X12052300Y-9213850D01*
X12001500Y-9163050D02*
X12103100Y-9163050D01*
X12160250Y-11582400D02*
X12160250Y-11684000D01*
X12109450Y-11633200D02*
X12211050Y-11633200D01*
X12185650Y-12141200D02*
X12185650Y-12242800D01*
X12134850Y-12192000D02*
X12236450Y-12192000D01*
X12185650Y-12395200D02*
X12185650Y-12496800D01*
X12134850Y-12446000D02*
X12236450Y-12446000D01*
X12439650Y-12141200D02*
X12439650Y-12242800D01*
X12388850Y-12192000D02*
X12490450Y-12192000D01*
X12439650Y-12395200D02*
X12439650Y-12496800D01*
X12388850Y-12446000D02*
X12490450Y-12446000D01*
X12458700Y-7994650D02*
X12458700Y-8096250D01*
X12407900Y-8045450D02*
X12509500Y-8045450D01*
X12687300Y-11582400D02*
X12687300Y-11684000D01*
X12636500Y-11633200D02*
X12738100Y-11633200D01*
X12693650Y-12141200D02*
X12693650Y-12242800D01*
X12642850Y-12192000D02*
X12744450Y-12192000D01*
X12693650Y-12395200D02*
X12693650Y-12496800D01*
X12642850Y-12446000D02*
X12744450Y-12446000D01*
X12865100Y-7994650D02*
X12865100Y-8096250D01*
X12814300Y-8045450D02*
X12915900Y-8045450D01*
X12941300Y-11582400D02*
X12941300Y-11684000D01*
X12890500Y-11633200D02*
X12992100Y-11633200D01*
X12947650Y-12141200D02*
X12947650Y-12242800D01*
X12896850Y-12192000D02*
X12998450Y-12192000D01*
X12947650Y-12395200D02*
X12947650Y-12496800D01*
X12896850Y-12446000D02*
X12998450Y-12446000D01*
X13201650Y-12141200D02*
X13201650Y-12242800D01*
X13150850Y-12192000D02*
X13252450Y-12192000D01*
X13201650Y-12395200D02*
X13201650Y-12496800D01*
X13150850Y-12446000D02*
X13252450Y-12446000D01*
X13315950Y-7994650D02*
X13315950Y-8096250D01*
X13265150Y-8045450D02*
X13366750Y-8045450D01*
X13569950Y-7994650D02*
X13569950Y-8096250D01*
X13519150Y-8045450D02*
X13620750Y-8045450D01*
X13823950Y-7994650D02*
X13823950Y-8096250D01*
X13773150Y-8045450D02*
X13874750Y-8045450D01*
X14293850Y-12141200D02*
X14293850Y-12242800D01*
X14243050Y-12192000D02*
X14344650Y-12192000D01*
X14293850Y-12395200D02*
X14293850Y-12496800D01*
X14243050Y-12446000D02*
X14344650Y-12446000D01*
X14547850Y-12141200D02*
X14547850Y-12242800D01*
X14497050Y-12192000D02*
X14598650Y-12192000D01*
X14547850Y-12395200D02*
X14547850Y-12496800D01*
X14497050Y-12446000D02*
X14598650Y-12446000D01*
X14624050Y-8083550D02*
X14624050Y-8185150D01*
X14573250Y-8134350D02*
X14674850Y-8134350D01*
X14624050Y-8337550D02*
X14624050Y-8439150D01*
X14573250Y-8388350D02*
X14674850Y-8388350D01*
X14801850Y-12141200D02*
X14801850Y-12242800D01*
X14751050Y-12192000D02*
X14852650Y-12192000D01*
X14801850Y-12395200D02*
X14801850Y-12496800D01*
X14751050Y-12446000D02*
X14852650Y-12446000D01*
X14878050Y-8083550D02*
X14878050Y-8185150D01*
X14827250Y-8134350D02*
X14928850Y-8134350D01*
X14878050Y-8337550D02*
X14878050Y-8439150D01*
X14827250Y-8388350D02*
X14928850Y-8388350D01*
X15055850Y-12141200D02*
X15055850Y-12242800D01*
X15005050Y-12192000D02*
X15106650Y-12192000D01*
X15055850Y-12395200D02*
X15055850Y-12496800D01*
X15005050Y-12446000D02*
X15106650Y-12446000D01*
X15132050Y-8083550D02*
X15132050Y-8185150D01*
X15081250Y-8134350D02*
X15182850Y-8134350D01*
X15132050Y-8337550D02*
X15132050Y-8439150D01*
X15081250Y-8388350D02*
X15182850Y-8388350D01*
X15309850Y-12141200D02*
X15309850Y-12242800D01*
X15259050Y-12192000D02*
X15360650Y-12192000D01*
X15309850Y-12395200D02*
X15309850Y-12496800D01*
X15259050Y-12446000D02*
X15360650Y-12446000D01*
X15386050Y-8083550D02*
X15386050Y-8185150D01*
X15335250Y-8134350D02*
X15436850Y-8134350D01*
X15386050Y-8337550D02*
X15386050Y-8439150D01*
X15335250Y-8388350D02*
X15436850Y-8388350D01*
X15640050Y-8083550D02*
X15640050Y-8185150D01*
X15589250Y-8134350D02*
X15690850Y-8134350D01*
X15640050Y-8337550D02*
X15640050Y-8439150D01*
X15589250Y-8388350D02*
X15690850Y-8388350D01*
X16408400Y-12141200D02*
X16408400Y-12242800D01*
X16357600Y-12192000D02*
X16459200Y-12192000D01*
X16408400Y-12395200D02*
X16408400Y-12496800D01*
X16357600Y-12446000D02*
X16459200Y-12446000D01*
X16662400Y-12141200D02*
X16662400Y-12242800D01*
X16611600Y-12192000D02*
X16713200Y-12192000D01*
X16662400Y-12395200D02*
X16662400Y-12496800D01*
X16611600Y-12446000D02*
X16713200Y-12446000D01*
X16675100Y-8953500D02*
X16675100Y-9055100D01*
X16624300Y-9004300D02*
X16725900Y-9004300D01*
X16751300Y-8064500D02*
X16751300Y-8166100D01*
X16700500Y-8115300D02*
X16802100Y-8115300D01*
X16751300Y-8318500D02*
X16751300Y-8420100D01*
X16700500Y-8369300D02*
X16802100Y-8369300D01*
X16916400Y-12141200D02*
X16916400Y-12242800D01*
X16865600Y-12192000D02*
X16967200Y-12192000D01*
X16916400Y-12395200D02*
X16916400Y-12496800D01*
X16865600Y-12446000D02*
X16967200Y-12446000D01*
X16929100Y-8953500D02*
X16929100Y-9055100D01*
X16878300Y-9004300D02*
X16979900Y-9004300D01*
X17005300Y-8064500D02*
X17005300Y-8166100D01*
X16954500Y-8115300D02*
X17056100Y-8115300D01*
X17005300Y-8318500D02*
X17005300Y-8420100D01*
X16954500Y-8369300D02*
X17056100Y-8369300D01*
X17170400Y-12141200D02*
X17170400Y-12242800D01*
X17119600Y-12192000D02*
X17221200Y-12192000D01*
X17170400Y-12395200D02*
X17170400Y-12496800D01*
X17119600Y-12446000D02*
X17221200Y-12446000D01*
X17183100Y-8953500D02*
X17183100Y-9055100D01*
X17132300Y-9004300D02*
X17233900Y-9004300D01*
X17259300Y-8064500D02*
X17259300Y-8166100D01*
X17208500Y-8115300D02*
X17310100Y-8115300D01*
X17259300Y-8318500D02*
X17259300Y-8420100D01*
X17208500Y-8369300D02*
X17310100Y-8369300D01*
X17310100Y-10096500D02*
X17310100Y-10198100D01*
X17259300Y-10147300D02*
X17360900Y-10147300D01*
X17310100Y-10350500D02*
X17310100Y-10452100D01*
X17259300Y-10401300D02*
X17360900Y-10401300D01*
X17310100Y-10604500D02*
X17310100Y-10706100D01*
X17259300Y-10655300D02*
X17360900Y-10655300D01*
X17424400Y-12141200D02*
X17424400Y-12242800D01*
X17373600Y-12192000D02*
X17475200Y-12192000D01*
X17424400Y-12395200D02*
X17424400Y-12496800D01*
X17373600Y-12446000D02*
X17475200Y-12446000D01*
X17456150Y-11436350D02*
X17456150Y-11537950D01*
X17405350Y-11487150D02*
X17506950Y-11487150D01*
X17513300Y-8064500D02*
X17513300Y-8166100D01*
X17462500Y-8115300D02*
X17564100Y-8115300D01*
X17513300Y-8318500D02*
X17513300Y-8420100D01*
X17462500Y-8369300D02*
X17564100Y-8369300D01*
X17767300Y-8064500D02*
X17767300Y-8166100D01*
X17716500Y-8115300D02*
X17818100Y-8115300D01*
X17767300Y-8318500D02*
X17767300Y-8420100D01*
X17716500Y-8369300D02*
X17818100Y-8369300D01*
X17995900Y-9251950D02*
X17995900Y-9353550D01*
X17945100Y-9302750D02*
X18046700Y-9302750D01*
X17995900Y-9505950D02*
X17995900Y-9607550D01*
X17945100Y-9556750D02*
X18046700Y-9556750D01*
X17995900Y-9759950D02*
X17995900Y-9861550D01*
X17945100Y-9810750D02*
X18046700Y-9810750D01*
X17995900Y-10013950D02*
X17995900Y-10115550D01*
X17945100Y-10064750D02*
X18046700Y-10064750D01*
X17995900Y-10267950D02*
X17995900Y-10369550D01*
X17945100Y-10318750D02*
X18046700Y-10318750D01*
X18249900Y-9251950D02*
X18249900Y-9353550D01*
X18199100Y-9302750D02*
X18300700Y-9302750D01*
X18249900Y-9505950D02*
X18249900Y-9607550D01*
X18199100Y-9556750D02*
X18300700Y-9556750D01*
X18249900Y-9759950D02*
X18249900Y-9861550D01*
X18199100Y-9810750D02*
X18300700Y-9810750D01*
X18249900Y-10013950D02*
X18249900Y-10115550D01*
X18199100Y-10064750D02*
X18300700Y-10064750D01*
X18249900Y-10267950D02*
X18249900Y-10369550D01*
X18199100Y-10318750D02*
X18300700Y-10318750D01*
X18275300Y-11861800D02*
X18275300Y-11963400D01*
X18224500Y-11912600D02*
X18326100Y-11912600D01*
X18275300Y-12115800D02*
X18275300Y-12217400D01*
X18224500Y-12166600D02*
X18326100Y-12166600D01*
X18275300Y-12369800D02*
X18275300Y-12471400D01*
X18224500Y-12420600D02*
X18326100Y-12420600D01*
X10933512Y-9251016D02*
X10933512Y-9088292D01*
X10770788Y-9088292D01*
X10770788Y-9251016D01*
X10933512Y-9251016D01*
X10933512Y-10450912D02*
X10933512Y-10288188D01*
X10770788Y-10288188D01*
X10770788Y-10450912D01*
X10933512Y-10450912D01*
X10236200Y-8745200D02*
X10396200Y-8585200D01*
X10236200Y-8425200D01*
X10076200Y-8585200D01*
X10236200Y-8745200D01*
X11182350Y-12504400D02*
X11342350Y-12344400D01*
X11182350Y-12184400D01*
X11022350Y-12344400D01*
X11182350Y-12504400D01*
X18122900Y-11488400D02*
X18282900Y-11328400D01*
X18122900Y-11168400D01*
X17962900Y-11328400D01*
X18122900Y-11488400D01*
D13*
X9918429Y-13221514D02*
X9918429Y-12921514D01*
X9989857Y-12921514D01*
X10032714Y-12935800D01*
X10061286Y-12964371D01*
X10075571Y-12992943D01*
X10089857Y-13050086D01*
X10089857Y-13092943D01*
X10075571Y-13150086D01*
X10061286Y-13178657D01*
X10032714Y-13207229D01*
X9989857Y-13221514D01*
X9918429Y-13221514D01*
X10218429Y-13221514D02*
X10218429Y-13021514D01*
X10218429Y-13078657D02*
X10232714Y-13050086D01*
X10247000Y-13035800D01*
X10275571Y-13021514D01*
X10304143Y-13021514D01*
X10404143Y-13221514D02*
X10404143Y-13021514D01*
X10404143Y-12921514D02*
X10389857Y-12935800D01*
X10404143Y-12950086D01*
X10418429Y-12935800D01*
X10404143Y-12921514D01*
X10404143Y-12950086D01*
X10589857Y-13221514D02*
X10561286Y-13207229D01*
X10547000Y-13178657D01*
X10547000Y-12921514D01*
X10747000Y-13221514D02*
X10718429Y-13207229D01*
X10704143Y-13178657D01*
X10704143Y-12921514D01*
X11089857Y-13221514D02*
X11089857Y-12921514D01*
X11189857Y-13135800D01*
X11289857Y-12921514D01*
X11289857Y-13221514D01*
X11561286Y-13221514D02*
X11561286Y-13064371D01*
X11547000Y-13035800D01*
X11518428Y-13021514D01*
X11461286Y-13021514D01*
X11432714Y-13035800D01*
X11561286Y-13207229D02*
X11532714Y-13221514D01*
X11461286Y-13221514D01*
X11432714Y-13207229D01*
X11418428Y-13178657D01*
X11418428Y-13150086D01*
X11432714Y-13121514D01*
X11461286Y-13107229D01*
X11532714Y-13107229D01*
X11561286Y-13092943D01*
X11704143Y-13021514D02*
X11704143Y-13321514D01*
X11704143Y-13035800D02*
X11732714Y-13021514D01*
X11789857Y-13021514D01*
X11818428Y-13035800D01*
X11832714Y-13050086D01*
X11847000Y-13078657D01*
X11847000Y-13164371D01*
X11832714Y-13192943D01*
X11818428Y-13207229D01*
X11789857Y-13221514D01*
X11732714Y-13221514D01*
X11704143Y-13207229D01*
X11975571Y-13192943D02*
X11989857Y-13207229D01*
X11975571Y-13221514D01*
X11961286Y-13207229D01*
X11975571Y-13192943D01*
X11975571Y-13221514D01*
X11975571Y-13035800D02*
X11989857Y-13050086D01*
X11975571Y-13064371D01*
X11961286Y-13050086D01*
X11975571Y-13035800D01*
X11975571Y-13064371D01*
X9607000Y-13695800D02*
X9647000Y-13735800D01*
X9647000Y-13695800D02*
X9607000Y-13735800D01*
X9975571Y-13551514D02*
X10004143Y-13551514D01*
X10032714Y-13565800D01*
X10047000Y-13580086D01*
X10061286Y-13608657D01*
X10075571Y-13665800D01*
X10075571Y-13737229D01*
X10061286Y-13794371D01*
X10047000Y-13822943D01*
X10032714Y-13837229D01*
X10004143Y-13851514D01*
X9975571Y-13851514D01*
X9947000Y-13837229D01*
X9932714Y-13822943D01*
X9918429Y-13794371D01*
X9904143Y-13737229D01*
X9904143Y-13665800D01*
X9918429Y-13608657D01*
X9932714Y-13580086D01*
X9947000Y-13565800D01*
X9975571Y-13551514D01*
X10204143Y-13822943D02*
X10218429Y-13837229D01*
X10204143Y-13851514D01*
X10189857Y-13837229D01*
X10204143Y-13822943D01*
X10204143Y-13851514D01*
X10475571Y-13651514D02*
X10475571Y-13851514D01*
X10404143Y-13537229D02*
X10332714Y-13751514D01*
X10518428Y-13751514D01*
X10689857Y-13551514D02*
X10718429Y-13551514D01*
X10747000Y-13565800D01*
X10761286Y-13580086D01*
X10775571Y-13608657D01*
X10789857Y-13665800D01*
X10789857Y-13737229D01*
X10775571Y-13794371D01*
X10761286Y-13822943D01*
X10747000Y-13837229D01*
X10718429Y-13851514D01*
X10689857Y-13851514D01*
X10661286Y-13837229D01*
X10647000Y-13822943D01*
X10632714Y-13794371D01*
X10618429Y-13737229D01*
X10618429Y-13665800D01*
X10632714Y-13608657D01*
X10647000Y-13580086D01*
X10661286Y-13565800D01*
X10689857Y-13551514D01*
X10918429Y-13851514D02*
X10918429Y-13651514D01*
X10918429Y-13680086D02*
X10932714Y-13665800D01*
X10961286Y-13651514D01*
X11004143Y-13651514D01*
X11032714Y-13665800D01*
X11047000Y-13694371D01*
X11047000Y-13851514D01*
X11047000Y-13694371D02*
X11061286Y-13665800D01*
X11089857Y-13651514D01*
X11132714Y-13651514D01*
X11161286Y-13665800D01*
X11175571Y-13694371D01*
X11175571Y-13851514D01*
X11318428Y-13851514D02*
X11318428Y-13651514D01*
X11318428Y-13680086D02*
X11332714Y-13665800D01*
X11361286Y-13651514D01*
X11404143Y-13651514D01*
X11432714Y-13665800D01*
X11447000Y-13694371D01*
X11447000Y-13851514D01*
X11447000Y-13694371D02*
X11461286Y-13665800D01*
X11489857Y-13651514D01*
X11532714Y-13651514D01*
X11561286Y-13665800D01*
X11575571Y-13694371D01*
X11575571Y-13851514D01*
X12161286Y-13537229D02*
X11904143Y-13922943D01*
X12547000Y-13551514D02*
X12575571Y-13551514D01*
X12604143Y-13565800D01*
X12618428Y-13580086D01*
X12632714Y-13608657D01*
X12647000Y-13665800D01*
X12647000Y-13737229D01*
X12632714Y-13794371D01*
X12618428Y-13822943D01*
X12604143Y-13837229D01*
X12575571Y-13851514D01*
X12547000Y-13851514D01*
X12518428Y-13837229D01*
X12504143Y-13822943D01*
X12489857Y-13794371D01*
X12475571Y-13737229D01*
X12475571Y-13665800D01*
X12489857Y-13608657D01*
X12504143Y-13580086D01*
X12518428Y-13565800D01*
X12547000Y-13551514D01*
X12775571Y-13822943D02*
X12789857Y-13837229D01*
X12775571Y-13851514D01*
X12761286Y-13837229D01*
X12775571Y-13822943D01*
X12775571Y-13851514D01*
X12975571Y-13551514D02*
X13004143Y-13551514D01*
X13032714Y-13565800D01*
X13047000Y-13580086D01*
X13061285Y-13608657D01*
X13075571Y-13665800D01*
X13075571Y-13737229D01*
X13061285Y-13794371D01*
X13047000Y-13822943D01*
X13032714Y-13837229D01*
X13004143Y-13851514D01*
X12975571Y-13851514D01*
X12947000Y-13837229D01*
X12932714Y-13822943D01*
X12918428Y-13794371D01*
X12904143Y-13737229D01*
X12904143Y-13665800D01*
X12918428Y-13608657D01*
X12932714Y-13580086D01*
X12947000Y-13565800D01*
X12975571Y-13551514D01*
X13361285Y-13851514D02*
X13189857Y-13851514D01*
X13275571Y-13851514D02*
X13275571Y-13551514D01*
X13247000Y-13594371D01*
X13218428Y-13622943D01*
X13189857Y-13637229D01*
X13618428Y-13551514D02*
X13561285Y-13551514D01*
X13532714Y-13565800D01*
X13518428Y-13580086D01*
X13489857Y-13622943D01*
X13475571Y-13680086D01*
X13475571Y-13794371D01*
X13489857Y-13822943D01*
X13504143Y-13837229D01*
X13532714Y-13851514D01*
X13589857Y-13851514D01*
X13618428Y-13837229D01*
X13632714Y-13822943D01*
X13647000Y-13794371D01*
X13647000Y-13722943D01*
X13632714Y-13694371D01*
X13618428Y-13680086D01*
X13589857Y-13665800D01*
X13532714Y-13665800D01*
X13504143Y-13680086D01*
X13489857Y-13694371D01*
X13475571Y-13722943D01*
X13761286Y-13551514D02*
X13761286Y-13608657D01*
X13875571Y-13551514D02*
X13875571Y-13608657D01*
X14318428Y-13965800D02*
X14304143Y-13951514D01*
X14275571Y-13908657D01*
X14261285Y-13880086D01*
X14247000Y-13837229D01*
X14232714Y-13765800D01*
X14232714Y-13708657D01*
X14247000Y-13637229D01*
X14261285Y-13594371D01*
X14275571Y-13565800D01*
X14304143Y-13522943D01*
X14318428Y-13508657D01*
X14589857Y-13851514D02*
X14418428Y-13851514D01*
X14504143Y-13851514D02*
X14504143Y-13551514D01*
X14475571Y-13594371D01*
X14447000Y-13622943D01*
X14418428Y-13637229D01*
X14875571Y-13851514D02*
X14704143Y-13851514D01*
X14789857Y-13851514D02*
X14789857Y-13551514D01*
X14761285Y-13594371D01*
X14732714Y-13622943D01*
X14704143Y-13637229D01*
X14975571Y-13551514D02*
X15161285Y-13551514D01*
X15061285Y-13665800D01*
X15104143Y-13665800D01*
X15132714Y-13680086D01*
X15147000Y-13694371D01*
X15161285Y-13722943D01*
X15161285Y-13794371D01*
X15147000Y-13822943D01*
X15132714Y-13837229D01*
X15104143Y-13851514D01*
X15018428Y-13851514D01*
X14989857Y-13837229D01*
X14975571Y-13822943D01*
X15518428Y-13851514D02*
X15518428Y-13551514D01*
X15647000Y-13851514D02*
X15647000Y-13694371D01*
X15632714Y-13665800D01*
X15604143Y-13651514D01*
X15561285Y-13651514D01*
X15532714Y-13665800D01*
X15518428Y-13680086D01*
X15832714Y-13851514D02*
X15804143Y-13837229D01*
X15789857Y-13822943D01*
X15775571Y-13794371D01*
X15775571Y-13708657D01*
X15789857Y-13680086D01*
X15804143Y-13665800D01*
X15832714Y-13651514D01*
X15875571Y-13651514D01*
X15904143Y-13665800D01*
X15918428Y-13680086D01*
X15932714Y-13708657D01*
X15932714Y-13794371D01*
X15918428Y-13822943D01*
X15904143Y-13837229D01*
X15875571Y-13851514D01*
X15832714Y-13851514D01*
X16104143Y-13851514D02*
X16075571Y-13837229D01*
X16061286Y-13808657D01*
X16061286Y-13551514D01*
X16332714Y-13837229D02*
X16304143Y-13851514D01*
X16247000Y-13851514D01*
X16218428Y-13837229D01*
X16204143Y-13808657D01*
X16204143Y-13694371D01*
X16218428Y-13665800D01*
X16247000Y-13651514D01*
X16304143Y-13651514D01*
X16332714Y-13665800D01*
X16347000Y-13694371D01*
X16347000Y-13722943D01*
X16204143Y-13751514D01*
X16461286Y-13837229D02*
X16489857Y-13851514D01*
X16547000Y-13851514D01*
X16575571Y-13837229D01*
X16589857Y-13808657D01*
X16589857Y-13794371D01*
X16575571Y-13765800D01*
X16547000Y-13751514D01*
X16504143Y-13751514D01*
X16475571Y-13737229D01*
X16461286Y-13708657D01*
X16461286Y-13694371D01*
X16475571Y-13665800D01*
X16504143Y-13651514D01*
X16547000Y-13651514D01*
X16575571Y-13665800D01*
X16689857Y-13965800D02*
X16704143Y-13951514D01*
X16732714Y-13908657D01*
X16747000Y-13880086D01*
X16761286Y-13837229D01*
X16775571Y-13765800D01*
X16775571Y-13708657D01*
X16761286Y-13637229D01*
X16747000Y-13594371D01*
X16732714Y-13565800D01*
X16704143Y-13522943D01*
X16689857Y-13508657D01*
X9647000Y-14111800D02*
G75*
G03X9647000Y-14111800I-40640J0D01*
G01*
X9975571Y-13947514D02*
X10004143Y-13947514D01*
X10032714Y-13961800D01*
X10047000Y-13976086D01*
X10061286Y-14004657D01*
X10075571Y-14061800D01*
X10075571Y-14133229D01*
X10061286Y-14190371D01*
X10047000Y-14218943D01*
X10032714Y-14233229D01*
X10004143Y-14247514D01*
X9975571Y-14247514D01*
X9947000Y-14233229D01*
X9932714Y-14218943D01*
X9918429Y-14190371D01*
X9904143Y-14133229D01*
X9904143Y-14061800D01*
X9918429Y-14004657D01*
X9932714Y-13976086D01*
X9947000Y-13961800D01*
X9975571Y-13947514D01*
X10204143Y-14218943D02*
X10218429Y-14233229D01*
X10204143Y-14247514D01*
X10189857Y-14233229D01*
X10204143Y-14218943D01*
X10204143Y-14247514D01*
X10389857Y-14076086D02*
X10361286Y-14061800D01*
X10347000Y-14047514D01*
X10332714Y-14018943D01*
X10332714Y-14004657D01*
X10347000Y-13976086D01*
X10361286Y-13961800D01*
X10389857Y-13947514D01*
X10447000Y-13947514D01*
X10475571Y-13961800D01*
X10489857Y-13976086D01*
X10504143Y-14004657D01*
X10504143Y-14018943D01*
X10489857Y-14047514D01*
X10475571Y-14061800D01*
X10447000Y-14076086D01*
X10389857Y-14076086D01*
X10361286Y-14090371D01*
X10347000Y-14104657D01*
X10332714Y-14133229D01*
X10332714Y-14190371D01*
X10347000Y-14218943D01*
X10361286Y-14233229D01*
X10389857Y-14247514D01*
X10447000Y-14247514D01*
X10475571Y-14233229D01*
X10489857Y-14218943D01*
X10504143Y-14190371D01*
X10504143Y-14133229D01*
X10489857Y-14104657D01*
X10475571Y-14090371D01*
X10447000Y-14076086D01*
X10789857Y-14247514D02*
X10618429Y-14247514D01*
X10704143Y-14247514D02*
X10704143Y-13947514D01*
X10675571Y-13990371D01*
X10647000Y-14018943D01*
X10618429Y-14033229D01*
X10918429Y-14247514D02*
X10918429Y-14047514D01*
X10918429Y-14076086D02*
X10932714Y-14061800D01*
X10961286Y-14047514D01*
X11004143Y-14047514D01*
X11032714Y-14061800D01*
X11047000Y-14090371D01*
X11047000Y-14247514D01*
X11047000Y-14090371D02*
X11061286Y-14061800D01*
X11089857Y-14047514D01*
X11132714Y-14047514D01*
X11161286Y-14061800D01*
X11175571Y-14090371D01*
X11175571Y-14247514D01*
X11318428Y-14247514D02*
X11318428Y-14047514D01*
X11318428Y-14076086D02*
X11332714Y-14061800D01*
X11361286Y-14047514D01*
X11404143Y-14047514D01*
X11432714Y-14061800D01*
X11447000Y-14090371D01*
X11447000Y-14247514D01*
X11447000Y-14090371D02*
X11461286Y-14061800D01*
X11489857Y-14047514D01*
X11532714Y-14047514D01*
X11561286Y-14061800D01*
X11575571Y-14090371D01*
X11575571Y-14247514D01*
X12161286Y-13933229D02*
X11904143Y-14318943D01*
X12547000Y-13947514D02*
X12575571Y-13947514D01*
X12604143Y-13961800D01*
X12618428Y-13976086D01*
X12632714Y-14004657D01*
X12647000Y-14061800D01*
X12647000Y-14133229D01*
X12632714Y-14190371D01*
X12618428Y-14218943D01*
X12604143Y-14233229D01*
X12575571Y-14247514D01*
X12547000Y-14247514D01*
X12518428Y-14233229D01*
X12504143Y-14218943D01*
X12489857Y-14190371D01*
X12475571Y-14133229D01*
X12475571Y-14061800D01*
X12489857Y-14004657D01*
X12504143Y-13976086D01*
X12518428Y-13961800D01*
X12547000Y-13947514D01*
X12775571Y-14218943D02*
X12789857Y-14233229D01*
X12775571Y-14247514D01*
X12761286Y-14233229D01*
X12775571Y-14218943D01*
X12775571Y-14247514D01*
X12975571Y-13947514D02*
X13004143Y-13947514D01*
X13032714Y-13961800D01*
X13047000Y-13976086D01*
X13061285Y-14004657D01*
X13075571Y-14061800D01*
X13075571Y-14133229D01*
X13061285Y-14190371D01*
X13047000Y-14218943D01*
X13032714Y-14233229D01*
X13004143Y-14247514D01*
X12975571Y-14247514D01*
X12947000Y-14233229D01*
X12932714Y-14218943D01*
X12918428Y-14190371D01*
X12904143Y-14133229D01*
X12904143Y-14061800D01*
X12918428Y-14004657D01*
X12932714Y-13976086D01*
X12947000Y-13961800D01*
X12975571Y-13947514D01*
X13175571Y-13947514D02*
X13361285Y-13947514D01*
X13261285Y-14061800D01*
X13304143Y-14061800D01*
X13332714Y-14076086D01*
X13347000Y-14090371D01*
X13361285Y-14118943D01*
X13361285Y-14190371D01*
X13347000Y-14218943D01*
X13332714Y-14233229D01*
X13304143Y-14247514D01*
X13218428Y-14247514D01*
X13189857Y-14233229D01*
X13175571Y-14218943D01*
X13475571Y-13976086D02*
X13489857Y-13961800D01*
X13518428Y-13947514D01*
X13589857Y-13947514D01*
X13618428Y-13961800D01*
X13632714Y-13976086D01*
X13647000Y-14004657D01*
X13647000Y-14033229D01*
X13632714Y-14076086D01*
X13461285Y-14247514D01*
X13647000Y-14247514D01*
X13761286Y-13947514D02*
X13761286Y-14004657D01*
X13875571Y-13947514D02*
X13875571Y-14004657D01*
X14318428Y-14361800D02*
X14304143Y-14347514D01*
X14275571Y-14304657D01*
X14261285Y-14276086D01*
X14247000Y-14233229D01*
X14232714Y-14161800D01*
X14232714Y-14104657D01*
X14247000Y-14033229D01*
X14261285Y-13990371D01*
X14275571Y-13961800D01*
X14304143Y-13918943D01*
X14318428Y-13904657D01*
X14561285Y-14047514D02*
X14561285Y-14247514D01*
X14489857Y-13933229D02*
X14418428Y-14147514D01*
X14604143Y-14147514D01*
X14947000Y-14247514D02*
X14947000Y-13947514D01*
X15075571Y-14247514D02*
X15075571Y-14090371D01*
X15061285Y-14061800D01*
X15032714Y-14047514D01*
X14989857Y-14047514D01*
X14961285Y-14061800D01*
X14947000Y-14076086D01*
X15261285Y-14247514D02*
X15232714Y-14233229D01*
X15218428Y-14218943D01*
X15204143Y-14190371D01*
X15204143Y-14104657D01*
X15218428Y-14076086D01*
X15232714Y-14061800D01*
X15261285Y-14047514D01*
X15304143Y-14047514D01*
X15332714Y-14061800D01*
X15347000Y-14076086D01*
X15361285Y-14104657D01*
X15361285Y-14190371D01*
X15347000Y-14218943D01*
X15332714Y-14233229D01*
X15304143Y-14247514D01*
X15261285Y-14247514D01*
X15532714Y-14247514D02*
X15504143Y-14233229D01*
X15489857Y-14204657D01*
X15489857Y-13947514D01*
X15761286Y-14233229D02*
X15732714Y-14247514D01*
X15675571Y-14247514D01*
X15647000Y-14233229D01*
X15632714Y-14204657D01*
X15632714Y-14090371D01*
X15647000Y-14061800D01*
X15675571Y-14047514D01*
X15732714Y-14047514D01*
X15761286Y-14061800D01*
X15775571Y-14090371D01*
X15775571Y-14118943D01*
X15632714Y-14147514D01*
X15889857Y-14233229D02*
X15918428Y-14247514D01*
X15975571Y-14247514D01*
X16004143Y-14233229D01*
X16018428Y-14204657D01*
X16018428Y-14190371D01*
X16004143Y-14161800D01*
X15975571Y-14147514D01*
X15932714Y-14147514D01*
X15904143Y-14133229D01*
X15889857Y-14104657D01*
X15889857Y-14090371D01*
X15904143Y-14061800D01*
X15932714Y-14047514D01*
X15975571Y-14047514D01*
X16004143Y-14061800D01*
X16118428Y-14361800D02*
X16132714Y-14347514D01*
X16161286Y-14304657D01*
X16175571Y-14276086D01*
X16189857Y-14233229D01*
X16204143Y-14161800D01*
X16204143Y-14104657D01*
X16189857Y-14033229D01*
X16175571Y-13990371D01*
X16161286Y-13961800D01*
X16132714Y-13918943D01*
X16118428Y-13904657D01*
X9596200Y-14457000D02*
X9596200Y-14558600D01*
X9545400Y-14507800D02*
X9647000Y-14507800D01*
X10075571Y-14643514D02*
X9904143Y-14643514D01*
X9989857Y-14643514D02*
X9989857Y-14343514D01*
X9961286Y-14386371D01*
X9932714Y-14414943D01*
X9904143Y-14429229D01*
X10204143Y-14614943D02*
X10218429Y-14629229D01*
X10204143Y-14643514D01*
X10189857Y-14629229D01*
X10204143Y-14614943D01*
X10204143Y-14643514D01*
X10404143Y-14343514D02*
X10432714Y-14343514D01*
X10461286Y-14357800D01*
X10475571Y-14372086D01*
X10489857Y-14400657D01*
X10504143Y-14457800D01*
X10504143Y-14529229D01*
X10489857Y-14586371D01*
X10475571Y-14614943D01*
X10461286Y-14629229D01*
X10432714Y-14643514D01*
X10404143Y-14643514D01*
X10375571Y-14629229D01*
X10361286Y-14614943D01*
X10347000Y-14586371D01*
X10332714Y-14529229D01*
X10332714Y-14457800D01*
X10347000Y-14400657D01*
X10361286Y-14372086D01*
X10375571Y-14357800D01*
X10404143Y-14343514D01*
X10618429Y-14372086D02*
X10632714Y-14357800D01*
X10661286Y-14343514D01*
X10732714Y-14343514D01*
X10761286Y-14357800D01*
X10775571Y-14372086D01*
X10789857Y-14400657D01*
X10789857Y-14429229D01*
X10775571Y-14472086D01*
X10604143Y-14643514D01*
X10789857Y-14643514D01*
X10918429Y-14643514D02*
X10918429Y-14443514D01*
X10918429Y-14472086D02*
X10932714Y-14457800D01*
X10961286Y-14443514D01*
X11004143Y-14443514D01*
X11032714Y-14457800D01*
X11047000Y-14486371D01*
X11047000Y-14643514D01*
X11047000Y-14486371D02*
X11061286Y-14457800D01*
X11089857Y-14443514D01*
X11132714Y-14443514D01*
X11161286Y-14457800D01*
X11175571Y-14486371D01*
X11175571Y-14643514D01*
X11318428Y-14643514D02*
X11318428Y-14443514D01*
X11318428Y-14472086D02*
X11332714Y-14457800D01*
X11361286Y-14443514D01*
X11404143Y-14443514D01*
X11432714Y-14457800D01*
X11447000Y-14486371D01*
X11447000Y-14643514D01*
X11447000Y-14486371D02*
X11461286Y-14457800D01*
X11489857Y-14443514D01*
X11532714Y-14443514D01*
X11561286Y-14457800D01*
X11575571Y-14486371D01*
X11575571Y-14643514D01*
X12161286Y-14329229D02*
X11904143Y-14714943D01*
X12547000Y-14343514D02*
X12575571Y-14343514D01*
X12604143Y-14357800D01*
X12618428Y-14372086D01*
X12632714Y-14400657D01*
X12647000Y-14457800D01*
X12647000Y-14529229D01*
X12632714Y-14586371D01*
X12618428Y-14614943D01*
X12604143Y-14629229D01*
X12575571Y-14643514D01*
X12547000Y-14643514D01*
X12518428Y-14629229D01*
X12504143Y-14614943D01*
X12489857Y-14586371D01*
X12475571Y-14529229D01*
X12475571Y-14457800D01*
X12489857Y-14400657D01*
X12504143Y-14372086D01*
X12518428Y-14357800D01*
X12547000Y-14343514D01*
X12775571Y-14614943D02*
X12789857Y-14629229D01*
X12775571Y-14643514D01*
X12761286Y-14629229D01*
X12775571Y-14614943D01*
X12775571Y-14643514D01*
X12975571Y-14343514D02*
X13004143Y-14343514D01*
X13032714Y-14357800D01*
X13047000Y-14372086D01*
X13061285Y-14400657D01*
X13075571Y-14457800D01*
X13075571Y-14529229D01*
X13061285Y-14586371D01*
X13047000Y-14614943D01*
X13032714Y-14629229D01*
X13004143Y-14643514D01*
X12975571Y-14643514D01*
X12947000Y-14629229D01*
X12932714Y-14614943D01*
X12918428Y-14586371D01*
X12904143Y-14529229D01*
X12904143Y-14457800D01*
X12918428Y-14400657D01*
X12932714Y-14372086D01*
X12947000Y-14357800D01*
X12975571Y-14343514D01*
X13332714Y-14443514D02*
X13332714Y-14643514D01*
X13261285Y-14329229D02*
X13189857Y-14543514D01*
X13375571Y-14543514D01*
X13547000Y-14343514D02*
X13575571Y-14343514D01*
X13604143Y-14357800D01*
X13618428Y-14372086D01*
X13632714Y-14400657D01*
X13647000Y-14457800D01*
X13647000Y-14529229D01*
X13632714Y-14586371D01*
X13618428Y-14614943D01*
X13604143Y-14629229D01*
X13575571Y-14643514D01*
X13547000Y-14643514D01*
X13518428Y-14629229D01*
X13504143Y-14614943D01*
X13489857Y-14586371D01*
X13475571Y-14529229D01*
X13475571Y-14457800D01*
X13489857Y-14400657D01*
X13504143Y-14372086D01*
X13518428Y-14357800D01*
X13547000Y-14343514D01*
X13761286Y-14343514D02*
X13761286Y-14400657D01*
X13875571Y-14343514D02*
X13875571Y-14400657D01*
X14318428Y-14757800D02*
X14304143Y-14743514D01*
X14275571Y-14700657D01*
X14261285Y-14672086D01*
X14247000Y-14629229D01*
X14232714Y-14557800D01*
X14232714Y-14500657D01*
X14247000Y-14429229D01*
X14261285Y-14386371D01*
X14275571Y-14357800D01*
X14304143Y-14314943D01*
X14318428Y-14300657D01*
X14447000Y-14643514D02*
X14504143Y-14643514D01*
X14532714Y-14629229D01*
X14547000Y-14614943D01*
X14575571Y-14572086D01*
X14589857Y-14514943D01*
X14589857Y-14400657D01*
X14575571Y-14372086D01*
X14561285Y-14357800D01*
X14532714Y-14343514D01*
X14475571Y-14343514D01*
X14447000Y-14357800D01*
X14432714Y-14372086D01*
X14418428Y-14400657D01*
X14418428Y-14472086D01*
X14432714Y-14500657D01*
X14447000Y-14514943D01*
X14475571Y-14529229D01*
X14532714Y-14529229D01*
X14561285Y-14514943D01*
X14575571Y-14500657D01*
X14589857Y-14472086D01*
X14847000Y-14443514D02*
X14847000Y-14643514D01*
X14775571Y-14329229D02*
X14704143Y-14543514D01*
X14889857Y-14543514D01*
X15232714Y-14643514D02*
X15232714Y-14343514D01*
X15361285Y-14643514D02*
X15361285Y-14486371D01*
X15347000Y-14457800D01*
X15318428Y-14443514D01*
X15275571Y-14443514D01*
X15247000Y-14457800D01*
X15232714Y-14472086D01*
X15547000Y-14643514D02*
X15518428Y-14629229D01*
X15504143Y-14614943D01*
X15489857Y-14586371D01*
X15489857Y-14500657D01*
X15504143Y-14472086D01*
X15518428Y-14457800D01*
X15547000Y-14443514D01*
X15589857Y-14443514D01*
X15618428Y-14457800D01*
X15632714Y-14472086D01*
X15647000Y-14500657D01*
X15647000Y-14586371D01*
X15632714Y-14614943D01*
X15618428Y-14629229D01*
X15589857Y-14643514D01*
X15547000Y-14643514D01*
X15818428Y-14643514D02*
X15789857Y-14629229D01*
X15775571Y-14600657D01*
X15775571Y-14343514D01*
X16047000Y-14629229D02*
X16018428Y-14643514D01*
X15961286Y-14643514D01*
X15932714Y-14629229D01*
X15918428Y-14600657D01*
X15918428Y-14486371D01*
X15932714Y-14457800D01*
X15961286Y-14443514D01*
X16018428Y-14443514D01*
X16047000Y-14457800D01*
X16061286Y-14486371D01*
X16061286Y-14514943D01*
X15918428Y-14543514D01*
X16175571Y-14629229D02*
X16204143Y-14643514D01*
X16261286Y-14643514D01*
X16289857Y-14629229D01*
X16304143Y-14600657D01*
X16304143Y-14586371D01*
X16289857Y-14557800D01*
X16261286Y-14543514D01*
X16218428Y-14543514D01*
X16189857Y-14529229D01*
X16175571Y-14500657D01*
X16175571Y-14486371D01*
X16189857Y-14457800D01*
X16218428Y-14443514D01*
X16261286Y-14443514D01*
X16289857Y-14457800D01*
X16404143Y-14757800D02*
X16418428Y-14743514D01*
X16447000Y-14700657D01*
X16461286Y-14672086D01*
X16475571Y-14629229D01*
X16489857Y-14557800D01*
X16489857Y-14500657D01*
X16475571Y-14429229D01*
X16461286Y-14386371D01*
X16447000Y-14357800D01*
X16418428Y-14314943D01*
X16404143Y-14300657D01*
X9613300Y-14985162D02*
X9613300Y-14822438D01*
X9450576Y-14822438D01*
X9450576Y-14985162D01*
X9613300Y-14985162D01*
X9904143Y-14768086D02*
X9918429Y-14753800D01*
X9947000Y-14739514D01*
X10018429Y-14739514D01*
X10047000Y-14753800D01*
X10061286Y-14768086D01*
X10075571Y-14796657D01*
X10075571Y-14825229D01*
X10061286Y-14868086D01*
X9889857Y-15039514D01*
X10075571Y-15039514D01*
X10204143Y-15010943D02*
X10218429Y-15025229D01*
X10204143Y-15039514D01*
X10189857Y-15025229D01*
X10204143Y-15010943D01*
X10204143Y-15039514D01*
X10318428Y-14739514D02*
X10504143Y-14739514D01*
X10404143Y-14853800D01*
X10447000Y-14853800D01*
X10475571Y-14868086D01*
X10489857Y-14882371D01*
X10504143Y-14910943D01*
X10504143Y-14982371D01*
X10489857Y-15010943D01*
X10475571Y-15025229D01*
X10447000Y-15039514D01*
X10361286Y-15039514D01*
X10332714Y-15025229D01*
X10318428Y-15010943D01*
X10689857Y-14739514D02*
X10718429Y-14739514D01*
X10747000Y-14753800D01*
X10761286Y-14768086D01*
X10775571Y-14796657D01*
X10789857Y-14853800D01*
X10789857Y-14925229D01*
X10775571Y-14982371D01*
X10761286Y-15010943D01*
X10747000Y-15025229D01*
X10718429Y-15039514D01*
X10689857Y-15039514D01*
X10661286Y-15025229D01*
X10647000Y-15010943D01*
X10632714Y-14982371D01*
X10618429Y-14925229D01*
X10618429Y-14853800D01*
X10632714Y-14796657D01*
X10647000Y-14768086D01*
X10661286Y-14753800D01*
X10689857Y-14739514D01*
X10918429Y-15039514D02*
X10918429Y-14839514D01*
X10918429Y-14868086D02*
X10932714Y-14853800D01*
X10961286Y-14839514D01*
X11004143Y-14839514D01*
X11032714Y-14853800D01*
X11047000Y-14882371D01*
X11047000Y-15039514D01*
X11047000Y-14882371D02*
X11061286Y-14853800D01*
X11089857Y-14839514D01*
X11132714Y-14839514D01*
X11161286Y-14853800D01*
X11175571Y-14882371D01*
X11175571Y-15039514D01*
X11318428Y-15039514D02*
X11318428Y-14839514D01*
X11318428Y-14868086D02*
X11332714Y-14853800D01*
X11361286Y-14839514D01*
X11404143Y-14839514D01*
X11432714Y-14853800D01*
X11447000Y-14882371D01*
X11447000Y-15039514D01*
X11447000Y-14882371D02*
X11461286Y-14853800D01*
X11489857Y-14839514D01*
X11532714Y-14839514D01*
X11561286Y-14853800D01*
X11575571Y-14882371D01*
X11575571Y-15039514D01*
X12161286Y-14725229D02*
X11904143Y-15110943D01*
X12547000Y-14739514D02*
X12575571Y-14739514D01*
X12604143Y-14753800D01*
X12618428Y-14768086D01*
X12632714Y-14796657D01*
X12647000Y-14853800D01*
X12647000Y-14925229D01*
X12632714Y-14982371D01*
X12618428Y-15010943D01*
X12604143Y-15025229D01*
X12575571Y-15039514D01*
X12547000Y-15039514D01*
X12518428Y-15025229D01*
X12504143Y-15010943D01*
X12489857Y-14982371D01*
X12475571Y-14925229D01*
X12475571Y-14853800D01*
X12489857Y-14796657D01*
X12504143Y-14768086D01*
X12518428Y-14753800D01*
X12547000Y-14739514D01*
X12775571Y-15010943D02*
X12789857Y-15025229D01*
X12775571Y-15039514D01*
X12761286Y-15025229D01*
X12775571Y-15010943D01*
X12775571Y-15039514D01*
X12975571Y-14739514D02*
X13004143Y-14739514D01*
X13032714Y-14753800D01*
X13047000Y-14768086D01*
X13061285Y-14796657D01*
X13075571Y-14853800D01*
X13075571Y-14925229D01*
X13061285Y-14982371D01*
X13047000Y-15010943D01*
X13032714Y-15025229D01*
X13004143Y-15039514D01*
X12975571Y-15039514D01*
X12947000Y-15025229D01*
X12932714Y-15010943D01*
X12918428Y-14982371D01*
X12904143Y-14925229D01*
X12904143Y-14853800D01*
X12918428Y-14796657D01*
X12932714Y-14768086D01*
X12947000Y-14753800D01*
X12975571Y-14739514D01*
X13218428Y-15039514D02*
X13275571Y-15039514D01*
X13304143Y-15025229D01*
X13318428Y-15010943D01*
X13347000Y-14968086D01*
X13361285Y-14910943D01*
X13361285Y-14796657D01*
X13347000Y-14768086D01*
X13332714Y-14753800D01*
X13304143Y-14739514D01*
X13247000Y-14739514D01*
X13218428Y-14753800D01*
X13204143Y-14768086D01*
X13189857Y-14796657D01*
X13189857Y-14868086D01*
X13204143Y-14896657D01*
X13218428Y-14910943D01*
X13247000Y-14925229D01*
X13304143Y-14925229D01*
X13332714Y-14910943D01*
X13347000Y-14896657D01*
X13361285Y-14868086D01*
X13647000Y-15039514D02*
X13475571Y-15039514D01*
X13561285Y-15039514D02*
X13561285Y-14739514D01*
X13532714Y-14782371D01*
X13504143Y-14810943D01*
X13475571Y-14825229D01*
X13761286Y-14739514D02*
X13761286Y-14796657D01*
X13875571Y-14739514D02*
X13875571Y-14796657D01*
X14318428Y-15153800D02*
X14304143Y-15139514D01*
X14275571Y-15096657D01*
X14261285Y-15068086D01*
X14247000Y-15025229D01*
X14232714Y-14953800D01*
X14232714Y-14896657D01*
X14247000Y-14825229D01*
X14261285Y-14782371D01*
X14275571Y-14753800D01*
X14304143Y-14710943D01*
X14318428Y-14696657D01*
X14418428Y-14768086D02*
X14432714Y-14753800D01*
X14461285Y-14739514D01*
X14532714Y-14739514D01*
X14561285Y-14753800D01*
X14575571Y-14768086D01*
X14589857Y-14796657D01*
X14589857Y-14825229D01*
X14575571Y-14868086D01*
X14404143Y-15039514D01*
X14589857Y-15039514D01*
X14947000Y-15039514D02*
X14947000Y-14739514D01*
X15075571Y-15039514D02*
X15075571Y-14882371D01*
X15061285Y-14853800D01*
X15032714Y-14839514D01*
X14989857Y-14839514D01*
X14961285Y-14853800D01*
X14947000Y-14868086D01*
X15261285Y-15039514D02*
X15232714Y-15025229D01*
X15218428Y-15010943D01*
X15204143Y-14982371D01*
X15204143Y-14896657D01*
X15218428Y-14868086D01*
X15232714Y-14853800D01*
X15261285Y-14839514D01*
X15304143Y-14839514D01*
X15332714Y-14853800D01*
X15347000Y-14868086D01*
X15361285Y-14896657D01*
X15361285Y-14982371D01*
X15347000Y-15010943D01*
X15332714Y-15025229D01*
X15304143Y-15039514D01*
X15261285Y-15039514D01*
X15532714Y-15039514D02*
X15504143Y-15025229D01*
X15489857Y-14996657D01*
X15489857Y-14739514D01*
X15761286Y-15025229D02*
X15732714Y-15039514D01*
X15675571Y-15039514D01*
X15647000Y-15025229D01*
X15632714Y-14996657D01*
X15632714Y-14882371D01*
X15647000Y-14853800D01*
X15675571Y-14839514D01*
X15732714Y-14839514D01*
X15761286Y-14853800D01*
X15775571Y-14882371D01*
X15775571Y-14910943D01*
X15632714Y-14939514D01*
X15889857Y-15025229D02*
X15918428Y-15039514D01*
X15975571Y-15039514D01*
X16004143Y-15025229D01*
X16018428Y-14996657D01*
X16018428Y-14982371D01*
X16004143Y-14953800D01*
X15975571Y-14939514D01*
X15932714Y-14939514D01*
X15904143Y-14925229D01*
X15889857Y-14896657D01*
X15889857Y-14882371D01*
X15904143Y-14853800D01*
X15932714Y-14839514D01*
X15975571Y-14839514D01*
X16004143Y-14853800D01*
X16118428Y-15153800D02*
X16132714Y-15139514D01*
X16161286Y-15096657D01*
X16175571Y-15068086D01*
X16189857Y-15025229D01*
X16204143Y-14953800D01*
X16204143Y-14896657D01*
X16189857Y-14825229D01*
X16175571Y-14782371D01*
X16161286Y-14753800D01*
X16132714Y-14710943D01*
X16118428Y-14696657D01*
X9487000Y-15459800D02*
X9647000Y-15299800D01*
X9487000Y-15139800D01*
X9327000Y-15299800D01*
X9487000Y-15459800D01*
X9889857Y-15135514D02*
X10075571Y-15135514D01*
X9975571Y-15249800D01*
X10018429Y-15249800D01*
X10047000Y-15264086D01*
X10061286Y-15278371D01*
X10075571Y-15306943D01*
X10075571Y-15378371D01*
X10061286Y-15406943D01*
X10047000Y-15421229D01*
X10018429Y-15435514D01*
X9932714Y-15435514D01*
X9904143Y-15421229D01*
X9889857Y-15406943D01*
X10204143Y-15406943D02*
X10218429Y-15421229D01*
X10204143Y-15435514D01*
X10189857Y-15421229D01*
X10204143Y-15406943D01*
X10204143Y-15435514D01*
X10332714Y-15164086D02*
X10347000Y-15149800D01*
X10375571Y-15135514D01*
X10447000Y-15135514D01*
X10475571Y-15149800D01*
X10489857Y-15164086D01*
X10504143Y-15192657D01*
X10504143Y-15221229D01*
X10489857Y-15264086D01*
X10318428Y-15435514D01*
X10504143Y-15435514D01*
X10689857Y-15135514D02*
X10718429Y-15135514D01*
X10747000Y-15149800D01*
X10761286Y-15164086D01*
X10775571Y-15192657D01*
X10789857Y-15249800D01*
X10789857Y-15321229D01*
X10775571Y-15378371D01*
X10761286Y-15406943D01*
X10747000Y-15421229D01*
X10718429Y-15435514D01*
X10689857Y-15435514D01*
X10661286Y-15421229D01*
X10647000Y-15406943D01*
X10632714Y-15378371D01*
X10618429Y-15321229D01*
X10618429Y-15249800D01*
X10632714Y-15192657D01*
X10647000Y-15164086D01*
X10661286Y-15149800D01*
X10689857Y-15135514D01*
X10918429Y-15435514D02*
X10918429Y-15235514D01*
X10918429Y-15264086D02*
X10932714Y-15249800D01*
X10961286Y-15235514D01*
X11004143Y-15235514D01*
X11032714Y-15249800D01*
X11047000Y-15278371D01*
X11047000Y-15435514D01*
X11047000Y-15278371D02*
X11061286Y-15249800D01*
X11089857Y-15235514D01*
X11132714Y-15235514D01*
X11161286Y-15249800D01*
X11175571Y-15278371D01*
X11175571Y-15435514D01*
X11318428Y-15435514D02*
X11318428Y-15235514D01*
X11318428Y-15264086D02*
X11332714Y-15249800D01*
X11361286Y-15235514D01*
X11404143Y-15235514D01*
X11432714Y-15249800D01*
X11447000Y-15278371D01*
X11447000Y-15435514D01*
X11447000Y-15278371D02*
X11461286Y-15249800D01*
X11489857Y-15235514D01*
X11532714Y-15235514D01*
X11561286Y-15249800D01*
X11575571Y-15278371D01*
X11575571Y-15435514D01*
X12161286Y-15121229D02*
X11904143Y-15506943D01*
X12547000Y-15135514D02*
X12575571Y-15135514D01*
X12604143Y-15149800D01*
X12618428Y-15164086D01*
X12632714Y-15192657D01*
X12647000Y-15249800D01*
X12647000Y-15321229D01*
X12632714Y-15378371D01*
X12618428Y-15406943D01*
X12604143Y-15421229D01*
X12575571Y-15435514D01*
X12547000Y-15435514D01*
X12518428Y-15421229D01*
X12504143Y-15406943D01*
X12489857Y-15378371D01*
X12475571Y-15321229D01*
X12475571Y-15249800D01*
X12489857Y-15192657D01*
X12504143Y-15164086D01*
X12518428Y-15149800D01*
X12547000Y-15135514D01*
X12775571Y-15406943D02*
X12789857Y-15421229D01*
X12775571Y-15435514D01*
X12761286Y-15421229D01*
X12775571Y-15406943D01*
X12775571Y-15435514D01*
X13075571Y-15435514D02*
X12904143Y-15435514D01*
X12989857Y-15435514D02*
X12989857Y-15135514D01*
X12961285Y-15178371D01*
X12932714Y-15206943D01*
X12904143Y-15221229D01*
X13189857Y-15164086D02*
X13204143Y-15149800D01*
X13232714Y-15135514D01*
X13304143Y-15135514D01*
X13332714Y-15149800D01*
X13347000Y-15164086D01*
X13361285Y-15192657D01*
X13361285Y-15221229D01*
X13347000Y-15264086D01*
X13175571Y-15435514D01*
X13361285Y-15435514D01*
X13618428Y-15135514D02*
X13561285Y-15135514D01*
X13532714Y-15149800D01*
X13518428Y-15164086D01*
X13489857Y-15206943D01*
X13475571Y-15264086D01*
X13475571Y-15378371D01*
X13489857Y-15406943D01*
X13504143Y-15421229D01*
X13532714Y-15435514D01*
X13589857Y-15435514D01*
X13618428Y-15421229D01*
X13632714Y-15406943D01*
X13647000Y-15378371D01*
X13647000Y-15306943D01*
X13632714Y-15278371D01*
X13618428Y-15264086D01*
X13589857Y-15249800D01*
X13532714Y-15249800D01*
X13504143Y-15264086D01*
X13489857Y-15278371D01*
X13475571Y-15306943D01*
X13761286Y-15135514D02*
X13761286Y-15192657D01*
X13875571Y-15135514D02*
X13875571Y-15192657D01*
X14318428Y-15549800D02*
X14304143Y-15535514D01*
X14275571Y-15492657D01*
X14261285Y-15464086D01*
X14247000Y-15421229D01*
X14232714Y-15349800D01*
X14232714Y-15292657D01*
X14247000Y-15221229D01*
X14261285Y-15178371D01*
X14275571Y-15149800D01*
X14304143Y-15106943D01*
X14318428Y-15092657D01*
X14404143Y-15135514D02*
X14589857Y-15135514D01*
X14489857Y-15249800D01*
X14532714Y-15249800D01*
X14561285Y-15264086D01*
X14575571Y-15278371D01*
X14589857Y-15306943D01*
X14589857Y-15378371D01*
X14575571Y-15406943D01*
X14561285Y-15421229D01*
X14532714Y-15435514D01*
X14447000Y-15435514D01*
X14418428Y-15421229D01*
X14404143Y-15406943D01*
X14947000Y-15435514D02*
X14947000Y-15135514D01*
X15075571Y-15435514D02*
X15075571Y-15278371D01*
X15061285Y-15249800D01*
X15032714Y-15235514D01*
X14989857Y-15235514D01*
X14961285Y-15249800D01*
X14947000Y-15264086D01*
X15261285Y-15435514D02*
X15232714Y-15421229D01*
X15218428Y-15406943D01*
X15204143Y-15378371D01*
X15204143Y-15292657D01*
X15218428Y-15264086D01*
X15232714Y-15249800D01*
X15261285Y-15235514D01*
X15304143Y-15235514D01*
X15332714Y-15249800D01*
X15347000Y-15264086D01*
X15361285Y-15292657D01*
X15361285Y-15378371D01*
X15347000Y-15406943D01*
X15332714Y-15421229D01*
X15304143Y-15435514D01*
X15261285Y-15435514D01*
X15532714Y-15435514D02*
X15504143Y-15421229D01*
X15489857Y-15392657D01*
X15489857Y-15135514D01*
X15761286Y-15421229D02*
X15732714Y-15435514D01*
X15675571Y-15435514D01*
X15647000Y-15421229D01*
X15632714Y-15392657D01*
X15632714Y-15278371D01*
X15647000Y-15249800D01*
X15675571Y-15235514D01*
X15732714Y-15235514D01*
X15761286Y-15249800D01*
X15775571Y-15278371D01*
X15775571Y-15306943D01*
X15632714Y-15335514D01*
X15889857Y-15421229D02*
X15918428Y-15435514D01*
X15975571Y-15435514D01*
X16004143Y-15421229D01*
X16018428Y-15392657D01*
X16018428Y-15378371D01*
X16004143Y-15349800D01*
X15975571Y-15335514D01*
X15932714Y-15335514D01*
X15904143Y-15321229D01*
X15889857Y-15292657D01*
X15889857Y-15278371D01*
X15904143Y-15249800D01*
X15932714Y-15235514D01*
X15975571Y-15235514D01*
X16004143Y-15249800D01*
X16118428Y-15549800D02*
X16132714Y-15535514D01*
X16161286Y-15492657D01*
X16175571Y-15464086D01*
X16189857Y-15421229D01*
X16204143Y-15349800D01*
X16204143Y-15292657D01*
X16189857Y-15221229D01*
X16175571Y-15178371D01*
X16161286Y-15149800D01*
X16132714Y-15106943D01*
X16118428Y-15092657D01*
M02*
