G04 #@! TF.FileFunction,Legend,Top*
%FSLAX46Y46*%
G04 Gerber Fmt 4.6, Leading zero omitted, Abs format (unit mm)*
G04 Created by KiCad (PCBNEW 4.0.2-stable) date vie 27 may 2016 00:51:31 CEST*
%MOMM*%
G01*
G04 APERTURE LIST*
%ADD10C,0.100000*%
%ADD11C,0.300000*%
%ADD12C,0.150000*%
G04 APERTURE END LIST*
D10*
D11*
X134034929Y-115312071D02*
X134034929Y-116526357D01*
X133963500Y-116669214D01*
X133892072Y-116740643D01*
X133749215Y-116812071D01*
X133534929Y-116812071D01*
X133392072Y-116740643D01*
X134034929Y-116240643D02*
X133892072Y-116312071D01*
X133606358Y-116312071D01*
X133463500Y-116240643D01*
X133392072Y-116169214D01*
X133320643Y-116026357D01*
X133320643Y-115597786D01*
X133392072Y-115454929D01*
X133463500Y-115383500D01*
X133606358Y-115312071D01*
X133892072Y-115312071D01*
X134034929Y-115383500D01*
X134749215Y-116312071D02*
X134749215Y-115312071D01*
X134749215Y-114812071D02*
X134677786Y-114883500D01*
X134749215Y-114954929D01*
X134820643Y-114883500D01*
X134749215Y-114812071D01*
X134749215Y-114954929D01*
X135249215Y-115312071D02*
X135820644Y-115312071D01*
X135463501Y-114812071D02*
X135463501Y-116097786D01*
X135534929Y-116240643D01*
X135677787Y-116312071D01*
X135820644Y-116312071D01*
X136320644Y-116312071D02*
X136320644Y-114812071D01*
X136963501Y-116312071D02*
X136963501Y-115526357D01*
X136892072Y-115383500D01*
X136749215Y-115312071D01*
X136534930Y-115312071D01*
X136392072Y-115383500D01*
X136320644Y-115454929D01*
X138320644Y-115312071D02*
X138320644Y-116312071D01*
X137677787Y-115312071D02*
X137677787Y-116097786D01*
X137749215Y-116240643D01*
X137892073Y-116312071D01*
X138106358Y-116312071D01*
X138249215Y-116240643D01*
X138320644Y-116169214D01*
X139034930Y-116312071D02*
X139034930Y-114812071D01*
X139034930Y-115383500D02*
X139177787Y-115312071D01*
X139463501Y-115312071D01*
X139606358Y-115383500D01*
X139677787Y-115454929D01*
X139749216Y-115597786D01*
X139749216Y-116026357D01*
X139677787Y-116169214D01*
X139606358Y-116240643D01*
X139463501Y-116312071D01*
X139177787Y-116312071D01*
X139034930Y-116240643D01*
X140392073Y-116169214D02*
X140463501Y-116240643D01*
X140392073Y-116312071D01*
X140320644Y-116240643D01*
X140392073Y-116169214D01*
X140392073Y-116312071D01*
X141749216Y-116240643D02*
X141606359Y-116312071D01*
X141320645Y-116312071D01*
X141177787Y-116240643D01*
X141106359Y-116169214D01*
X141034930Y-116026357D01*
X141034930Y-115597786D01*
X141106359Y-115454929D01*
X141177787Y-115383500D01*
X141320645Y-115312071D01*
X141606359Y-115312071D01*
X141749216Y-115383500D01*
X142606359Y-116312071D02*
X142463501Y-116240643D01*
X142392073Y-116169214D01*
X142320644Y-116026357D01*
X142320644Y-115597786D01*
X142392073Y-115454929D01*
X142463501Y-115383500D01*
X142606359Y-115312071D01*
X142820644Y-115312071D01*
X142963501Y-115383500D01*
X143034930Y-115454929D01*
X143106359Y-115597786D01*
X143106359Y-116026357D01*
X143034930Y-116169214D01*
X142963501Y-116240643D01*
X142820644Y-116312071D01*
X142606359Y-116312071D01*
X143749216Y-116312071D02*
X143749216Y-115312071D01*
X143749216Y-115454929D02*
X143820644Y-115383500D01*
X143963502Y-115312071D01*
X144177787Y-115312071D01*
X144320644Y-115383500D01*
X144392073Y-115526357D01*
X144392073Y-116312071D01*
X144392073Y-115526357D02*
X144463502Y-115383500D01*
X144606359Y-115312071D01*
X144820644Y-115312071D01*
X144963502Y-115383500D01*
X145034930Y-115526357D01*
X145034930Y-116312071D01*
X146820644Y-114740643D02*
X145534930Y-116669214D01*
X147177788Y-115312071D02*
X147963502Y-115312071D01*
X147177788Y-116312071D01*
X147963502Y-116312071D01*
X149106359Y-116240643D02*
X148963502Y-116312071D01*
X148677788Y-116312071D01*
X148534931Y-116240643D01*
X148463502Y-116097786D01*
X148463502Y-115526357D01*
X148534931Y-115383500D01*
X148677788Y-115312071D01*
X148963502Y-115312071D01*
X149106359Y-115383500D01*
X149177788Y-115526357D01*
X149177788Y-115669214D01*
X148463502Y-115812071D01*
X149820645Y-116312071D02*
X149820645Y-115312071D01*
X149820645Y-115597786D02*
X149892073Y-115454929D01*
X149963502Y-115383500D01*
X150106359Y-115312071D01*
X150249216Y-115312071D01*
X150749216Y-116312071D02*
X150749216Y-114812071D01*
X150749216Y-115383500D02*
X150892073Y-115312071D01*
X151177787Y-115312071D01*
X151320644Y-115383500D01*
X151392073Y-115454929D01*
X151463502Y-115597786D01*
X151463502Y-116026357D01*
X151392073Y-116169214D01*
X151320644Y-116240643D01*
X151177787Y-116312071D01*
X150892073Y-116312071D01*
X150749216Y-116240643D01*
X152677787Y-116240643D02*
X152534930Y-116312071D01*
X152249216Y-116312071D01*
X152106359Y-116240643D01*
X152034930Y-116097786D01*
X152034930Y-115526357D01*
X152106359Y-115383500D01*
X152249216Y-115312071D01*
X152534930Y-115312071D01*
X152677787Y-115383500D01*
X152749216Y-115526357D01*
X152749216Y-115669214D01*
X152034930Y-115812071D01*
X153392073Y-116312071D02*
X153392073Y-115312071D01*
X153392073Y-115597786D02*
X153463501Y-115454929D01*
X153534930Y-115383500D01*
X153677787Y-115312071D01*
X153820644Y-115312071D01*
X154320644Y-116312071D02*
X154320644Y-115312071D01*
X154320644Y-115597786D02*
X154392072Y-115454929D01*
X154463501Y-115383500D01*
X154606358Y-115312071D01*
X154749215Y-115312071D01*
X155463501Y-116312071D02*
X155320643Y-116240643D01*
X155249215Y-116169214D01*
X155177786Y-116026357D01*
X155177786Y-115597786D01*
X155249215Y-115454929D01*
X155320643Y-115383500D01*
X155463501Y-115312071D01*
X155677786Y-115312071D01*
X155820643Y-115383500D01*
X155892072Y-115454929D01*
X155963501Y-115597786D01*
X155963501Y-116026357D01*
X155892072Y-116169214D01*
X155820643Y-116240643D01*
X155677786Y-116312071D01*
X155463501Y-116312071D01*
X156534929Y-116240643D02*
X156677786Y-116312071D01*
X156963501Y-116312071D01*
X157106358Y-116240643D01*
X157177786Y-116097786D01*
X157177786Y-116026357D01*
X157106358Y-115883500D01*
X156963501Y-115812071D01*
X156749215Y-115812071D01*
X156606358Y-115740643D01*
X156534929Y-115597786D01*
X156534929Y-115526357D01*
X156606358Y-115383500D01*
X156749215Y-115312071D01*
X156963501Y-115312071D01*
X157106358Y-115383500D01*
X158892072Y-114740643D02*
X157606358Y-116669214D01*
X159892073Y-115526357D02*
X159392073Y-115526357D01*
X159392073Y-116312071D02*
X159392073Y-114812071D01*
X160106359Y-114812071D01*
X161320644Y-115312071D02*
X161320644Y-116312071D01*
X160677787Y-115312071D02*
X160677787Y-116097786D01*
X160749215Y-116240643D01*
X160892073Y-116312071D01*
X161106358Y-116312071D01*
X161249215Y-116240643D01*
X161320644Y-116169214D01*
X162034930Y-116312071D02*
X162034930Y-115312071D01*
X162034930Y-115597786D02*
X162106358Y-115454929D01*
X162177787Y-115383500D01*
X162320644Y-115312071D01*
X162463501Y-115312071D01*
X162963501Y-116312071D02*
X162963501Y-115312071D01*
X162963501Y-114812071D02*
X162892072Y-114883500D01*
X162963501Y-114954929D01*
X163034929Y-114883500D01*
X162963501Y-114812071D01*
X162963501Y-114954929D01*
X164249215Y-116240643D02*
X164106358Y-116312071D01*
X163820644Y-116312071D01*
X163677787Y-116240643D01*
X163606358Y-116097786D01*
X163606358Y-115526357D01*
X163677787Y-115383500D01*
X163820644Y-115312071D01*
X164106358Y-115312071D01*
X164249215Y-115383500D01*
X164320644Y-115526357D01*
X164320644Y-115669214D01*
X163606358Y-115812071D01*
X164963501Y-116312071D02*
X164963501Y-115312071D01*
X164963501Y-115597786D02*
X165034929Y-115454929D01*
X165106358Y-115383500D01*
X165249215Y-115312071D01*
X165392072Y-115312071D01*
X165892072Y-115740643D02*
X167034929Y-115740643D01*
X167749215Y-116312071D02*
X167749215Y-114812071D01*
X168106358Y-114812071D01*
X168320643Y-114883500D01*
X168463501Y-115026357D01*
X168534929Y-115169214D01*
X168606358Y-115454929D01*
X168606358Y-115669214D01*
X168534929Y-115954929D01*
X168463501Y-116097786D01*
X168320643Y-116240643D01*
X168106358Y-116312071D01*
X167749215Y-116312071D01*
X169677786Y-114812071D02*
X169677786Y-115883500D01*
X169606358Y-116097786D01*
X169463501Y-116240643D01*
X169249215Y-116312071D01*
X169106358Y-116312071D01*
X170392072Y-115740643D02*
X171534929Y-115740643D01*
X122745572Y-92817143D02*
X123888429Y-92817143D01*
X123317000Y-93388571D02*
X123317000Y-92245714D01*
X117229215Y-94428571D02*
X118157786Y-94428571D01*
X117657786Y-95000000D01*
X117872072Y-95000000D01*
X118014929Y-95071429D01*
X118086358Y-95142857D01*
X118157786Y-95285714D01*
X118157786Y-95642857D01*
X118086358Y-95785714D01*
X118014929Y-95857143D01*
X117872072Y-95928571D01*
X117443500Y-95928571D01*
X117300643Y-95857143D01*
X117229215Y-95785714D01*
X118800643Y-95785714D02*
X118872071Y-95857143D01*
X118800643Y-95928571D01*
X118729214Y-95857143D01*
X118800643Y-95785714D01*
X118800643Y-95928571D01*
X119372072Y-94428571D02*
X120300643Y-94428571D01*
X119800643Y-95000000D01*
X120014929Y-95000000D01*
X120157786Y-95071429D01*
X120229215Y-95142857D01*
X120300643Y-95285714D01*
X120300643Y-95642857D01*
X120229215Y-95785714D01*
X120157786Y-95857143D01*
X120014929Y-95928571D01*
X119586357Y-95928571D01*
X119443500Y-95857143D01*
X119372072Y-95785714D01*
X120729214Y-94428571D02*
X121229214Y-95928571D01*
X121729214Y-94428571D01*
D10*
X96520000Y-77470000D02*
X96520000Y-127508000D01*
X186055000Y-77470000D02*
X96520000Y-77470000D01*
X186055000Y-127508000D02*
X186055000Y-77470000D01*
X96520000Y-127508000D02*
X186055000Y-127508000D01*
D12*
X134988000Y-95884396D02*
X134988000Y-96644396D01*
X149238000Y-95884396D02*
X149238000Y-96644396D01*
X149238000Y-110134396D02*
X149238000Y-109374396D01*
X134988000Y-110134396D02*
X134988000Y-109374396D01*
X134988000Y-95884396D02*
X135748000Y-95884396D01*
X134988000Y-110134396D02*
X135748000Y-110134396D01*
X149238000Y-110134396D02*
X148478000Y-110134396D01*
X149238000Y-95884396D02*
X148478000Y-95884396D01*
X134988000Y-96644396D02*
X133463000Y-96644396D01*
X108839000Y-87398860D02*
X110236000Y-87398860D01*
X108585000Y-87271860D02*
X110363000Y-87271860D01*
X108204000Y-87144860D02*
X110744000Y-87144860D01*
X110871000Y-87017860D02*
X108077000Y-87017860D01*
X107950000Y-86890860D02*
X110998000Y-86890860D01*
X111125000Y-86763860D02*
X107823000Y-86763860D01*
X107696000Y-86636860D02*
X111252000Y-86636860D01*
X106807000Y-87779860D02*
X106807000Y-83207860D01*
X106807000Y-83207860D02*
X107569000Y-82445860D01*
X107569000Y-82445860D02*
X111379000Y-82445860D01*
X111379000Y-82445860D02*
X112141000Y-83207860D01*
X112141000Y-83207860D02*
X112141000Y-87779860D01*
X112141000Y-87779860D02*
X106807000Y-87779860D01*
X109474000Y-82953860D02*
X109474000Y-83715860D01*
X109093000Y-83334860D02*
X109855000Y-83334860D01*
X111887000Y-85112860D02*
G75*
G03X111887000Y-85112860I-2413000J0D01*
G01*
X118554500Y-87144860D02*
X119951500Y-87144860D01*
X118300500Y-87017860D02*
X120078500Y-87017860D01*
X117919500Y-86890860D02*
X120459500Y-86890860D01*
X120586500Y-86763860D02*
X117792500Y-86763860D01*
X117665500Y-86636860D02*
X120713500Y-86636860D01*
X120840500Y-86509860D02*
X117538500Y-86509860D01*
X117411500Y-86382860D02*
X120967500Y-86382860D01*
X116522500Y-87525860D02*
X116522500Y-82953860D01*
X116522500Y-82953860D02*
X117284500Y-82191860D01*
X117284500Y-82191860D02*
X121094500Y-82191860D01*
X121094500Y-82191860D02*
X121856500Y-82953860D01*
X121856500Y-82953860D02*
X121856500Y-87525860D01*
X121856500Y-87525860D02*
X116522500Y-87525860D01*
X119189500Y-82699860D02*
X119189500Y-83461860D01*
X118808500Y-83080860D02*
X119570500Y-83080860D01*
X121602500Y-84858860D02*
G75*
G03X121602500Y-84858860I-2413000J0D01*
G01*
X135398000Y-86305500D02*
X137398000Y-86305500D01*
X137398000Y-84255500D02*
X135398000Y-84255500D01*
X130095500Y-84255500D02*
X128095500Y-84255500D01*
X128095500Y-86305500D02*
X130095500Y-86305500D01*
X125349000Y-101155500D02*
X125349000Y-102552500D01*
X125476000Y-100901500D02*
X125476000Y-102679500D01*
X125603000Y-100520500D02*
X125603000Y-103060500D01*
X125730000Y-103187500D02*
X125730000Y-100393500D01*
X125857000Y-100266500D02*
X125857000Y-103314500D01*
X125984000Y-103441500D02*
X125984000Y-100139500D01*
X126111000Y-100012500D02*
X126111000Y-103568500D01*
X124968000Y-99123500D02*
X129540000Y-99123500D01*
X129540000Y-99123500D02*
X130302000Y-99885500D01*
X130302000Y-99885500D02*
X130302000Y-103695500D01*
X130302000Y-103695500D02*
X129540000Y-104457500D01*
X129540000Y-104457500D02*
X124968000Y-104457500D01*
X124968000Y-104457500D02*
X124968000Y-99123500D01*
X129794000Y-101790500D02*
X129032000Y-101790500D01*
X129413000Y-101409500D02*
X129413000Y-102171500D01*
X130048000Y-101790500D02*
G75*
G03X130048000Y-101790500I-2413000J0D01*
G01*
X120602500Y-112785000D02*
X122602500Y-112785000D01*
X122602500Y-110735000D02*
X120602500Y-110735000D01*
X127333500Y-112785000D02*
X129333500Y-112785000D01*
X129333500Y-110735000D02*
X127333500Y-110735000D01*
X127968500Y-96270500D02*
X129968500Y-96270500D01*
X129968500Y-98420500D02*
X127968500Y-98420500D01*
X113776760Y-83028840D02*
X113776760Y-83077100D01*
X114477800Y-85827820D02*
X113776760Y-85827820D01*
X113776760Y-85827820D02*
X113776760Y-85578900D01*
X113776760Y-83028840D02*
X113776760Y-82828180D01*
X113776760Y-82828180D02*
X114477800Y-82828180D01*
X138120120Y-87035640D02*
X126420880Y-87035640D01*
X126420880Y-92034360D02*
X138120120Y-92034360D01*
X126420880Y-87035640D02*
X126420880Y-87884000D01*
X126420880Y-92034360D02*
X126420880Y-91186000D01*
X138120120Y-87035640D02*
X138120120Y-87884000D01*
X138120120Y-92034360D02*
X138120120Y-91186000D01*
X160926780Y-104480360D02*
X161287460Y-105951020D01*
X161287460Y-105951020D02*
X161566860Y-104889300D01*
X161566860Y-104889300D02*
X161876740Y-105961180D01*
X161876740Y-105961180D02*
X162217100Y-104510840D01*
X159506920Y-105171240D02*
X160296860Y-105161080D01*
X160296860Y-105161080D02*
X160307020Y-105171240D01*
X160307020Y-105171240D02*
X160307020Y-105161080D01*
X160347660Y-104449880D02*
X160347660Y-105991660D01*
X159458660Y-104439720D02*
X159458660Y-106009440D01*
X159458660Y-106009440D02*
X159468820Y-105999280D01*
X158907480Y-104541320D02*
X158556960Y-104460040D01*
X158556960Y-104460040D02*
X158236920Y-104449880D01*
X158236920Y-104449880D02*
X157998160Y-104650540D01*
X157998160Y-104650540D02*
X157967680Y-104919780D01*
X157967680Y-104919780D02*
X158208980Y-105161080D01*
X158208980Y-105161080D02*
X158597600Y-105290620D01*
X158597600Y-105290620D02*
X158777940Y-105450640D01*
X158777940Y-105450640D02*
X158818580Y-105750360D01*
X158818580Y-105750360D02*
X158587440Y-105971340D01*
X158587440Y-105971340D02*
X158267400Y-105999280D01*
X158267400Y-105999280D02*
X157916880Y-105890060D01*
X156878020Y-104439720D02*
X156629100Y-104460040D01*
X156629100Y-104460040D02*
X156387800Y-104701340D01*
X156387800Y-104701340D02*
X156298900Y-105191560D01*
X156298900Y-105191560D02*
X156326840Y-105539540D01*
X156326840Y-105539540D02*
X156527500Y-105859580D01*
X156527500Y-105859580D02*
X156778960Y-105981500D01*
X156778960Y-105981500D02*
X157088840Y-105910380D01*
X157088840Y-105910380D02*
X157307280Y-105730040D01*
X157307280Y-105730040D02*
X157378400Y-105270300D01*
X157378400Y-105270300D02*
X157327600Y-104861360D01*
X157327600Y-104861360D02*
X157218380Y-104579420D01*
X157218380Y-104579420D02*
X156857700Y-104449880D01*
X157477460Y-102720140D02*
X157218380Y-103281480D01*
X157218380Y-103281480D02*
X157756860Y-103799640D01*
X157756860Y-103799640D02*
X158277560Y-103530400D01*
X158277560Y-103530400D02*
X158556960Y-103690420D01*
X159997140Y-103670100D02*
X160327340Y-103479600D01*
X160327340Y-103479600D02*
X160766760Y-103809800D01*
X160766760Y-103809800D02*
X161239200Y-103319580D01*
X161239200Y-103319580D02*
X160957260Y-102839520D01*
X160957260Y-102839520D02*
X161147760Y-102369620D01*
X161147760Y-102369620D02*
X161757360Y-102181660D01*
X161757360Y-102181660D02*
X161757360Y-101500940D01*
X161757360Y-101500940D02*
X161198560Y-101361240D01*
X161198560Y-101361240D02*
X160997900Y-100789740D01*
X160997900Y-100789740D02*
X161267140Y-100319840D01*
X161267140Y-100319840D02*
X160797240Y-99809300D01*
X160797240Y-99809300D02*
X160279080Y-100070920D01*
X160279080Y-100070920D02*
X159809180Y-99870260D01*
X159809180Y-99870260D02*
X159639000Y-99329240D01*
X159639000Y-99329240D02*
X158948120Y-99311460D01*
X158948120Y-99311460D02*
X158737300Y-99860100D01*
X158737300Y-99860100D02*
X158318200Y-100030280D01*
X158318200Y-100030280D02*
X157767020Y-99761040D01*
X157767020Y-99761040D02*
X157248860Y-100289360D01*
X157248860Y-100289360D02*
X157497780Y-100830380D01*
X157497780Y-100830380D02*
X157327600Y-101310440D01*
X157327600Y-101310440D02*
X156778960Y-101409500D01*
X156778960Y-101409500D02*
X156768800Y-102110540D01*
X156768800Y-102110540D02*
X157327600Y-102311200D01*
X157327600Y-102311200D02*
X157467300Y-102709980D01*
X159608520Y-102689660D02*
X159908240Y-102539800D01*
X159908240Y-102539800D02*
X160108900Y-102341680D01*
X160108900Y-102341680D02*
X160258760Y-101940360D01*
X160258760Y-101940360D02*
X160258760Y-101541580D01*
X160258760Y-101541580D02*
X160108900Y-101191060D01*
X160108900Y-101191060D02*
X159656780Y-100840540D01*
X159656780Y-100840540D02*
X159207200Y-100789740D01*
X159207200Y-100789740D02*
X158808420Y-100891340D01*
X158808420Y-100891340D02*
X158407100Y-101239320D01*
X158407100Y-101239320D02*
X158257240Y-101691440D01*
X158257240Y-101691440D02*
X158308040Y-102189280D01*
X158308040Y-102189280D02*
X158556960Y-102491540D01*
X158556960Y-102491540D02*
X158907480Y-102689660D01*
X158907480Y-102689660D02*
X158556960Y-103690420D01*
X159608520Y-102689660D02*
X160007300Y-103690420D01*
M02*
