G04 #@! TF.FileFunction,Legend,Bot*
%FSLAX46Y46*%
G04 Gerber Fmt 4.6, Leading zero omitted, Abs format (unit mm)*
G04 Created by KiCad (PCBNEW 4.0.2-stable) date vie 27 may 2016 00:51:31 CEST*
%MOMM*%
G01*
G04 APERTURE LIST*
%ADD10C,0.100000*%
%ADD11C,0.300000*%
%ADD12C,0.200000*%
%ADD13C,0.150000*%
G04 APERTURE END LIST*
D10*
D11*
X161938571Y-93976071D02*
X161938571Y-95190357D01*
X162010000Y-95333214D01*
X162081428Y-95404643D01*
X162224285Y-95476071D01*
X162438571Y-95476071D01*
X162581428Y-95404643D01*
X161938571Y-94904643D02*
X162081428Y-94976071D01*
X162367142Y-94976071D01*
X162510000Y-94904643D01*
X162581428Y-94833214D01*
X162652857Y-94690357D01*
X162652857Y-94261786D01*
X162581428Y-94118929D01*
X162510000Y-94047500D01*
X162367142Y-93976071D01*
X162081428Y-93976071D01*
X161938571Y-94047500D01*
X161224285Y-94976071D02*
X161224285Y-93976071D01*
X161224285Y-93476071D02*
X161295714Y-93547500D01*
X161224285Y-93618929D01*
X161152857Y-93547500D01*
X161224285Y-93476071D01*
X161224285Y-93618929D01*
X160724285Y-93976071D02*
X160152856Y-93976071D01*
X160509999Y-93476071D02*
X160509999Y-94761786D01*
X160438571Y-94904643D01*
X160295713Y-94976071D01*
X160152856Y-94976071D01*
X159652856Y-94976071D02*
X159652856Y-93476071D01*
X159009999Y-94976071D02*
X159009999Y-94190357D01*
X159081428Y-94047500D01*
X159224285Y-93976071D01*
X159438570Y-93976071D01*
X159581428Y-94047500D01*
X159652856Y-94118929D01*
X157652856Y-93976071D02*
X157652856Y-94976071D01*
X158295713Y-93976071D02*
X158295713Y-94761786D01*
X158224285Y-94904643D01*
X158081427Y-94976071D01*
X157867142Y-94976071D01*
X157724285Y-94904643D01*
X157652856Y-94833214D01*
X156938570Y-94976071D02*
X156938570Y-93476071D01*
X156938570Y-94047500D02*
X156795713Y-93976071D01*
X156509999Y-93976071D01*
X156367142Y-94047500D01*
X156295713Y-94118929D01*
X156224284Y-94261786D01*
X156224284Y-94690357D01*
X156295713Y-94833214D01*
X156367142Y-94904643D01*
X156509999Y-94976071D01*
X156795713Y-94976071D01*
X156938570Y-94904643D01*
X155581427Y-94833214D02*
X155509999Y-94904643D01*
X155581427Y-94976071D01*
X155652856Y-94904643D01*
X155581427Y-94833214D01*
X155581427Y-94976071D01*
X154224284Y-94904643D02*
X154367141Y-94976071D01*
X154652855Y-94976071D01*
X154795713Y-94904643D01*
X154867141Y-94833214D01*
X154938570Y-94690357D01*
X154938570Y-94261786D01*
X154867141Y-94118929D01*
X154795713Y-94047500D01*
X154652855Y-93976071D01*
X154367141Y-93976071D01*
X154224284Y-94047500D01*
X153367141Y-94976071D02*
X153509999Y-94904643D01*
X153581427Y-94833214D01*
X153652856Y-94690357D01*
X153652856Y-94261786D01*
X153581427Y-94118929D01*
X153509999Y-94047500D01*
X153367141Y-93976071D01*
X153152856Y-93976071D01*
X153009999Y-94047500D01*
X152938570Y-94118929D01*
X152867141Y-94261786D01*
X152867141Y-94690357D01*
X152938570Y-94833214D01*
X153009999Y-94904643D01*
X153152856Y-94976071D01*
X153367141Y-94976071D01*
X152224284Y-94976071D02*
X152224284Y-93976071D01*
X152224284Y-94118929D02*
X152152856Y-94047500D01*
X152009998Y-93976071D01*
X151795713Y-93976071D01*
X151652856Y-94047500D01*
X151581427Y-94190357D01*
X151581427Y-94976071D01*
X151581427Y-94190357D02*
X151509998Y-94047500D01*
X151367141Y-93976071D01*
X151152856Y-93976071D01*
X151009998Y-94047500D01*
X150938570Y-94190357D01*
X150938570Y-94976071D01*
X149152856Y-93404643D02*
X150438570Y-95333214D01*
X148795712Y-93976071D02*
X148009998Y-93976071D01*
X148795712Y-94976071D01*
X148009998Y-94976071D01*
X146867141Y-94904643D02*
X147009998Y-94976071D01*
X147295712Y-94976071D01*
X147438569Y-94904643D01*
X147509998Y-94761786D01*
X147509998Y-94190357D01*
X147438569Y-94047500D01*
X147295712Y-93976071D01*
X147009998Y-93976071D01*
X146867141Y-94047500D01*
X146795712Y-94190357D01*
X146795712Y-94333214D01*
X147509998Y-94476071D01*
X146152855Y-94976071D02*
X146152855Y-93976071D01*
X146152855Y-94261786D02*
X146081427Y-94118929D01*
X146009998Y-94047500D01*
X145867141Y-93976071D01*
X145724284Y-93976071D01*
X145224284Y-94976071D02*
X145224284Y-93476071D01*
X145224284Y-94047500D02*
X145081427Y-93976071D01*
X144795713Y-93976071D01*
X144652856Y-94047500D01*
X144581427Y-94118929D01*
X144509998Y-94261786D01*
X144509998Y-94690357D01*
X144581427Y-94833214D01*
X144652856Y-94904643D01*
X144795713Y-94976071D01*
X145081427Y-94976071D01*
X145224284Y-94904643D01*
X143295713Y-94904643D02*
X143438570Y-94976071D01*
X143724284Y-94976071D01*
X143867141Y-94904643D01*
X143938570Y-94761786D01*
X143938570Y-94190357D01*
X143867141Y-94047500D01*
X143724284Y-93976071D01*
X143438570Y-93976071D01*
X143295713Y-94047500D01*
X143224284Y-94190357D01*
X143224284Y-94333214D01*
X143938570Y-94476071D01*
X142581427Y-94976071D02*
X142581427Y-93976071D01*
X142581427Y-94261786D02*
X142509999Y-94118929D01*
X142438570Y-94047500D01*
X142295713Y-93976071D01*
X142152856Y-93976071D01*
X141652856Y-94976071D02*
X141652856Y-93976071D01*
X141652856Y-94261786D02*
X141581428Y-94118929D01*
X141509999Y-94047500D01*
X141367142Y-93976071D01*
X141224285Y-93976071D01*
X140509999Y-94976071D02*
X140652857Y-94904643D01*
X140724285Y-94833214D01*
X140795714Y-94690357D01*
X140795714Y-94261786D01*
X140724285Y-94118929D01*
X140652857Y-94047500D01*
X140509999Y-93976071D01*
X140295714Y-93976071D01*
X140152857Y-94047500D01*
X140081428Y-94118929D01*
X140009999Y-94261786D01*
X140009999Y-94690357D01*
X140081428Y-94833214D01*
X140152857Y-94904643D01*
X140295714Y-94976071D01*
X140509999Y-94976071D01*
X139438571Y-94904643D02*
X139295714Y-94976071D01*
X139009999Y-94976071D01*
X138867142Y-94904643D01*
X138795714Y-94761786D01*
X138795714Y-94690357D01*
X138867142Y-94547500D01*
X139009999Y-94476071D01*
X139224285Y-94476071D01*
X139367142Y-94404643D01*
X139438571Y-94261786D01*
X139438571Y-94190357D01*
X139367142Y-94047500D01*
X139224285Y-93976071D01*
X139009999Y-93976071D01*
X138867142Y-94047500D01*
X137081428Y-93404643D02*
X138367142Y-95333214D01*
X136081427Y-94190357D02*
X136581427Y-94190357D01*
X136581427Y-94976071D02*
X136581427Y-93476071D01*
X135867141Y-93476071D01*
X134652856Y-93976071D02*
X134652856Y-94976071D01*
X135295713Y-93976071D02*
X135295713Y-94761786D01*
X135224285Y-94904643D01*
X135081427Y-94976071D01*
X134867142Y-94976071D01*
X134724285Y-94904643D01*
X134652856Y-94833214D01*
X133938570Y-94976071D02*
X133938570Y-93976071D01*
X133938570Y-94261786D02*
X133867142Y-94118929D01*
X133795713Y-94047500D01*
X133652856Y-93976071D01*
X133509999Y-93976071D01*
X133009999Y-94976071D02*
X133009999Y-93976071D01*
X133009999Y-93476071D02*
X133081428Y-93547500D01*
X133009999Y-93618929D01*
X132938571Y-93547500D01*
X133009999Y-93476071D01*
X133009999Y-93618929D01*
X131724285Y-94904643D02*
X131867142Y-94976071D01*
X132152856Y-94976071D01*
X132295713Y-94904643D01*
X132367142Y-94761786D01*
X132367142Y-94190357D01*
X132295713Y-94047500D01*
X132152856Y-93976071D01*
X131867142Y-93976071D01*
X131724285Y-94047500D01*
X131652856Y-94190357D01*
X131652856Y-94333214D01*
X132367142Y-94476071D01*
X131009999Y-94976071D02*
X131009999Y-93976071D01*
X131009999Y-94261786D02*
X130938571Y-94118929D01*
X130867142Y-94047500D01*
X130724285Y-93976071D01*
X130581428Y-93976071D01*
X130081428Y-94404643D02*
X128938571Y-94404643D01*
X128224285Y-94976071D02*
X128224285Y-93476071D01*
X127867142Y-93476071D01*
X127652857Y-93547500D01*
X127509999Y-93690357D01*
X127438571Y-93833214D01*
X127367142Y-94118929D01*
X127367142Y-94333214D01*
X127438571Y-94618929D01*
X127509999Y-94761786D01*
X127652857Y-94904643D01*
X127867142Y-94976071D01*
X128224285Y-94976071D01*
X126295714Y-93476071D02*
X126295714Y-94547500D01*
X126367142Y-94761786D01*
X126509999Y-94904643D01*
X126724285Y-94976071D01*
X126867142Y-94976071D01*
X125581428Y-94404643D02*
X124438571Y-94404643D01*
X149421785Y-99578571D02*
X149421785Y-100792857D01*
X149350357Y-100935714D01*
X149278928Y-101007143D01*
X149136071Y-101078571D01*
X148850357Y-101078571D01*
X148707499Y-101007143D01*
X148636071Y-100935714D01*
X148564642Y-100792857D01*
X148564642Y-99578571D01*
X147921785Y-101007143D02*
X147707499Y-101078571D01*
X147350356Y-101078571D01*
X147207499Y-101007143D01*
X147136070Y-100935714D01*
X147064642Y-100792857D01*
X147064642Y-100650000D01*
X147136070Y-100507143D01*
X147207499Y-100435714D01*
X147350356Y-100364286D01*
X147636070Y-100292857D01*
X147778928Y-100221429D01*
X147850356Y-100150000D01*
X147921785Y-100007143D01*
X147921785Y-99864286D01*
X147850356Y-99721429D01*
X147778928Y-99650000D01*
X147636070Y-99578571D01*
X147278928Y-99578571D01*
X147064642Y-99650000D01*
X145921785Y-100292857D02*
X145707499Y-100364286D01*
X145636071Y-100435714D01*
X145564642Y-100578571D01*
X145564642Y-100792857D01*
X145636071Y-100935714D01*
X145707499Y-101007143D01*
X145850357Y-101078571D01*
X146421785Y-101078571D01*
X146421785Y-99578571D01*
X145921785Y-99578571D01*
X145778928Y-99650000D01*
X145707499Y-99721429D01*
X145636071Y-99864286D01*
X145636071Y-100007143D01*
X145707499Y-100150000D01*
X145778928Y-100221429D01*
X145921785Y-100292857D01*
X146421785Y-100292857D01*
X143136071Y-101078571D02*
X143136071Y-100292857D01*
X143207500Y-100150000D01*
X143350357Y-100078571D01*
X143636071Y-100078571D01*
X143778928Y-100150000D01*
X143136071Y-101007143D02*
X143278928Y-101078571D01*
X143636071Y-101078571D01*
X143778928Y-101007143D01*
X143850357Y-100864286D01*
X143850357Y-100721429D01*
X143778928Y-100578571D01*
X143636071Y-100507143D01*
X143278928Y-100507143D01*
X143136071Y-100435714D01*
X141778928Y-100078571D02*
X141778928Y-101078571D01*
X142421785Y-100078571D02*
X142421785Y-100864286D01*
X142350357Y-101007143D01*
X142207499Y-101078571D01*
X141993214Y-101078571D01*
X141850357Y-101007143D01*
X141778928Y-100935714D01*
X140421785Y-101078571D02*
X140421785Y-99578571D01*
X140421785Y-101007143D02*
X140564642Y-101078571D01*
X140850356Y-101078571D01*
X140993214Y-101007143D01*
X141064642Y-100935714D01*
X141136071Y-100792857D01*
X141136071Y-100364286D01*
X141064642Y-100221429D01*
X140993214Y-100150000D01*
X140850356Y-100078571D01*
X140564642Y-100078571D01*
X140421785Y-100150000D01*
X139707499Y-101078571D02*
X139707499Y-100078571D01*
X139707499Y-99578571D02*
X139778928Y-99650000D01*
X139707499Y-99721429D01*
X139636071Y-99650000D01*
X139707499Y-99578571D01*
X139707499Y-99721429D01*
X138778927Y-101078571D02*
X138921785Y-101007143D01*
X138993213Y-100935714D01*
X139064642Y-100792857D01*
X139064642Y-100364286D01*
X138993213Y-100221429D01*
X138921785Y-100150000D01*
X138778927Y-100078571D01*
X138564642Y-100078571D01*
X138421785Y-100150000D01*
X138350356Y-100221429D01*
X138278927Y-100364286D01*
X138278927Y-100792857D01*
X138350356Y-100935714D01*
X138421785Y-101007143D01*
X138564642Y-101078571D01*
X138778927Y-101078571D01*
X136493213Y-101078571D02*
X136493213Y-100078571D01*
X136493213Y-99578571D02*
X136564642Y-99650000D01*
X136493213Y-99721429D01*
X136421785Y-99650000D01*
X136493213Y-99578571D01*
X136493213Y-99721429D01*
X135778927Y-100078571D02*
X135778927Y-101078571D01*
X135778927Y-100221429D02*
X135707499Y-100150000D01*
X135564641Y-100078571D01*
X135350356Y-100078571D01*
X135207499Y-100150000D01*
X135136070Y-100292857D01*
X135136070Y-101078571D01*
X134636070Y-100078571D02*
X134064641Y-100078571D01*
X134421784Y-99578571D02*
X134421784Y-100864286D01*
X134350356Y-101007143D01*
X134207498Y-101078571D01*
X134064641Y-101078571D01*
X132993213Y-101007143D02*
X133136070Y-101078571D01*
X133421784Y-101078571D01*
X133564641Y-101007143D01*
X133636070Y-100864286D01*
X133636070Y-100292857D01*
X133564641Y-100150000D01*
X133421784Y-100078571D01*
X133136070Y-100078571D01*
X132993213Y-100150000D01*
X132921784Y-100292857D01*
X132921784Y-100435714D01*
X133636070Y-100578571D01*
X132278927Y-101078571D02*
X132278927Y-100078571D01*
X132278927Y-100364286D02*
X132207499Y-100221429D01*
X132136070Y-100150000D01*
X131993213Y-100078571D01*
X131850356Y-100078571D01*
X131564642Y-100078571D02*
X130993213Y-100078571D01*
X131350356Y-101078571D02*
X131350356Y-99792857D01*
X131278928Y-99650000D01*
X131136070Y-99578571D01*
X130993213Y-99578571D01*
X129850356Y-101078571D02*
X129850356Y-100292857D01*
X129921785Y-100150000D01*
X130064642Y-100078571D01*
X130350356Y-100078571D01*
X130493213Y-100150000D01*
X129850356Y-101007143D02*
X129993213Y-101078571D01*
X130350356Y-101078571D01*
X130493213Y-101007143D01*
X130564642Y-100864286D01*
X130564642Y-100721429D01*
X130493213Y-100578571D01*
X130350356Y-100507143D01*
X129993213Y-100507143D01*
X129850356Y-100435714D01*
X128493213Y-101007143D02*
X128636070Y-101078571D01*
X128921784Y-101078571D01*
X129064642Y-101007143D01*
X129136070Y-100935714D01*
X129207499Y-100792857D01*
X129207499Y-100364286D01*
X129136070Y-100221429D01*
X129064642Y-100150000D01*
X128921784Y-100078571D01*
X128636070Y-100078571D01*
X128493213Y-100150000D01*
X127278928Y-101007143D02*
X127421785Y-101078571D01*
X127707499Y-101078571D01*
X127850356Y-101007143D01*
X127921785Y-100864286D01*
X127921785Y-100292857D01*
X127850356Y-100150000D01*
X127707499Y-100078571D01*
X127421785Y-100078571D01*
X127278928Y-100150000D01*
X127207499Y-100292857D01*
X127207499Y-100435714D01*
X127921785Y-100578571D01*
X125636071Y-100078571D02*
X125064642Y-100078571D01*
X125421785Y-101078571D02*
X125421785Y-99792857D01*
X125350357Y-99650000D01*
X125207499Y-99578571D01*
X125064642Y-99578571D01*
X124350356Y-101078571D02*
X124493214Y-101007143D01*
X124564642Y-100935714D01*
X124636071Y-100792857D01*
X124636071Y-100364286D01*
X124564642Y-100221429D01*
X124493214Y-100150000D01*
X124350356Y-100078571D01*
X124136071Y-100078571D01*
X123993214Y-100150000D01*
X123921785Y-100221429D01*
X123850356Y-100364286D01*
X123850356Y-100792857D01*
X123921785Y-100935714D01*
X123993214Y-101007143D01*
X124136071Y-101078571D01*
X124350356Y-101078571D01*
X123207499Y-101078571D02*
X123207499Y-100078571D01*
X123207499Y-100364286D02*
X123136071Y-100221429D01*
X123064642Y-100150000D01*
X122921785Y-100078571D01*
X122778928Y-100078571D01*
X147921785Y-102692857D02*
X148421785Y-102692857D01*
X148421785Y-103478571D02*
X148421785Y-101978571D01*
X147707499Y-101978571D01*
X146493214Y-102478571D02*
X146493214Y-103478571D01*
X147136071Y-102478571D02*
X147136071Y-103264286D01*
X147064643Y-103407143D01*
X146921785Y-103478571D01*
X146707500Y-103478571D01*
X146564643Y-103407143D01*
X146493214Y-103335714D01*
X145778928Y-103478571D02*
X145778928Y-102478571D01*
X145778928Y-102764286D02*
X145707500Y-102621429D01*
X145636071Y-102550000D01*
X145493214Y-102478571D01*
X145350357Y-102478571D01*
X144850357Y-103478571D02*
X144850357Y-102478571D01*
X144850357Y-101978571D02*
X144921786Y-102050000D01*
X144850357Y-102121429D01*
X144778929Y-102050000D01*
X144850357Y-101978571D01*
X144850357Y-102121429D01*
X143564643Y-103407143D02*
X143707500Y-103478571D01*
X143993214Y-103478571D01*
X144136071Y-103407143D01*
X144207500Y-103264286D01*
X144207500Y-102692857D01*
X144136071Y-102550000D01*
X143993214Y-102478571D01*
X143707500Y-102478571D01*
X143564643Y-102550000D01*
X143493214Y-102692857D01*
X143493214Y-102835714D01*
X144207500Y-102978571D01*
X142850357Y-103478571D02*
X142850357Y-102478571D01*
X142850357Y-102764286D02*
X142778929Y-102621429D01*
X142707500Y-102550000D01*
X142564643Y-102478571D01*
X142421786Y-102478571D01*
X140778929Y-103478571D02*
X140778929Y-101978571D01*
X140421786Y-101978571D01*
X140207501Y-102050000D01*
X140064643Y-102192857D01*
X139993215Y-102335714D01*
X139921786Y-102621429D01*
X139921786Y-102835714D01*
X139993215Y-103121429D01*
X140064643Y-103264286D01*
X140207501Y-103407143D01*
X140421786Y-103478571D01*
X140778929Y-103478571D01*
X138850358Y-101978571D02*
X138850358Y-103050000D01*
X138921786Y-103264286D01*
X139064643Y-103407143D01*
X139278929Y-103478571D01*
X139421786Y-103478571D01*
X136993215Y-103478571D02*
X136993215Y-102478571D01*
X136993215Y-102621429D02*
X136921787Y-102550000D01*
X136778929Y-102478571D01*
X136564644Y-102478571D01*
X136421787Y-102550000D01*
X136350358Y-102692857D01*
X136350358Y-103478571D01*
X136350358Y-102692857D02*
X136278929Y-102550000D01*
X136136072Y-102478571D01*
X135921787Y-102478571D01*
X135778929Y-102550000D01*
X135707501Y-102692857D01*
X135707501Y-103478571D01*
X134993215Y-103478571D02*
X134993215Y-102478571D01*
X134993215Y-101978571D02*
X135064644Y-102050000D01*
X134993215Y-102121429D01*
X134921787Y-102050000D01*
X134993215Y-101978571D01*
X134993215Y-102121429D01*
X134421786Y-103478571D02*
X133636072Y-102478571D01*
X134421786Y-102478571D02*
X133636072Y-103478571D01*
X131278929Y-103407143D02*
X131421786Y-103478571D01*
X131707500Y-103478571D01*
X131850358Y-103407143D01*
X131921786Y-103335714D01*
X131993215Y-103192857D01*
X131993215Y-102764286D01*
X131921786Y-102621429D01*
X131850358Y-102550000D01*
X131707500Y-102478571D01*
X131421786Y-102478571D01*
X131278929Y-102550000D01*
X130421786Y-103478571D02*
X130564644Y-103407143D01*
X130636072Y-103335714D01*
X130707501Y-103192857D01*
X130707501Y-102764286D01*
X130636072Y-102621429D01*
X130564644Y-102550000D01*
X130421786Y-102478571D01*
X130207501Y-102478571D01*
X130064644Y-102550000D01*
X129993215Y-102621429D01*
X129921786Y-102764286D01*
X129921786Y-103192857D01*
X129993215Y-103335714D01*
X130064644Y-103407143D01*
X130207501Y-103478571D01*
X130421786Y-103478571D01*
X129278929Y-102478571D02*
X129278929Y-103478571D01*
X129278929Y-102621429D02*
X129207501Y-102550000D01*
X129064643Y-102478571D01*
X128850358Y-102478571D01*
X128707501Y-102550000D01*
X128636072Y-102692857D01*
X128636072Y-103478571D01*
X127993215Y-103407143D02*
X127850358Y-103478571D01*
X127564643Y-103478571D01*
X127421786Y-103407143D01*
X127350358Y-103264286D01*
X127350358Y-103192857D01*
X127421786Y-103050000D01*
X127564643Y-102978571D01*
X127778929Y-102978571D01*
X127921786Y-102907143D01*
X127993215Y-102764286D01*
X127993215Y-102692857D01*
X127921786Y-102550000D01*
X127778929Y-102478571D01*
X127564643Y-102478571D01*
X127421786Y-102550000D01*
X126493214Y-103478571D02*
X126636072Y-103407143D01*
X126707500Y-103335714D01*
X126778929Y-103192857D01*
X126778929Y-102764286D01*
X126707500Y-102621429D01*
X126636072Y-102550000D01*
X126493214Y-102478571D01*
X126278929Y-102478571D01*
X126136072Y-102550000D01*
X126064643Y-102621429D01*
X125993214Y-102764286D01*
X125993214Y-103192857D01*
X126064643Y-103335714D01*
X126136072Y-103407143D01*
X126278929Y-103478571D01*
X126493214Y-103478571D01*
X125136071Y-103478571D02*
X125278929Y-103407143D01*
X125350357Y-103264286D01*
X125350357Y-101978571D01*
X123993215Y-103407143D02*
X124136072Y-103478571D01*
X124421786Y-103478571D01*
X124564643Y-103407143D01*
X124636072Y-103264286D01*
X124636072Y-102692857D01*
X124564643Y-102550000D01*
X124421786Y-102478571D01*
X124136072Y-102478571D01*
X123993215Y-102550000D01*
X123921786Y-102692857D01*
X123921786Y-102835714D01*
X124636072Y-102978571D01*
X107898500Y-107616714D02*
X107827071Y-107473857D01*
X107827071Y-107259571D01*
X107898500Y-107045286D01*
X108041357Y-106902428D01*
X108184214Y-106831000D01*
X108469929Y-106759571D01*
X108684214Y-106759571D01*
X108969929Y-106831000D01*
X109112786Y-106902428D01*
X109255643Y-107045286D01*
X109327071Y-107259571D01*
X109327071Y-107402428D01*
X109255643Y-107616714D01*
X109184214Y-107688143D01*
X108684214Y-107688143D01*
X108684214Y-107402428D01*
X109327071Y-108331000D02*
X107827071Y-108331000D01*
X107827071Y-108902428D01*
X107898500Y-109045286D01*
X107969929Y-109116714D01*
X108112786Y-109188143D01*
X108327071Y-109188143D01*
X108469929Y-109116714D01*
X108541357Y-109045286D01*
X108612786Y-108902428D01*
X108612786Y-108331000D01*
X109327071Y-109831000D02*
X107827071Y-109831000D01*
X117582071Y-96596214D02*
X116082071Y-96596214D01*
X116796357Y-96596214D02*
X116796357Y-97453357D01*
X117582071Y-97453357D02*
X116082071Y-97453357D01*
X117582071Y-98167643D02*
X116082071Y-98167643D01*
X116153500Y-99667643D02*
X116082071Y-99524786D01*
X116082071Y-99310500D01*
X116153500Y-99096215D01*
X116296357Y-98953357D01*
X116439214Y-98881929D01*
X116724929Y-98810500D01*
X116939214Y-98810500D01*
X117224929Y-98881929D01*
X117367786Y-98953357D01*
X117510643Y-99096215D01*
X117582071Y-99310500D01*
X117582071Y-99453357D01*
X117510643Y-99667643D01*
X117439214Y-99739072D01*
X116939214Y-99739072D01*
X116939214Y-99453357D01*
X117582071Y-100381929D02*
X116082071Y-100381929D01*
X116796357Y-100381929D02*
X116796357Y-101239072D01*
X117582071Y-101239072D02*
X116082071Y-101239072D01*
X117510643Y-103024786D02*
X117582071Y-103239072D01*
X117582071Y-103596215D01*
X117510643Y-103739072D01*
X117439214Y-103810501D01*
X117296357Y-103881929D01*
X117153500Y-103881929D01*
X117010643Y-103810501D01*
X116939214Y-103739072D01*
X116867786Y-103596215D01*
X116796357Y-103310501D01*
X116724929Y-103167643D01*
X116653500Y-103096215D01*
X116510643Y-103024786D01*
X116367786Y-103024786D01*
X116224929Y-103096215D01*
X116153500Y-103167643D01*
X116082071Y-103310501D01*
X116082071Y-103667643D01*
X116153500Y-103881929D01*
X117582071Y-104524786D02*
X116082071Y-104524786D01*
X116082071Y-105096214D01*
X116153500Y-105239072D01*
X116224929Y-105310500D01*
X116367786Y-105381929D01*
X116582071Y-105381929D01*
X116724929Y-105310500D01*
X116796357Y-105239072D01*
X116867786Y-105096214D01*
X116867786Y-104524786D01*
X116796357Y-106024786D02*
X116796357Y-106524786D01*
X117582071Y-106739072D02*
X117582071Y-106024786D01*
X116082071Y-106024786D01*
X116082071Y-106739072D01*
X116796357Y-107381929D02*
X116796357Y-107881929D01*
X117582071Y-108096215D02*
X117582071Y-107381929D01*
X116082071Y-107381929D01*
X116082071Y-108096215D01*
X117582071Y-108739072D02*
X116082071Y-108739072D01*
X116082071Y-109096215D01*
X116153500Y-109310500D01*
X116296357Y-109453358D01*
X116439214Y-109524786D01*
X116724929Y-109596215D01*
X116939214Y-109596215D01*
X117224929Y-109524786D01*
X117367786Y-109453358D01*
X117510643Y-109310500D01*
X117582071Y-109096215D01*
X117582071Y-108739072D01*
X156241357Y-117471000D02*
X155527071Y-117471000D01*
X156384214Y-117899571D02*
X155884214Y-116399571D01*
X155384214Y-117899571D01*
X154884214Y-117899571D02*
X154884214Y-116399571D01*
X154527071Y-116399571D01*
X154312786Y-116471000D01*
X154169928Y-116613857D01*
X154098500Y-116756714D01*
X154027071Y-117042429D01*
X154027071Y-117256714D01*
X154098500Y-117542429D01*
X154169928Y-117685286D01*
X154312786Y-117828143D01*
X154527071Y-117899571D01*
X154884214Y-117899571D01*
X152527071Y-117756714D02*
X152598500Y-117828143D01*
X152812786Y-117899571D01*
X152955643Y-117899571D01*
X153169928Y-117828143D01*
X153312786Y-117685286D01*
X153384214Y-117542429D01*
X153455643Y-117256714D01*
X153455643Y-117042429D01*
X153384214Y-116756714D01*
X153312786Y-116613857D01*
X153169928Y-116471000D01*
X152955643Y-116399571D01*
X152812786Y-116399571D01*
X152598500Y-116471000D01*
X152527071Y-116542429D01*
X152241357Y-118042429D02*
X151098500Y-118042429D01*
X149955643Y-117899571D02*
X150812786Y-117899571D01*
X150384214Y-117899571D02*
X150384214Y-116399571D01*
X150527071Y-116613857D01*
X150669929Y-116756714D01*
X150812786Y-116828143D01*
X166083857Y-117280500D02*
X165369571Y-117280500D01*
X166226714Y-117709071D02*
X165726714Y-116209071D01*
X165226714Y-117709071D01*
X164726714Y-117709071D02*
X164726714Y-116209071D01*
X164369571Y-116209071D01*
X164155286Y-116280500D01*
X164012428Y-116423357D01*
X163941000Y-116566214D01*
X163869571Y-116851929D01*
X163869571Y-117066214D01*
X163941000Y-117351929D01*
X164012428Y-117494786D01*
X164155286Y-117637643D01*
X164369571Y-117709071D01*
X164726714Y-117709071D01*
X162369571Y-117566214D02*
X162441000Y-117637643D01*
X162655286Y-117709071D01*
X162798143Y-117709071D01*
X163012428Y-117637643D01*
X163155286Y-117494786D01*
X163226714Y-117351929D01*
X163298143Y-117066214D01*
X163298143Y-116851929D01*
X163226714Y-116566214D01*
X163155286Y-116423357D01*
X163012428Y-116280500D01*
X162798143Y-116209071D01*
X162655286Y-116209071D01*
X162441000Y-116280500D01*
X162369571Y-116351929D01*
X162083857Y-117851929D02*
X160941000Y-117851929D01*
X160655286Y-116351929D02*
X160583857Y-116280500D01*
X160441000Y-116209071D01*
X160083857Y-116209071D01*
X159941000Y-116280500D01*
X159869571Y-116351929D01*
X159798143Y-116494786D01*
X159798143Y-116637643D01*
X159869571Y-116851929D01*
X160726714Y-117709071D01*
X159798143Y-117709071D01*
D12*
X180340000Y-121094500D02*
X180721000Y-121983500D01*
X180340000Y-118999000D02*
X180340000Y-121094500D01*
D11*
X180775786Y-118145643D02*
X180561500Y-118217071D01*
X180204357Y-118217071D01*
X180061500Y-118145643D01*
X179990071Y-118074214D01*
X179918643Y-117931357D01*
X179918643Y-117788500D01*
X179990071Y-117645643D01*
X180061500Y-117574214D01*
X180204357Y-117502786D01*
X180490071Y-117431357D01*
X180632929Y-117359929D01*
X180704357Y-117288500D01*
X180775786Y-117145643D01*
X180775786Y-117002786D01*
X180704357Y-116859929D01*
X180632929Y-116788500D01*
X180490071Y-116717071D01*
X180132929Y-116717071D01*
X179918643Y-116788500D01*
X178204358Y-116645643D02*
X179490072Y-118574214D01*
X177704357Y-118217071D02*
X177704357Y-116717071D01*
X177132929Y-116717071D01*
X176990071Y-116788500D01*
X176918643Y-116859929D01*
X176847214Y-117002786D01*
X176847214Y-117217071D01*
X176918643Y-117359929D01*
X176990071Y-117431357D01*
X177132929Y-117502786D01*
X177704357Y-117502786D01*
X176204357Y-118217071D02*
X176204357Y-116717071D01*
X175847214Y-116717071D01*
X175632929Y-116788500D01*
X175490071Y-116931357D01*
X175418643Y-117074214D01*
X175347214Y-117359929D01*
X175347214Y-117574214D01*
X175418643Y-117859929D01*
X175490071Y-118002786D01*
X175632929Y-118145643D01*
X175847214Y-118217071D01*
X176204357Y-118217071D01*
X174704357Y-118217071D02*
X174704357Y-116717071D01*
X173490071Y-117431357D02*
X173990071Y-117431357D01*
X173990071Y-118217071D02*
X173990071Y-116717071D01*
X173275785Y-116717071D01*
X171561500Y-118217071D02*
X171561500Y-116717071D01*
X169775786Y-116645643D02*
X171061500Y-118574214D01*
X168990071Y-116717071D02*
X168704357Y-116717071D01*
X168561499Y-116788500D01*
X168418642Y-116931357D01*
X168347214Y-117217071D01*
X168347214Y-117717071D01*
X168418642Y-118002786D01*
X168561499Y-118145643D01*
X168704357Y-118217071D01*
X168990071Y-118217071D01*
X169132928Y-118145643D01*
X169275785Y-118002786D01*
X169347214Y-117717071D01*
X169347214Y-117217071D01*
X169275785Y-116931357D01*
X169132928Y-116788500D01*
X168990071Y-116717071D01*
X174637000Y-92924500D02*
X174565571Y-92781643D01*
X174565571Y-92567357D01*
X174637000Y-92353072D01*
X174779857Y-92210214D01*
X174922714Y-92138786D01*
X175208429Y-92067357D01*
X175422714Y-92067357D01*
X175708429Y-92138786D01*
X175851286Y-92210214D01*
X175994143Y-92353072D01*
X176065571Y-92567357D01*
X176065571Y-92710214D01*
X175994143Y-92924500D01*
X175922714Y-92995929D01*
X175422714Y-92995929D01*
X175422714Y-92710214D01*
X176065571Y-93638786D02*
X174565571Y-93638786D01*
X174565571Y-94210214D01*
X174637000Y-94353072D01*
X174708429Y-94424500D01*
X174851286Y-94495929D01*
X175065571Y-94495929D01*
X175208429Y-94424500D01*
X175279857Y-94353072D01*
X175351286Y-94210214D01*
X175351286Y-93638786D01*
X176065571Y-95138786D02*
X174565571Y-95138786D01*
X174565571Y-96138786D02*
X174565571Y-96424500D01*
X174637000Y-96567358D01*
X174779857Y-96710215D01*
X175065571Y-96781643D01*
X175565571Y-96781643D01*
X175851286Y-96710215D01*
X175994143Y-96567358D01*
X176065571Y-96424500D01*
X176065571Y-96138786D01*
X175994143Y-95995929D01*
X175851286Y-95853072D01*
X175565571Y-95781643D01*
X175065571Y-95781643D01*
X174779857Y-95853072D01*
X174637000Y-95995929D01*
X174565571Y-96138786D01*
X177977856Y-112033857D02*
X177477856Y-112033857D01*
X177263570Y-112819571D02*
X177977856Y-112819571D01*
X177977856Y-111319571D01*
X177263570Y-111319571D01*
X176763570Y-111319571D02*
X175763570Y-112819571D01*
X175763570Y-111319571D02*
X176763570Y-112819571D01*
X175406428Y-111319571D02*
X174549285Y-111319571D01*
X174977856Y-112819571D02*
X174977856Y-111319571D01*
X172049285Y-112676714D02*
X172120714Y-112748143D01*
X172335000Y-112819571D01*
X172477857Y-112819571D01*
X172692142Y-112748143D01*
X172835000Y-112605286D01*
X172906428Y-112462429D01*
X172977857Y-112176714D01*
X172977857Y-111962429D01*
X172906428Y-111676714D01*
X172835000Y-111533857D01*
X172692142Y-111391000D01*
X172477857Y-111319571D01*
X172335000Y-111319571D01*
X172120714Y-111391000D01*
X172049285Y-111462429D01*
X171406428Y-112676714D02*
X171335000Y-112748143D01*
X171406428Y-112819571D01*
X171477857Y-112748143D01*
X171406428Y-112676714D01*
X171406428Y-112819571D01*
X168692142Y-112819571D02*
X169192142Y-112105286D01*
X169549285Y-112819571D02*
X169549285Y-111319571D01*
X168977857Y-111319571D01*
X168834999Y-111391000D01*
X168763571Y-111462429D01*
X168692142Y-111605286D01*
X168692142Y-111819571D01*
X168763571Y-111962429D01*
X168834999Y-112033857D01*
X168977857Y-112105286D01*
X169549285Y-112105286D01*
X168120714Y-112748143D02*
X167906428Y-112819571D01*
X167549285Y-112819571D01*
X167406428Y-112748143D01*
X167334999Y-112676714D01*
X167263571Y-112533857D01*
X167263571Y-112391000D01*
X167334999Y-112248143D01*
X167406428Y-112176714D01*
X167549285Y-112105286D01*
X167834999Y-112033857D01*
X167977857Y-111962429D01*
X168049285Y-111891000D01*
X168120714Y-111748143D01*
X168120714Y-111605286D01*
X168049285Y-111462429D01*
X167977857Y-111391000D01*
X167834999Y-111319571D01*
X167477857Y-111319571D01*
X167263571Y-111391000D01*
X166835000Y-111319571D02*
X165977857Y-111319571D01*
X166406428Y-112819571D02*
X166406428Y-111319571D01*
X170596643Y-99373929D02*
X170668071Y-99588215D01*
X170668071Y-99945358D01*
X170596643Y-100088215D01*
X170525214Y-100159644D01*
X170382357Y-100231072D01*
X170239500Y-100231072D01*
X170096643Y-100159644D01*
X170025214Y-100088215D01*
X169953786Y-99945358D01*
X169882357Y-99659644D01*
X169810929Y-99516786D01*
X169739500Y-99445358D01*
X169596643Y-99373929D01*
X169453786Y-99373929D01*
X169310929Y-99445358D01*
X169239500Y-99516786D01*
X169168071Y-99659644D01*
X169168071Y-100016786D01*
X169239500Y-100231072D01*
X170525214Y-100873929D02*
X170596643Y-100945357D01*
X170668071Y-100873929D01*
X170596643Y-100802500D01*
X170525214Y-100873929D01*
X170668071Y-100873929D01*
X170668071Y-102731072D02*
X169168071Y-102731072D01*
X169310929Y-103373929D02*
X169239500Y-103445358D01*
X169168071Y-103588215D01*
X169168071Y-103945358D01*
X169239500Y-104088215D01*
X169310929Y-104159644D01*
X169453786Y-104231072D01*
X169596643Y-104231072D01*
X169810929Y-104159644D01*
X170668071Y-103302501D01*
X170668071Y-104231072D01*
X170525214Y-105731072D02*
X170596643Y-105659643D01*
X170668071Y-105445357D01*
X170668071Y-105302500D01*
X170596643Y-105088215D01*
X170453786Y-104945357D01*
X170310929Y-104873929D01*
X170025214Y-104802500D01*
X169810929Y-104802500D01*
X169525214Y-104873929D01*
X169382357Y-104945357D01*
X169239500Y-105088215D01*
X169168071Y-105302500D01*
X169168071Y-105445357D01*
X169239500Y-105659643D01*
X169310929Y-105731072D01*
X172160000Y-93642571D02*
X172160000Y-92142571D01*
X171660000Y-93214000D01*
X171160000Y-92142571D01*
X171160000Y-93642571D01*
X170445714Y-93499714D02*
X170374286Y-93571143D01*
X170445714Y-93642571D01*
X170517143Y-93571143D01*
X170445714Y-93499714D01*
X170445714Y-93642571D01*
X168588571Y-93642571D02*
X168588571Y-92142571D01*
X167945714Y-92285429D02*
X167874285Y-92214000D01*
X167731428Y-92142571D01*
X167374285Y-92142571D01*
X167231428Y-92214000D01*
X167159999Y-92285429D01*
X167088571Y-92428286D01*
X167088571Y-92571143D01*
X167159999Y-92785429D01*
X168017142Y-93642571D01*
X167088571Y-93642571D01*
X165588571Y-93499714D02*
X165660000Y-93571143D01*
X165874286Y-93642571D01*
X166017143Y-93642571D01*
X166231428Y-93571143D01*
X166374286Y-93428286D01*
X166445714Y-93285429D01*
X166517143Y-92999714D01*
X166517143Y-92785429D01*
X166445714Y-92499714D01*
X166374286Y-92356857D01*
X166231428Y-92214000D01*
X166017143Y-92142571D01*
X165874286Y-92142571D01*
X165660000Y-92214000D01*
X165588571Y-92285429D01*
X149819928Y-89324571D02*
X149819928Y-87824571D01*
X149462785Y-87824571D01*
X149248500Y-87896000D01*
X149105642Y-88038857D01*
X149034214Y-88181714D01*
X148962785Y-88467429D01*
X148962785Y-88681714D01*
X149034214Y-88967429D01*
X149105642Y-89110286D01*
X149248500Y-89253143D01*
X149462785Y-89324571D01*
X149819928Y-89324571D01*
X148391357Y-88896000D02*
X147677071Y-88896000D01*
X148534214Y-89324571D02*
X148034214Y-87824571D01*
X147534214Y-89324571D01*
X146177071Y-89181714D02*
X146248500Y-89253143D01*
X146462786Y-89324571D01*
X146605643Y-89324571D01*
X146819928Y-89253143D01*
X146962786Y-89110286D01*
X147034214Y-88967429D01*
X147105643Y-88681714D01*
X147105643Y-88467429D01*
X147034214Y-88181714D01*
X146962786Y-88038857D01*
X146819928Y-87896000D01*
X146605643Y-87824571D01*
X146462786Y-87824571D01*
X146248500Y-87896000D01*
X146177071Y-87967429D01*
X145891357Y-89467429D02*
X144748500Y-89467429D01*
X143605643Y-89324571D02*
X144462786Y-89324571D01*
X144034214Y-89324571D02*
X144034214Y-87824571D01*
X144177071Y-88038857D01*
X144319929Y-88181714D01*
X144462786Y-88253143D01*
X164424928Y-89070571D02*
X164424928Y-87570571D01*
X164067785Y-87570571D01*
X163853500Y-87642000D01*
X163710642Y-87784857D01*
X163639214Y-87927714D01*
X163567785Y-88213429D01*
X163567785Y-88427714D01*
X163639214Y-88713429D01*
X163710642Y-88856286D01*
X163853500Y-88999143D01*
X164067785Y-89070571D01*
X164424928Y-89070571D01*
X162996357Y-88642000D02*
X162282071Y-88642000D01*
X163139214Y-89070571D02*
X162639214Y-87570571D01*
X162139214Y-89070571D01*
X160782071Y-88927714D02*
X160853500Y-88999143D01*
X161067786Y-89070571D01*
X161210643Y-89070571D01*
X161424928Y-88999143D01*
X161567786Y-88856286D01*
X161639214Y-88713429D01*
X161710643Y-88427714D01*
X161710643Y-88213429D01*
X161639214Y-87927714D01*
X161567786Y-87784857D01*
X161424928Y-87642000D01*
X161210643Y-87570571D01*
X161067786Y-87570571D01*
X160853500Y-87642000D01*
X160782071Y-87713429D01*
X160496357Y-89213429D02*
X159353500Y-89213429D01*
X159067786Y-87713429D02*
X158996357Y-87642000D01*
X158853500Y-87570571D01*
X158496357Y-87570571D01*
X158353500Y-87642000D01*
X158282071Y-87713429D01*
X158210643Y-87856286D01*
X158210643Y-87999143D01*
X158282071Y-88213429D01*
X159139214Y-89070571D01*
X158210643Y-89070571D01*
D12*
X124269500Y-85788500D02*
X128016000Y-82613500D01*
X120396000Y-85788500D02*
X124269500Y-85788500D01*
X112014000Y-85852000D02*
X120396000Y-85788500D01*
D11*
X119865286Y-82490286D02*
X119465286Y-82490286D01*
X119293857Y-83118857D02*
X119865286Y-83118857D01*
X119865286Y-81918857D01*
X119293857Y-81918857D01*
X118893857Y-81918857D02*
X118093857Y-83118857D01*
X118093857Y-81918857D02*
X118893857Y-83118857D01*
X117808143Y-81918857D02*
X117122429Y-81918857D01*
X117465286Y-83118857D02*
X117465286Y-81918857D01*
X116722429Y-83004571D02*
X116665286Y-83061714D01*
X116722429Y-83118857D01*
X116779572Y-83061714D01*
X116722429Y-83004571D01*
X116722429Y-83118857D01*
X115236714Y-83118857D02*
X115236714Y-81918857D01*
X114779571Y-81918857D01*
X114665285Y-81976000D01*
X114608142Y-82033143D01*
X114550999Y-82147429D01*
X114550999Y-82318857D01*
X114608142Y-82433143D01*
X114665285Y-82490286D01*
X114779571Y-82547429D01*
X115236714Y-82547429D01*
X114150999Y-81918857D02*
X113865285Y-83118857D01*
X113636714Y-82261714D01*
X113408142Y-83118857D01*
X113122428Y-81918857D01*
X111979570Y-83118857D02*
X112379570Y-82547429D01*
X112665285Y-83118857D02*
X112665285Y-81918857D01*
X112208142Y-81918857D01*
X112093856Y-81976000D01*
X112036713Y-82033143D01*
X111979570Y-82147429D01*
X111979570Y-82318857D01*
X112036713Y-82433143D01*
X112093856Y-82490286D01*
X112208142Y-82547429D01*
X112665285Y-82547429D01*
X120179572Y-85098857D02*
X120179572Y-83898857D01*
X119893857Y-83898857D01*
X119722429Y-83956000D01*
X119608143Y-84070286D01*
X119551000Y-84184571D01*
X119493857Y-84413143D01*
X119493857Y-84584571D01*
X119551000Y-84813143D01*
X119608143Y-84927429D01*
X119722429Y-85041714D01*
X119893857Y-85098857D01*
X120179572Y-85098857D01*
X119093857Y-83898857D02*
X118808143Y-85098857D01*
X118579572Y-84241714D01*
X118351000Y-85098857D01*
X118065286Y-83898857D01*
X117608143Y-85098857D02*
X117608143Y-83898857D01*
X116922428Y-85098857D01*
X116922428Y-83898857D01*
X114750999Y-84984571D02*
X114808142Y-85041714D01*
X114979571Y-85098857D01*
X115093857Y-85098857D01*
X115265285Y-85041714D01*
X115379571Y-84927429D01*
X115436714Y-84813143D01*
X115493857Y-84584571D01*
X115493857Y-84413143D01*
X115436714Y-84184571D01*
X115379571Y-84070286D01*
X115265285Y-83956000D01*
X115093857Y-83898857D01*
X114979571Y-83898857D01*
X114808142Y-83956000D01*
X114750999Y-84013143D01*
X114408142Y-83898857D02*
X113722428Y-83898857D01*
X114065285Y-85098857D02*
X114065285Y-83898857D01*
X112636713Y-85098857D02*
X113036713Y-84527429D01*
X113322428Y-85098857D02*
X113322428Y-83898857D01*
X112865285Y-83898857D01*
X112750999Y-83956000D01*
X112693856Y-84013143D01*
X112636713Y-84127429D01*
X112636713Y-84298857D01*
X112693856Y-84413143D01*
X112750999Y-84470286D01*
X112865285Y-84527429D01*
X113322428Y-84527429D01*
X111550999Y-85098857D02*
X112122428Y-85098857D01*
X112122428Y-83898857D01*
X121320571Y-80561571D02*
X121820571Y-79847286D01*
X122177714Y-80561571D02*
X122177714Y-79061571D01*
X121606286Y-79061571D01*
X121463428Y-79133000D01*
X121392000Y-79204429D01*
X121320571Y-79347286D01*
X121320571Y-79561571D01*
X121392000Y-79704429D01*
X121463428Y-79775857D01*
X121606286Y-79847286D01*
X122177714Y-79847286D01*
X120749143Y-80490143D02*
X120534857Y-80561571D01*
X120177714Y-80561571D01*
X120034857Y-80490143D01*
X119963428Y-80418714D01*
X119892000Y-80275857D01*
X119892000Y-80133000D01*
X119963428Y-79990143D01*
X120034857Y-79918714D01*
X120177714Y-79847286D01*
X120463428Y-79775857D01*
X120606286Y-79704429D01*
X120677714Y-79633000D01*
X120749143Y-79490143D01*
X120749143Y-79347286D01*
X120677714Y-79204429D01*
X120606286Y-79133000D01*
X120463428Y-79061571D01*
X120106286Y-79061571D01*
X119892000Y-79133000D01*
X119463429Y-79061571D02*
X118606286Y-79061571D01*
X119034857Y-80561571D02*
X119034857Y-79061571D01*
X118106286Y-80418714D02*
X118034858Y-80490143D01*
X118106286Y-80561571D01*
X118177715Y-80490143D01*
X118106286Y-80418714D01*
X118106286Y-80561571D01*
X140310571Y-85133571D02*
X140310571Y-83633571D01*
X139739143Y-83633571D01*
X139596285Y-83705000D01*
X139524857Y-83776429D01*
X139453428Y-83919286D01*
X139453428Y-84133571D01*
X139524857Y-84276429D01*
X139596285Y-84347857D01*
X139739143Y-84419286D01*
X140310571Y-84419286D01*
X138953428Y-83633571D02*
X138596285Y-85133571D01*
X138310571Y-84062143D01*
X138024857Y-85133571D01*
X137667714Y-83633571D01*
X136239142Y-85133571D02*
X136739142Y-84419286D01*
X137096285Y-85133571D02*
X137096285Y-83633571D01*
X136524857Y-83633571D01*
X136381999Y-83705000D01*
X136310571Y-83776429D01*
X136239142Y-83919286D01*
X136239142Y-84133571D01*
X136310571Y-84276429D01*
X136381999Y-84347857D01*
X136524857Y-84419286D01*
X137096285Y-84419286D01*
X134524857Y-85062143D02*
X134310571Y-85133571D01*
X133953428Y-85133571D01*
X133810571Y-85062143D01*
X133739142Y-84990714D01*
X133667714Y-84847857D01*
X133667714Y-84705000D01*
X133739142Y-84562143D01*
X133810571Y-84490714D01*
X133953428Y-84419286D01*
X134239142Y-84347857D01*
X134382000Y-84276429D01*
X134453428Y-84205000D01*
X134524857Y-84062143D01*
X134524857Y-83919286D01*
X134453428Y-83776429D01*
X134382000Y-83705000D01*
X134239142Y-83633571D01*
X133882000Y-83633571D01*
X133667714Y-83705000D01*
X133024857Y-84347857D02*
X132524857Y-84347857D01*
X132310571Y-85133571D02*
X133024857Y-85133571D01*
X133024857Y-83633571D01*
X132310571Y-83633571D01*
X130953428Y-85133571D02*
X131667714Y-85133571D01*
X131667714Y-83633571D01*
X130453428Y-84990714D02*
X130382000Y-85062143D01*
X130453428Y-85133571D01*
X130524857Y-85062143D01*
X130453428Y-84990714D01*
X130453428Y-85133571D01*
X122999428Y-93769643D02*
X121856571Y-93769643D01*
X122428000Y-94341071D02*
X122428000Y-93198214D01*
X120705285Y-93349071D02*
X119776714Y-93349071D01*
X120276714Y-93920500D01*
X120062428Y-93920500D01*
X119919571Y-93991929D01*
X119848142Y-94063357D01*
X119776714Y-94206214D01*
X119776714Y-94563357D01*
X119848142Y-94706214D01*
X119919571Y-94777643D01*
X120062428Y-94849071D01*
X120491000Y-94849071D01*
X120633857Y-94777643D01*
X120705285Y-94706214D01*
X119133857Y-94706214D02*
X119062429Y-94777643D01*
X119133857Y-94849071D01*
X119205286Y-94777643D01*
X119133857Y-94706214D01*
X119133857Y-94849071D01*
X118562428Y-93349071D02*
X117633857Y-93349071D01*
X118133857Y-93920500D01*
X117919571Y-93920500D01*
X117776714Y-93991929D01*
X117705285Y-94063357D01*
X117633857Y-94206214D01*
X117633857Y-94563357D01*
X117705285Y-94706214D01*
X117776714Y-94777643D01*
X117919571Y-94849071D01*
X118348143Y-94849071D01*
X118491000Y-94777643D01*
X118562428Y-94706214D01*
X117205286Y-93349071D02*
X116705286Y-94849071D01*
X116205286Y-93349071D01*
X115708500Y-115613571D02*
X115708500Y-114113571D01*
X115208500Y-115185000D01*
X114708500Y-114113571D01*
X114708500Y-115613571D01*
X113994214Y-115613571D02*
X113994214Y-114113571D01*
X113279928Y-115613571D02*
X113279928Y-114113571D01*
X112922785Y-114113571D01*
X112708500Y-114185000D01*
X112565642Y-114327857D01*
X112494214Y-114470714D01*
X112422785Y-114756429D01*
X112422785Y-114970714D01*
X112494214Y-115256429D01*
X112565642Y-115399286D01*
X112708500Y-115542143D01*
X112922785Y-115613571D01*
X113279928Y-115613571D01*
X111779928Y-115613571D02*
X111779928Y-114113571D01*
X109922785Y-115613571D02*
X109922785Y-114113571D01*
X109208499Y-115470714D02*
X109137071Y-115542143D01*
X109208499Y-115613571D01*
X109279928Y-115542143D01*
X109208499Y-115470714D01*
X109208499Y-115613571D01*
X136100071Y-117963071D02*
X136100071Y-116463071D01*
X136100071Y-117177357D02*
X135242928Y-117177357D01*
X135242928Y-117963071D02*
X135242928Y-116463071D01*
X134528642Y-117963071D02*
X134528642Y-116463071D01*
X134171499Y-116463071D01*
X133957214Y-116534500D01*
X133814356Y-116677357D01*
X133742928Y-116820214D01*
X133671499Y-117105929D01*
X133671499Y-117320214D01*
X133742928Y-117605929D01*
X133814356Y-117748786D01*
X133957214Y-117891643D01*
X134171499Y-117963071D01*
X134528642Y-117963071D01*
X133100071Y-117534500D02*
X132385785Y-117534500D01*
X133242928Y-117963071D02*
X132742928Y-116463071D01*
X132242928Y-117963071D01*
X131742928Y-117963071D02*
X131742928Y-116463071D01*
D10*
X96520000Y-77470000D02*
X96520000Y-127508000D01*
X186055000Y-77470000D02*
X96520000Y-77470000D01*
X186055000Y-127508000D02*
X186055000Y-77470000D01*
X96520000Y-127508000D02*
X186055000Y-127508000D01*
D13*
X116776500Y-127740000D02*
X137096500Y-127740000D01*
X117316500Y-127190000D02*
X136536500Y-127190000D01*
X116776500Y-118640000D02*
X137096500Y-118640000D01*
X117316500Y-119190000D02*
X124686500Y-119190000D01*
X129186500Y-119190000D02*
X136536500Y-119190000D01*
X124686500Y-119190000D02*
X124686500Y-118640000D01*
X129186500Y-119190000D02*
X129186500Y-118640000D01*
X116776500Y-127740000D02*
X116776500Y-118640000D01*
X117316500Y-127190000D02*
X117316500Y-119190000D01*
X137096500Y-127740000D02*
X137096500Y-118640000D01*
X136536500Y-127190000D02*
X136536500Y-119190000D01*
X116776500Y-127740000D02*
X117316500Y-127190000D01*
X137096500Y-127740000D02*
X136536500Y-127190000D01*
X116776500Y-118640000D02*
X117316500Y-119190000D01*
X137096500Y-118640000D02*
X136536500Y-119190000D01*
X154522000Y-100139500D02*
X154847000Y-100139500D01*
X154522000Y-106489500D02*
X154847000Y-106489500D01*
X165772000Y-106489500D02*
X165447000Y-106489500D01*
X165772000Y-100139500D02*
X165447000Y-100139500D01*
X154522000Y-100139500D02*
X154522000Y-106489500D01*
X165772000Y-100139500D02*
X165772000Y-106489500D01*
X154847000Y-100139500D02*
X154847000Y-99064500D01*
X119253000Y-90360500D02*
X116713000Y-90360500D01*
X122073000Y-90080500D02*
X120523000Y-90080500D01*
X119253000Y-90360500D02*
X119253000Y-92900500D01*
X120523000Y-93180500D02*
X122073000Y-93180500D01*
X122073000Y-93180500D02*
X122073000Y-90080500D01*
X119253000Y-92900500D02*
X116713000Y-92900500D01*
X116713000Y-92900500D02*
X116713000Y-90360500D01*
X136969500Y-81724500D02*
X131889500Y-81724500D01*
X131889500Y-81724500D02*
X131889500Y-79184500D01*
X131889500Y-79184500D02*
X136969500Y-79184500D01*
X139789500Y-78904500D02*
X138239500Y-78904500D01*
X136969500Y-79184500D02*
X136969500Y-81724500D01*
X138239500Y-82004500D02*
X139789500Y-82004500D01*
X139789500Y-82004500D02*
X139789500Y-78904500D01*
X130201000Y-82004500D02*
X130201000Y-80454500D01*
X127101000Y-80454500D02*
X127101000Y-82004500D01*
X127101000Y-82004500D02*
X130201000Y-82004500D01*
X127381000Y-79184500D02*
X129921000Y-79184500D01*
X106870500Y-103792020D02*
X98234500Y-103792020D01*
X115252500Y-103792020D02*
X110172500Y-103792020D01*
X106870500Y-91600020D02*
X98234500Y-91600020D01*
X115252500Y-91600020D02*
X110172500Y-91600020D01*
X98234500Y-91600020D02*
X98234500Y-103792020D01*
X115252500Y-103792020D02*
X115252500Y-91600020D01*
X170561000Y-91313000D02*
X165481000Y-91313000D01*
X165481000Y-91313000D02*
X165481000Y-88773000D01*
X165481000Y-88773000D02*
X170561000Y-88773000D01*
X173381000Y-88493000D02*
X171831000Y-88493000D01*
X170561000Y-88773000D02*
X170561000Y-91313000D01*
X171831000Y-91593000D02*
X173381000Y-91593000D01*
X173381000Y-91593000D02*
X173381000Y-88493000D01*
X174371000Y-102743000D02*
X174371000Y-107823000D01*
X174371000Y-107823000D02*
X171831000Y-107823000D01*
X171831000Y-107823000D02*
X171831000Y-102743000D01*
X171551000Y-99923000D02*
X171551000Y-101473000D01*
X171831000Y-102743000D02*
X174371000Y-102743000D01*
X174651000Y-101473000D02*
X174651000Y-99923000D01*
X174651000Y-99923000D02*
X171551000Y-99923000D01*
X126137000Y-82004500D02*
X126137000Y-80454500D01*
X123037000Y-80454500D02*
X123037000Y-82004500D01*
X123037000Y-82004500D02*
X126137000Y-82004500D01*
X123317000Y-79184500D02*
X125857000Y-79184500D01*
X176111500Y-116421500D02*
X176111500Y-114871500D01*
X173011500Y-114871500D02*
X173011500Y-116421500D01*
X173011500Y-116421500D02*
X176111500Y-116421500D01*
X173291500Y-113601500D02*
X175831500Y-113601500D01*
X113284000Y-119507000D02*
X108204000Y-119507000D01*
X108204000Y-119507000D02*
X108204000Y-116967000D01*
X108204000Y-116967000D02*
X113284000Y-116967000D01*
X116104000Y-116687000D02*
X114554000Y-116687000D01*
X113284000Y-116967000D02*
X113284000Y-119507000D01*
X114554000Y-119787000D02*
X116104000Y-119787000D01*
X116104000Y-119787000D02*
X116104000Y-116687000D01*
X181483000Y-122936000D02*
X181483000Y-117856000D01*
X181483000Y-117856000D02*
X184023000Y-117856000D01*
X184023000Y-117856000D02*
X184023000Y-122936000D01*
X184303000Y-125756000D02*
X184303000Y-124206000D01*
X184023000Y-122936000D02*
X181483000Y-122936000D01*
X181203000Y-124206000D02*
X181203000Y-125756000D01*
X181203000Y-125756000D02*
X184303000Y-125756000D01*
X120332500Y-115062000D02*
X117792500Y-115062000D01*
X123152500Y-114782000D02*
X121602500Y-114782000D01*
X120332500Y-115062000D02*
X120332500Y-117602000D01*
X121602500Y-117882000D02*
X123152500Y-117882000D01*
X123152500Y-117882000D02*
X123152500Y-114782000D01*
X120332500Y-117602000D02*
X117792500Y-117602000D01*
X117792500Y-117602000D02*
X117792500Y-115062000D01*
X128143000Y-115062000D02*
X125603000Y-115062000D01*
X130963000Y-114782000D02*
X129413000Y-114782000D01*
X128143000Y-115062000D02*
X128143000Y-117602000D01*
X129413000Y-117882000D02*
X130963000Y-117882000D01*
X130963000Y-117882000D02*
X130963000Y-114782000D01*
X128143000Y-117602000D02*
X125603000Y-117602000D01*
X125603000Y-117602000D02*
X125603000Y-115062000D01*
X162433000Y-86973000D02*
X182753000Y-86973000D01*
X162973000Y-86423000D02*
X182193000Y-86423000D01*
X162433000Y-77873000D02*
X182753000Y-77873000D01*
X162973000Y-78423000D02*
X170343000Y-78423000D01*
X174843000Y-78423000D02*
X182193000Y-78423000D01*
X170343000Y-78423000D02*
X170343000Y-77873000D01*
X174843000Y-78423000D02*
X174843000Y-77873000D01*
X162433000Y-86973000D02*
X162433000Y-77873000D01*
X162973000Y-86423000D02*
X162973000Y-78423000D01*
X182753000Y-86973000D02*
X182753000Y-77873000D01*
X182193000Y-86423000D02*
X182193000Y-78423000D01*
X162433000Y-86973000D02*
X162973000Y-86423000D01*
X182753000Y-86973000D02*
X182193000Y-86423000D01*
X162433000Y-77873000D02*
X162973000Y-78423000D01*
X182753000Y-77873000D02*
X182193000Y-78423000D01*
X161480500Y-78063500D02*
X141160500Y-78063500D01*
X160940500Y-78613500D02*
X141720500Y-78613500D01*
X161480500Y-87163500D02*
X141160500Y-87163500D01*
X160940500Y-86613500D02*
X153570500Y-86613500D01*
X149070500Y-86613500D02*
X141720500Y-86613500D01*
X153570500Y-86613500D02*
X153570500Y-87163500D01*
X149070500Y-86613500D02*
X149070500Y-87163500D01*
X161480500Y-78063500D02*
X161480500Y-87163500D01*
X160940500Y-78613500D02*
X160940500Y-86613500D01*
X141160500Y-78063500D02*
X141160500Y-87163500D01*
X141720500Y-78613500D02*
X141720500Y-86613500D01*
X161480500Y-78063500D02*
X160940500Y-78613500D01*
X141160500Y-78063500D02*
X141720500Y-78613500D01*
X161480500Y-87163500D02*
X160940500Y-86613500D01*
X141160500Y-87163500D02*
X141720500Y-86613500D01*
X137858500Y-127740000D02*
X158178500Y-127740000D01*
X138398500Y-127190000D02*
X157618500Y-127190000D01*
X137858500Y-118640000D02*
X158178500Y-118640000D01*
X138398500Y-119190000D02*
X145768500Y-119190000D01*
X150268500Y-119190000D02*
X157618500Y-119190000D01*
X145768500Y-119190000D02*
X145768500Y-118640000D01*
X150268500Y-119190000D02*
X150268500Y-118640000D01*
X137858500Y-127740000D02*
X137858500Y-118640000D01*
X138398500Y-127190000D02*
X138398500Y-119190000D01*
X158178500Y-127740000D02*
X158178500Y-118640000D01*
X157618500Y-127190000D02*
X157618500Y-119190000D01*
X137858500Y-127740000D02*
X138398500Y-127190000D01*
X158178500Y-127740000D02*
X157618500Y-127190000D01*
X137858500Y-118640000D02*
X138398500Y-119190000D01*
X158178500Y-118640000D02*
X157618500Y-119190000D01*
X159004000Y-127740000D02*
X179324000Y-127740000D01*
X159544000Y-127190000D02*
X178764000Y-127190000D01*
X159004000Y-118640000D02*
X179324000Y-118640000D01*
X159544000Y-119190000D02*
X166914000Y-119190000D01*
X171414000Y-119190000D02*
X178764000Y-119190000D01*
X166914000Y-119190000D02*
X166914000Y-118640000D01*
X171414000Y-119190000D02*
X171414000Y-118640000D01*
X159004000Y-127740000D02*
X159004000Y-118640000D01*
X159544000Y-127190000D02*
X159544000Y-119190000D01*
X179324000Y-127740000D02*
X179324000Y-118640000D01*
X178764000Y-127190000D02*
X178764000Y-119190000D01*
X159004000Y-127740000D02*
X159544000Y-127190000D01*
X179324000Y-127740000D02*
X178764000Y-127190000D01*
X159004000Y-118640000D02*
X159544000Y-119190000D01*
X179324000Y-118640000D02*
X178764000Y-119190000D01*
X185779000Y-108267500D02*
X185779000Y-87947500D01*
X185229000Y-107727500D02*
X185229000Y-88507500D01*
X176679000Y-108267500D02*
X176679000Y-87947500D01*
X177229000Y-107727500D02*
X177229000Y-100357500D01*
X177229000Y-95857500D02*
X177229000Y-88507500D01*
X177229000Y-100357500D02*
X176679000Y-100357500D01*
X177229000Y-95857500D02*
X176679000Y-95857500D01*
X185779000Y-108267500D02*
X176679000Y-108267500D01*
X185229000Y-107727500D02*
X177229000Y-107727500D01*
X185779000Y-87947500D02*
X176679000Y-87947500D01*
X185229000Y-88507500D02*
X177229000Y-88507500D01*
X185779000Y-108267500D02*
X185229000Y-107727500D01*
X185779000Y-87947500D02*
X185229000Y-88507500D01*
X176679000Y-108267500D02*
X177229000Y-107727500D01*
X176679000Y-87947500D02*
X177229000Y-88507500D01*
X98066000Y-106045000D02*
X98066000Y-126365000D01*
X98616000Y-106585000D02*
X98616000Y-125805000D01*
X107166000Y-106045000D02*
X107166000Y-126365000D01*
X106616000Y-106585000D02*
X106616000Y-113955000D01*
X106616000Y-118455000D02*
X106616000Y-125805000D01*
X106616000Y-113955000D02*
X107166000Y-113955000D01*
X106616000Y-118455000D02*
X107166000Y-118455000D01*
X98066000Y-106045000D02*
X107166000Y-106045000D01*
X98616000Y-106585000D02*
X106616000Y-106585000D01*
X98066000Y-126365000D02*
X107166000Y-126365000D01*
X98616000Y-125805000D02*
X106616000Y-125805000D01*
X98066000Y-106045000D02*
X98616000Y-106585000D01*
X98066000Y-126365000D02*
X98616000Y-125805000D01*
X107166000Y-106045000D02*
X106616000Y-106585000D01*
X107166000Y-126365000D02*
X106616000Y-125805000D01*
M02*
